<svg width="60" height="60" viewBox="0 0 60 60" fill="none" xmlns="http://www.w3.org/2000/svg">
<path d="M46.4931 28.8182L36.7741 21.7498V8.19559C36.7741 6.38591 36.0696 4.68559 34.7902 3.40526L32.3361 0.952037C31.0886 -0.29635 28.9112 -0.29635 27.6638 0.952037L25.2096 3.40623C23.9302 4.68559 23.2257 6.38688 23.2257 8.19559V21.7488L13.5077 28.8162C12.927 29.2391 12.5806 29.9195 12.5806 30.6375C12.5806 31.8782 13.5899 32.8875 14.8306 32.8875H21.2902V30.952H14.8306C14.6573 30.952 14.5161 30.8107 14.5161 30.6375C14.5161 30.5369 14.5644 30.442 14.6457 30.383L23.2257 24.143V32.8875H36.7741V24.143L45.3541 30.383C45.4354 30.442 45.4838 30.5369 45.4838 30.6375C45.4838 30.8107 45.3425 30.952 45.1693 30.952H38.7096V32.8875H45.1693C46.4099 32.8875 47.4193 31.8782 47.4193 30.6375C47.4193 29.9204 47.0728 29.2401 46.4931 28.8182ZM30.9677 30.952H29.0322V24.5785L29.9999 23.6107L30.9677 24.5785V30.952ZM34.8386 13.5327H32.9031V15.4682H34.8386V30.952H32.9031V23.7772L29.9999 20.874L27.0967 23.7772V30.952H25.1612V15.4682H27.0967V13.5327H25.1612V11.5972H34.8386V13.5327ZM34.8386 9.66172H25.1612V8.19559C25.1612 6.90365 25.6644 5.68817 26.578 4.77462L29.0322 2.32042C29.5412 1.81139 30.4586 1.81139 30.9677 2.32042L33.4219 4.77462C34.3354 5.68817 34.8386 6.90365 34.8386 8.19559V9.66172Z" fill="black"/>
<path d="M33.871 34.823V36.7585H30.9678V34.823H29.0323V36.7585H26.1291V34.823H24.1936V38.694H35.8065V34.823H33.871Z" fill="#0A2783"/>
<path d="M55.8358 58.0488C56.0245 57.4217 56.129 56.7714 56.129 56.1133C56.129 52.3779 53.0903 49.3391 49.3548 49.3391C48.269 49.3391 47.2461 49.6024 46.3365 50.0582C45.7606 46.9024 42.9968 44.5004 39.6774 44.5004C38.8626 44.5004 38.0516 44.6495 37.2929 44.934C36.3668 43.8685 35.2074 42.9975 33.871 42.413V40.6295H31.9355V43.7543L32.58 43.9827C35.6671 45.0762 37.7419 48.0066 37.7419 51.2746H39.6774C39.6774 49.5975 39.2197 48.0046 38.4377 46.5995C38.8384 46.494 39.2516 46.4359 39.6774 46.4359C42.3455 46.4359 44.5161 48.6066 44.5161 51.2746C44.5161 51.3124 44.5123 51.3491 44.5113 51.3869C43.319 52.6082 42.5806 54.2756 42.5806 56.1133H44.5161C44.5161 53.4453 46.6868 51.2746 49.3548 51.2746C52.0229 51.2746 54.1935 53.4453 54.1935 56.1133C54.1935 56.7791 54.0523 57.4382 53.7832 58.0488H6.21097C5.94581 57.442 5.80645 56.783 5.80645 56.1133C5.80645 53.4453 7.9771 51.2746 10.6452 51.2746C12.3668 51.2746 13.9732 52.2017 14.8374 53.6949L16.5126 52.7253C16.2271 52.2317 15.8787 51.7866 15.4887 51.3878C15.4877 51.3501 15.4839 51.3124 15.4839 51.2746C15.4839 48.6066 17.6545 46.4359 20.3226 46.4359C20.7484 46.4359 21.1616 46.494 21.5613 46.5995C20.7803 48.0046 20.3226 49.5975 20.3226 51.2746C20.3226 53.4801 21.0852 55.6382 22.4681 57.352L23.9739 56.1356C22.8513 54.7449 22.2581 53.0649 22.2581 51.2746C22.2581 48.0066 24.3329 45.0762 27.42 43.9837L28.0645 43.7543V40.6295H26.129V42.413C24.7926 42.9975 23.6332 43.8685 22.7071 44.934C21.9484 44.6495 21.1374 44.5004 20.3226 44.5004C16.9994 44.5004 14.2335 46.9072 13.6626 50.0679C12.7365 49.6053 11.7097 49.3391 10.6452 49.3391C6.90968 49.3391 3.87097 52.3779 3.87097 56.1133C3.87097 56.7733 3.97355 57.4237 4.16032 58.0488H0V59.9843H60V58.0488H55.8358Z" fill="black"/>
<path d="M26.1291 49.3391H24.1936V51.2746H26.1291V49.3391Z" fill="#0A2783"/>
<path d="M37.7419 53.2101H35.8064V55.1456H37.7419V53.2101Z" fill="#0A2783"/>
<path d="M50.3227 54.1779H48.3872V56.1133H50.3227V54.1779Z" fill="#0A2783"/>
<path d="M18.3871 54.1779H16.4517V56.1133H18.3871V54.1779Z" fill="#0A2783"/>
</svg>
