<svg width="60" height="60" viewBox="0 0 60 60" fill="none" xmlns="http://www.w3.org/2000/svg">
<path d="M9.67736 13.5484C11.8122 13.5484 13.5483 11.8123 13.5483 9.67742C13.5483 7.54258 11.8122 5.80645 9.67736 5.80645C7.54253 5.80645 5.8064 7.54258 5.8064 9.67742C5.8064 11.8123 7.54253 13.5484 9.67736 13.5484ZM9.67736 7.74193C10.7448 7.74193 11.6128 8.61 11.6128 9.67742C11.6128 10.7448 10.7448 11.6129 9.67736 11.6129C8.60994 11.6129 7.74188 10.7448 7.74188 9.67742C7.74188 8.61 8.60994 7.74193 9.67736 7.74193Z" fill="#0A2783"/>
<path d="M9.67736 46.4516C7.54253 46.4516 5.8064 48.1877 5.8064 50.3226C5.8064 52.4574 7.54253 54.1936 9.67736 54.1936C11.8122 54.1936 13.5483 52.4574 13.5483 50.3226C13.5483 48.1877 11.8122 46.4516 9.67736 46.4516ZM9.67736 52.2581C8.60994 52.2581 7.74188 51.39 7.74188 50.3226C7.74188 49.2552 8.60994 48.3871 9.67736 48.3871C10.7448 48.3871 11.6128 49.2552 11.6128 50.3226C11.6128 51.39 10.7448 52.2581 9.67736 52.2581Z" fill="#0A2783"/>
<path d="M50.3226 46.4516C48.1878 46.4516 46.4517 48.1877 46.4517 50.3226C46.4517 52.4574 48.1878 54.1936 50.3226 54.1936C52.4575 54.1936 54.1936 52.4574 54.1936 50.3226C54.1936 48.1877 52.4575 46.4516 50.3226 46.4516ZM50.3226 52.2581C49.2552 52.2581 48.3871 51.39 48.3871 50.3226C48.3871 49.2552 49.2552 48.3871 50.3226 48.3871C51.39 48.3871 52.2581 49.2552 52.2581 50.3226C52.2581 51.39 51.39 52.2581 50.3226 52.2581Z" fill="#0A2783"/>
<path d="M50.3226 13.5484C52.4575 13.5484 54.1936 11.8123 54.1936 9.67742C54.1936 7.54258 52.4575 5.80645 50.3226 5.80645C48.1878 5.80645 46.4517 7.54258 46.4517 9.67742C46.4517 11.8123 48.1878 13.5484 50.3226 13.5484ZM50.3226 7.74193C51.39 7.74193 52.2581 8.61 52.2581 9.67742C52.2581 10.7448 51.39 11.6129 50.3226 11.6129C49.2552 11.6129 48.3871 10.7448 48.3871 9.67742C48.3871 8.61 49.2552 7.74193 50.3226 7.74193Z" fill="#0A2783"/>
<path d="M12.6824 21.3474L14.4137 22.2135C14.6875 21.6648 14.9972 21.1229 15.3301 20.6032L13.7004 19.5581C13.3308 20.1339 12.9882 20.7368 12.6824 21.3474Z" fill="#0A2783"/>
<path d="M10.6453 30C10.6453 39.5787 17.5017 47.6177 26.9478 49.1148L27.2498 47.2026C18.7501 45.8565 12.5807 38.6206 12.5807 30C12.5807 27.7819 12.9911 25.6229 13.8011 23.5819L12.002 22.8687C11.102 25.1371 10.6453 27.5371 10.6453 30Z" fill="#0A2783"/>
<path d="M29.0816 47.3961L28.981 49.3287C29.3197 49.3461 29.6574 49.3548 30 49.3548C30.3426 49.3548 30.6803 49.3461 31.019 49.3287L30.9184 47.3961C30.3097 47.4271 29.6893 47.4271 29.0816 47.3961Z" fill="#0A2783"/>
<path d="M49.3548 30C49.3548 28.3181 49.139 26.6487 48.7132 25.0384L46.8415 25.5339C47.2248 26.9816 47.4193 28.4845 47.4193 30C47.4193 38.6197 41.2509 45.8555 32.7522 47.2036L33.0541 49.1158C42.4993 47.6168 49.3548 39.5777 49.3548 30Z" fill="#0A2783"/>
<path d="M48.302 23.6894C48.1201 23.16 47.914 22.6374 47.6895 22.1342L45.9224 22.921C46.1227 23.3729 46.3075 23.8432 46.472 24.3194L48.302 23.6894Z" fill="#0A2783"/>
<path d="M29.9999 10.6452C24.1596 10.6452 18.6899 13.2445 14.9941 17.7745L16.4932 18.9987C19.8203 14.9197 24.7432 12.5806 29.9999 12.5806C36.418 12.5806 42.298 16.0935 45.3454 21.75L47.0487 20.8326C43.6635 14.5481 37.1312 10.6452 29.9999 10.6452Z" fill="#0A2783"/>
<path d="M45.4839 30C45.4839 21.4626 38.5374 14.5161 30 14.5161C21.4626 14.5161 14.5161 21.4626 14.5161 30C14.5161 38.5374 21.4626 45.4839 30 45.4839C38.5374 45.4839 45.4839 38.5374 45.4839 30ZM43.5484 30C43.5484 32.1203 43.0451 34.1216 42.1722 35.91L40.4932 34.9403C41.2035 33.4394 41.6129 31.7681 41.6129 30C41.6129 28.2319 41.2035 26.5606 40.4942 25.0587L42.1732 24.089C43.0451 25.8784 43.5484 27.8797 43.5484 30ZM30.9668 16.5019C35.2239 16.8039 38.9468 19.0684 41.2142 22.4081L39.5284 23.3816C37.6026 20.6177 34.5097 18.7316 30.9668 18.4374V16.5019ZM29.0322 16.501V18.4365C25.4903 18.7306 22.3964 20.6168 20.4706 23.3806L18.7848 22.4071C21.0532 19.0684 24.7761 16.8039 29.0322 16.501ZM16.4516 30C16.4516 27.8797 16.9548 25.8784 17.8277 24.09L19.5068 25.0597C18.7964 26.5606 18.3871 28.2319 18.3871 30C18.3871 31.7681 18.7964 33.4394 19.5058 34.9413L17.8268 35.911C16.9548 34.1216 16.4516 32.1203 16.4516 30ZM29.0332 43.4981C24.7761 43.1961 21.0532 40.9316 18.7858 37.5919L20.4716 36.6184C22.3974 39.3823 25.4903 41.2684 29.0332 41.5626V43.4981ZM20.3226 30C20.3226 24.6639 24.6639 20.3226 30 20.3226C35.3361 20.3226 39.6774 24.6639 39.6774 30C39.6774 35.3361 35.3361 39.6774 30 39.6774C24.6639 39.6774 20.3226 35.3361 20.3226 30ZM30.9677 43.499V41.5636C34.5097 41.2694 37.6035 39.3832 39.5293 36.6194L41.2151 37.5929C38.9468 40.9316 35.2239 43.1961 30.9677 43.499Z" fill="black"/>
<path d="M28.5482 26.129H31.4515C32.2518 26.129 32.9031 26.7803 32.9031 27.5806H34.8385C34.8385 25.7129 33.3192 24.1935 31.4515 24.1935H30.9676V22.2581H29.0321V24.1935H28.5482C26.6805 24.1935 25.1611 25.7129 25.1611 27.5806C25.1611 29.4484 26.6805 30.9677 28.5482 30.9677H31.4515C32.2518 30.9677 32.9031 31.619 32.9031 32.4194C32.9031 33.2197 32.2518 33.871 31.4515 33.871H28.5482C27.7479 33.871 27.0966 33.2197 27.0966 32.4194H25.1611C25.1611 34.2871 26.6805 35.8065 28.5482 35.8065H29.0321V37.7419H30.9676V35.8065H31.4515C33.3192 35.8065 34.8385 34.2871 34.8385 32.4194C34.8385 30.5516 33.3192 29.0323 31.4515 29.0323H28.5482C27.7479 29.0323 27.0966 28.381 27.0966 27.5806C27.0966 26.7803 27.7479 26.129 28.5482 26.129Z" fill="#0A2783"/>
<path d="M55.0161 13.4439L53.4038 14.5132C56.4522 19.1129 58.0645 24.4674 58.0645 30C58.0645 35.5326 56.4522 40.8871 53.4038 45.4858L55.0161 46.5552C58.2764 41.639 59.9999 35.9139 59.9999 30C59.9999 24.0861 58.2764 18.361 55.0161 13.4439Z" fill="black"/>
<path d="M30 58.0645C24.4674 58.0645 19.1129 56.4522 14.5132 53.4029L13.4438 55.0161C18.3619 58.2764 24.0871 60 30 60C35.9129 60 41.638 58.2764 46.5561 55.0161L45.4868 53.4029C40.8871 56.4522 35.5326 58.0645 30 58.0645Z" fill="black"/>
<path d="M1.93548 30C1.93548 24.4674 3.54774 19.1129 6.59613 14.5142L4.98387 13.4439C1.72355 18.361 0 24.0861 0 30C0 35.9139 1.72355 41.639 4.98387 46.5561L6.59613 45.4868C3.54774 40.8871 1.93548 35.5326 1.93548 30Z" fill="black"/>
<path d="M30 1.93548C35.5326 1.93548 40.8871 3.54774 45.4868 6.5971L46.5561 4.98387C41.638 1.72355 35.9129 0 30 0C24.0871 0 18.3619 1.72355 13.4438 4.98387L14.5132 6.5971C19.1129 3.54774 24.4674 1.93548 30 1.93548Z" fill="black"/>
</svg>
