<svg width="60" height="60" viewBox="0 0 60 60" fill="none" xmlns="http://www.w3.org/2000/svg">
<path d="M55.1613 0H31.9355C29.2674 0 27.0968 2.17065 27.0968 4.83871V9.67742H0V48.3871H27.0968V55.1613C27.0968 57.8294 29.2674 60 31.9355 60H55.1613C57.8294 60 60 57.8294 60 55.1613V4.83871C60 2.17065 57.8294 0 55.1613 0ZM1.93548 11.6129H48.3871V17.4194H1.93548V11.6129ZM1.93548 46.4516V19.3548H48.3871V46.4516H1.93548ZM58.0645 55.1613C58.0645 56.7619 56.7619 58.0645 55.1613 58.0645H31.9355C30.3348 58.0645 29.0323 56.7619 29.0323 55.1613V52.2581H58.0645V55.1613ZM58.0645 50.3226H29.0323V48.3871H50.3226V9.67742H29.0323V7.74194H58.0645V50.3226ZM58.0645 5.80645H29.0323V4.83871C29.0323 3.23806 30.3348 1.93548 31.9355 1.93548H55.1613C56.7619 1.93548 58.0645 3.23806 58.0645 4.83871V5.80645Z" fill="black"/>
<path d="M47.4194 54.1935H39.6775V56.129H47.4194V54.1935Z" fill="black"/>
<path d="M5.80646 13.5484H3.87097V15.4839H5.80646V13.5484Z" fill="#0A2783"/>
<path d="M9.67743 13.5484H7.74194V15.4839H9.67743V13.5484Z" fill="#0A2783"/>
<path d="M13.5484 13.5484H11.6129V15.4839H13.5484V13.5484Z" fill="#0A2783"/>
<path d="M3.87097 21.2903V28.0645C3.87097 29.3245 4.68291 30.389 5.80646 30.7897V44.5161H27.0968V30.7897C28.2203 30.389 29.0323 29.3245 29.0323 28.0645V21.2903H3.87097ZM21.2903 23.2258H23.2258V28.0645C23.2258 28.5987 22.7923 29.0323 22.2581 29.0323C21.7239 29.0323 21.2903 28.5987 21.2903 28.0645V23.2258ZM17.4194 23.2258H19.3548V28.0645C19.3548 28.5987 18.9213 29.0323 18.3871 29.0323C17.8529 29.0323 17.4194 28.5987 17.4194 28.0645V23.2258ZM13.5484 23.2258H15.4839V28.0645C15.4839 28.5987 15.0503 29.0323 14.5161 29.0323C13.9819 29.0323 13.5484 28.5987 13.5484 28.0645V23.2258ZM9.67742 23.2258H11.6129V28.0645C11.6129 28.5987 11.1794 29.0323 10.6452 29.0323C10.111 29.0323 9.67742 28.5987 9.67742 28.0645V23.2258ZM6.7742 29.0323C6.24 29.0323 5.80646 28.5987 5.80646 28.0645V23.2258H7.74194V28.0645C7.74194 28.5987 7.30839 29.0323 6.7742 29.0323ZM19.3548 42.5806H13.5484V37.7419C13.5484 36.1413 14.851 34.8387 16.4516 34.8387C18.0523 34.8387 19.3548 36.1413 19.3548 37.7419V42.5806ZM25.1613 42.5806H21.2903V37.7419C21.2903 35.0739 19.1197 32.9032 16.4516 32.9032C13.7836 32.9032 11.6129 35.0739 11.6129 37.7419V42.5806H7.74194V30.7897C8.10387 30.661 8.43 30.4655 8.70968 30.2129C9.22452 30.6774 9.89903 30.9677 10.6452 30.9677C11.3913 30.9677 12.0658 30.6764 12.5806 30.2129C13.0955 30.6774 13.77 30.9677 14.5161 30.9677C15.2623 30.9677 15.9368 30.6764 16.4516 30.2129C16.9665 30.6774 17.641 30.9677 18.3871 30.9677C19.1332 30.9677 19.8077 30.6764 20.3226 30.2129C20.8374 30.6774 21.5119 30.9677 22.2581 30.9677C23.0042 30.9677 23.6787 30.6764 24.1935 30.2129C24.4732 30.4645 24.7994 30.661 25.1613 30.7897V42.5806ZM27.0968 28.0645C27.0968 28.5987 26.6632 29.0323 26.129 29.0323C25.5948 29.0323 25.1613 28.5987 25.1613 28.0645V23.2258H27.0968V28.0645Z" fill="#0A2783"/>
<path d="M38.7097 30.9677C37.6423 30.9677 36.7742 30.0997 36.7742 29.0322C36.7742 27.9648 37.6423 27.0968 38.7097 27.0968C39.7771 27.0968 40.6452 27.9648 40.6452 29.0322H42.5807C42.5807 27.2332 41.3429 25.7313 39.6775 25.2987V23.2258H37.742V25.2987C36.0765 25.7313 34.8387 27.2332 34.8387 29.0322C34.8387 31.1671 36.5749 32.9032 38.7097 32.9032C39.7771 32.9032 40.6452 33.7713 40.6452 34.8387C40.6452 35.9061 39.7771 36.7742 38.7097 36.7742C37.6423 36.7742 36.7742 35.9061 36.7742 34.8387H34.8387C34.8387 36.6377 36.0765 38.1397 37.742 38.5722V40.6451H39.6775V38.5722C41.3429 38.1397 42.5807 36.6377 42.5807 34.8387C42.5807 32.7039 40.8445 30.9677 38.7097 30.9677Z" fill="#0A2783"/>
<path d="M32.9031 30.9677H30.9677V32.9032H32.9031V30.9677Z" fill="#0A2783"/>
<path d="M46.4516 30.9677H44.5161V32.9032H46.4516V30.9677Z" fill="#0A2783"/>
</svg>
