<svg width="270" height="70" viewBox="0 0 270 70" fill="none" xmlns="http://www.w3.org/2000/svg">
<g clip-path="url(#clip0)">
<path d="M86.1313 0.25H89.312L97.4916 20.2344H94.3337L91.9929 14.5696H83.4503L81.1552 20.2117H78.02L86.1313 0.25ZM84.5637 11.8508H90.8795L87.7216 4.16994L84.5637 11.8508Z" fill="white"/>
<path d="M109.467 0.0698242V6.59498C113.307 6.6177 116.442 9.74396 116.442 13.573C116.442 17.4248 113.307 20.5283 109.467 20.5511V25.9887H106.74V20.5511C102.878 20.5283 99.7654 17.4248 99.7654 13.573C99.7654 9.74396 102.878 6.6177 106.74 6.59498V0.0698242H109.467ZM106.74 17.8322V9.31379C104.377 9.33651 102.492 11.2389 102.492 13.573C102.49 15.9298 104.377 17.8322 106.74 17.8322ZM109.467 9.31379V17.8322C111.808 17.8322 113.716 15.9283 113.716 13.573C113.716 11.2389 111.808 9.33651 109.467 9.31379Z" fill="white"/>
<path d="M125.26 6.59521C129.123 6.59521 132.258 9.72147 132.258 13.5732C132.258 17.425 129.123 20.5513 125.26 20.5513C121.397 20.5513 118.262 17.425 118.262 13.5732C118.26 9.72147 121.397 6.59521 125.26 6.59521ZM125.26 17.8325C127.623 17.8325 129.531 15.9285 129.531 13.5732C129.531 11.2164 127.622 9.31403 125.26 9.31403C122.896 9.31403 120.989 11.2164 120.989 13.5732C120.987 15.9301 122.896 17.8325 125.26 17.8325Z" fill="white"/>
<path d="M145.936 6.75417V20.2574H142.981V14.9773H137.483V20.2786H134.528V6.73145H137.483V12.0328H142.981V6.75417H145.936Z" fill="white"/>
<path d="M160.683 6.75391V20.2571H157.729V11.2615L151.958 20.2571H148.664V6.75391H151.618V15.7934L157.367 6.75391H160.683Z" fill="white"/>
<path d="M174.816 6.75417V20.2574H171.861V14.9773H166.363V20.2786H163.408V6.73145H166.363V12.0328H171.861V6.75417H174.816Z" fill="white"/>
<path d="M177.93 20.2345L177.702 20.1209C176.885 19.6453 176.634 18.6487 177.088 17.8323C177.542 17.0159 178.587 16.722 179.406 17.1976C180.2 17.6505 180.497 18.6926 180.02 19.509L179.997 19.5771L178.293 22.5459L177.93 20.2345Z" fill="white"/>
<path d="M199.265 3.17355H189.358V7.84022L193.062 7.8175H194.175C197.675 7.8175 200.447 10.6045 200.447 14.0715C200.447 17.5159 197.675 20.2574 194.175 20.2574H186.404V0.227539H199.264V3.17355H199.265ZM189.358 10.7862V17.3114H194.175C196.039 17.3114 197.492 15.8846 197.492 14.0715C197.492 12.2358 196.039 10.7635 194.175 10.7635H193.062L189.358 10.7862Z" fill="white"/>
<path d="M209.263 6.59521C213.125 6.59521 216.261 9.72147 216.261 13.5732C216.261 17.425 213.125 20.5513 209.263 20.5513C205.4 20.5513 202.265 17.425 202.265 13.5732C202.265 9.72147 205.4 6.59521 209.263 6.59521ZM209.263 17.8325C211.626 17.8325 213.534 15.9285 213.534 13.5732C213.534 11.2164 211.626 9.31403 209.263 9.31403C206.899 9.31403 204.991 11.2164 204.991 13.5732C204.991 15.9301 206.901 17.8325 209.263 17.8325Z" fill="white"/>
<path d="M239.393 6.75391L232.553 13.5502L239.279 20.2571H235.462L230.1 14.9103V20.2571H227.374V14.9103L222.012 20.2571H218.194L224.92 13.5502L218.081 6.75391H221.898L227.374 12.1915V6.75391H230.1V12.1915L235.576 6.75391H239.393Z" fill="white"/>
<path d="M246.324 6.59521C250.187 6.59521 253.322 9.72147 253.322 13.5732C253.322 17.425 250.187 20.5513 246.324 20.5513C242.461 20.5513 239.326 17.425 239.326 13.5732C239.326 9.72147 242.461 6.59521 246.324 6.59521ZM246.324 17.8325C248.688 17.8325 250.595 15.9285 250.595 13.5732C250.595 11.2164 248.688 9.31403 246.324 9.31403C243.961 9.31403 242.053 11.2164 242.053 13.5732C242.053 15.9301 243.961 17.8325 246.324 17.8325Z" fill="white"/>
<path d="M258.321 6.754V9.20017C259.503 7.61432 261.547 6.61768 263.569 6.61768C267.114 6.61768 269.999 9.69849 269.999 13.5048C269.999 17.2885 267.113 20.3693 263.569 20.3693C261.547 20.3693 259.501 19.3499 258.321 17.7868V25.9887H255.594V6.75248H258.321V6.754ZM263.071 17.6959C265.411 17.6959 267.296 15.8147 267.296 13.5048C267.296 11.1707 265.41 9.29105 263.071 9.29105C260.753 9.29105 258.868 11.1723 258.868 13.5048C258.868 15.8162 260.753 17.6959 263.071 17.6959Z" fill="white"/>
<path d="M90.4937 31.7974V45.3006H87.5393V36.305L81.7673 45.3006H78.4727V31.7974H81.427V40.8369L87.1748 31.7974H90.4937Z" fill="white"/>
<path d="M106.376 45.3008V34.7194H100.946V45.3008H97.9912V31.7749H109.329V45.3008H106.376Z" fill="white"/>
<path d="M123.054 45.3004V42.8527C121.873 44.4385 119.828 45.4352 117.805 45.4352C114.261 45.4352 111.375 42.3544 111.375 38.548C111.375 34.7644 114.261 31.6836 117.805 31.6836C119.826 31.6836 121.873 32.703 123.054 34.2661V31.8184H125.781V45.2989H123.054V45.3004ZM118.306 34.357C115.965 34.357 114.08 36.2382 114.08 38.548C114.08 40.8821 115.965 42.7618 118.306 42.7618C120.624 42.7618 122.509 40.8821 122.509 38.548C122.509 36.2367 120.624 34.357 118.306 34.357Z" fill="white"/>
<path d="M131.235 31.7975V34.2436C132.417 32.6578 134.462 31.6611 136.483 31.6611C140.029 31.6611 142.913 34.742 142.913 38.5483C142.913 42.3319 140.027 45.4127 136.483 45.4127C134.462 45.4127 132.416 44.3934 131.235 42.8302V51.0321H128.509V31.7959H131.235V31.7975ZM135.984 42.7394C138.324 42.7394 140.209 40.8581 140.209 38.5483C140.209 36.2142 138.323 34.3345 135.984 34.3345C133.666 34.3345 131.781 36.2157 131.781 38.5483C131.781 40.8597 133.666 42.7394 135.984 42.7394Z" fill="white"/>
<path d="M144.731 31.7974H156.456V34.2223H152.117V45.3021H149.162V34.2223H144.731V31.7974Z" fill="white"/>
<path d="M170.134 31.7976V45.3008H167.18V40.0222H161.681V45.3235H158.729V31.7749H161.681V37.0762H167.18V31.7976H170.134Z" fill="white"/>
<path d="M175.683 39.4692C175.709 40.4749 176.112 41.3035 176.892 41.982C177.673 42.6348 178.581 42.962 179.614 42.962C181.303 42.962 182.513 42.2577 183.243 40.8763L185.411 42.3092C184.276 44.3949 182.084 45.5506 179.664 45.5506C177.673 45.5506 175.986 44.8977 174.625 43.5648C173.289 42.2334 172.609 40.5491 172.609 38.5634C172.609 36.6277 173.264 34.9949 174.55 33.6378C175.835 32.2806 177.448 31.6021 179.39 31.6021C181.431 31.6021 183.044 32.2306 184.203 33.512C185.362 34.7934 185.942 36.452 185.942 38.5377C185.942 38.9406 185.917 39.242 185.892 39.4677H175.683V39.4692ZM175.834 37.2078H182.891C182.791 35.3236 181.303 34.1664 179.388 34.1664C177.547 34.1664 176.112 35.3736 175.834 37.2078Z" fill="white"/>
<path d="M191.088 31.7975V34.2436C192.27 32.6578 194.315 31.6611 196.336 31.6611C199.882 31.6611 202.766 34.742 202.766 38.5483C202.766 42.3319 199.88 45.4127 196.336 45.4127C194.315 45.4127 192.269 44.3934 191.088 42.8302V51.0321H188.362V31.7959H191.088V31.7975ZM195.838 42.7394C198.179 42.7394 200.064 40.8581 200.064 38.5483C200.064 36.2142 198.177 34.3345 195.838 34.3345C193.52 34.3345 191.635 36.2157 191.635 38.5483C191.635 40.8597 193.52 42.7394 195.838 42.7394Z" fill="white"/>
<path d="M207.721 36.4413H210.811C213.288 36.4413 215.242 38.3892 215.242 40.8823C215.242 43.2845 213.288 45.3006 210.811 45.3006H205.04V31.8201H207.721V36.4413ZM207.721 39.1374V42.6272H210.811C211.788 42.6272 212.561 41.8335 212.561 40.8823C212.561 39.9084 211.812 39.1374 210.811 39.1374H207.721ZM219.083 31.7974V45.3006H216.357V31.7974H219.083Z" fill="white"/>
<path d="M79.384 63.3477H80.429C80.5551 62.5919 80.9105 61.9739 81.4741 61.4816C82.0361 60.9894 82.7135 60.7485 83.5064 60.7485C84.4026 60.7485 85.1363 61.0469 85.7226 61.6528C86.3089 62.2602 86.6066 63.016 86.6066 63.9202C86.6066 64.8245 86.3089 65.5803 85.7104 66.1877C85.1256 66.7951 84.3783 67.0919 83.4715 67.0919C82.6908 67.0919 82.0254 66.8511 81.4619 66.3709C80.9105 65.8908 80.5657 65.2607 80.4396 64.4928H79.384V66.9889H78.0291V60.8758H79.384V63.3477ZM82.2427 65.3061C82.5647 65.6727 82.9885 65.856 83.5049 65.856C84.5606 65.856 85.2153 65.0199 85.2153 63.9217C85.2153 63.384 85.0543 62.9251 84.7338 62.548C84.4239 62.1708 83.9986 61.9875 83.4821 61.9875C82.4143 61.9875 81.7718 62.8115 81.7718 63.9217C81.7718 64.47 81.9328 64.9275 82.2427 65.3061Z" fill="white"/>
<path d="M93.5741 66.1418C92.9999 66.7719 92.2769 67.0809 91.3929 67.0809C91.083 67.0809 90.7276 67.0006 90.325 66.84C89.9225 66.6689 89.6248 66.4281 89.4061 66.0963V70.0011H88.0405V60.8768H89.3727V61.8265C89.602 61.4494 89.9119 61.1858 90.3144 61.0132C90.7154 60.842 91.083 60.7617 91.4278 60.7617C92.324 60.7617 93.047 61.0828 93.5984 61.7235C94.1604 62.3642 94.4369 63.0973 94.4369 63.9107C94.4353 64.768 94.1483 65.5117 93.5741 66.1418ZM89.3833 63.9198C89.3833 64.4575 89.5549 64.9164 89.8876 65.2936C90.2324 65.6601 90.6805 65.8434 91.2197 65.8434C91.7589 65.8434 92.207 65.6601 92.5397 65.2936C92.8845 64.9164 93.0561 64.4575 93.0561 63.9198C93.0561 63.3821 92.883 62.9231 92.5397 62.546C92.207 62.1688 91.7589 61.9856 91.2197 61.9856C90.6805 61.9856 90.2324 62.1688 89.8876 62.546C89.5565 62.9246 89.3833 63.3821 89.3833 63.9198Z" fill="white"/>
<path d="M95.8586 60.876H97.1908V64.964L100.095 60.876H101.415V66.9891H100.083V62.9132L97.1786 66.9891H95.8586V60.876Z" fill="white"/>
<path d="M102.644 65.7861H102.667C102.954 65.7861 103.206 65.6604 103.425 65.4195C103.873 64.9273 103.999 64.3547 104.079 63.7473L104.435 60.874H108.993V65.7634H109.774V68.8775H108.431V66.9887H103.988V68.8775H102.645V65.7861H102.644ZM105.651 62.0994L105.422 63.8746C105.307 64.744 105.009 65.3741 104.515 65.7634H107.615V62.0994H105.651Z" fill="white"/>
<path d="M111.22 60.876H112.552V64.964L115.456 60.876H116.776V66.9891H115.444V62.9132L112.54 66.9891H111.22V60.876Z" fill="white"/>
<path d="M122.184 66.9891V64.7792C121.519 65.0882 120.932 65.2488 120.416 65.2488C119.119 65.2488 118.222 64.5626 118.222 63.2343V60.876H119.6V63.0177C119.6 63.6478 120.003 64.0249 120.645 64.0249C121.174 64.0249 121.69 63.8765 122.184 63.5902V60.8775H123.562V66.9906H122.184V66.9891Z" fill="white"/>
<path d="M126.375 64.3321C126.387 64.7896 126.571 65.1682 126.926 65.4772C127.281 65.7756 127.695 65.924 128.166 65.924C128.934 65.924 129.485 65.6029 129.818 64.9743L130.805 65.6272C130.289 66.5769 129.29 67.104 128.188 67.104C127.281 67.104 126.511 66.8071 125.892 66.1997C125.284 65.5923 124.973 64.8259 124.973 63.9217C124.973 63.0401 125.272 62.2964 125.857 61.6784C126.441 61.0605 127.177 60.7515 128.061 60.7515C128.99 60.7515 129.725 61.0377 130.254 61.6209C130.783 62.204 131.045 62.9598 131.045 63.9111C131.045 64.0943 131.033 64.2322 131.023 64.3352H126.375V64.3321ZM126.443 63.3022H129.657C129.612 62.4433 128.934 61.9162 128.061 61.9162C127.224 61.9162 126.571 62.4661 126.443 63.3022Z" fill="white"/>
<path d="M132.953 66.1877C132.346 65.5803 132.034 64.8245 132.034 63.9202C132.034 63.0614 132.344 62.3177 132.953 61.6876C133.562 61.0575 134.32 60.7485 135.227 60.7485C136.605 60.7485 137.615 61.4922 137.982 62.5798L136.811 63.1069C136.547 62.3632 136.018 61.9845 135.238 61.9845C134.732 61.9845 134.308 62.1678 133.951 62.5222C133.606 62.8766 133.435 63.3356 133.435 63.896C133.435 64.4685 133.608 64.9381 133.951 65.3046C134.296 65.6712 134.732 65.8544 135.248 65.8544C136.017 65.8544 136.546 65.4773 136.833 64.7215L138.027 65.2486C137.853 65.7408 137.521 66.1756 137.051 66.5421C136.582 66.9087 135.971 67.0919 135.226 67.0919C134.319 67.0919 133.562 66.7935 132.953 66.1877Z" fill="white"/>
<path d="M140.714 60.876V63.4524H140.771L143.205 60.876H145.018L142.217 63.8068L145.214 66.9891H143.366L140.771 64.1613H140.714V66.9891H139.348V60.876H140.714Z" fill="white"/>
<path d="M148.211 61.9285C147.511 61.9285 146.995 62.2496 146.685 62.9009L145.64 62.3056C146.121 61.2635 146.995 60.7485 148.246 60.7485C149.395 60.7485 150.163 61.1605 150.543 61.9966C150.681 62.3056 150.749 62.6722 150.749 63.0963V66.9889H149.407V66.1528C149.028 66.7829 148.432 67.0919 147.604 67.0919C147.007 67.0919 146.513 66.9208 146.123 66.5875C145.732 66.2558 145.536 65.8211 145.536 65.294V65.2259C145.536 63.8066 147.007 63.3598 148.085 63.3598H148.843C149.221 63.3598 149.417 63.1886 149.417 62.8448C149.417 62.3404 148.98 61.9285 148.211 61.9285ZM149.405 64.3216H148.085C147.798 64.3216 147.523 64.4019 147.27 64.5503C147.028 64.6988 146.902 64.9048 146.902 65.1683C146.902 65.6727 147.292 66.0044 147.877 66.0044C148.807 66.0044 149.404 65.4319 149.404 64.5155V64.3216H149.405Z" fill="white"/>
<path d="M151.977 66.9891L153.699 64.7338C152.724 64.4248 152.229 63.7947 152.229 62.8677C152.229 61.7227 153.055 60.876 154.651 60.876H157.729V66.9891H156.363V64.9746H155.101L153.608 66.9891H151.977ZM156.363 62.0195H154.802C154.194 62.0195 153.608 62.2604 153.608 62.9359C153.608 63.4736 153.998 63.8856 154.825 63.8856H156.363V62.0195Z" fill="white"/>
<path d="M163.963 60.876V63.4524H164.02L166.454 60.876H168.267L165.466 63.8068L168.463 66.9891H166.615L164.02 64.1613H163.963V66.9891H162.597V60.876H163.963Z" fill="white"/>
<path d="M174.067 61.6543C174.699 62.2617 175.009 63.0054 175.009 63.8975C175.009 64.8018 174.699 65.5576 174.067 66.1756C173.447 66.7829 172.689 67.0919 171.782 67.0919C170.886 67.0919 170.118 66.7829 169.486 66.1756C168.854 65.5682 168.544 64.8124 168.544 63.9202C168.544 63.0281 168.864 62.2723 169.496 61.6649C170.128 61.0575 170.897 60.7485 171.793 60.7485C172.677 60.7485 173.435 61.0469 174.067 61.6543ZM169.944 63.8975C169.944 64.4352 170.116 64.8942 170.461 65.2834C170.806 65.6606 171.254 65.856 171.793 65.856C172.332 65.856 172.78 65.6727 173.113 65.2955C173.446 64.9184 173.619 64.4594 173.619 63.9217C173.619 63.384 173.447 62.9251 173.102 62.548C172.77 62.1708 172.322 61.9875 171.782 61.9875C171.243 61.9875 170.795 62.1708 170.45 62.548C170.116 62.913 169.944 63.3598 169.944 63.8975Z" fill="white"/>
<path d="M178.359 60.876L180.173 65.2609L181.953 60.876H183.893V66.9891H182.55V62.3982L180.679 66.9891H179.669L177.763 62.4209V66.9891H176.43V60.876H178.359Z" fill="white"/>
<path d="M185.731 60.876H191.196V66.9891H189.829V62.0998H187.096V66.9891H185.731V60.876Z" fill="white"/>
<path d="M195.329 61.9285C194.629 61.9285 194.113 62.2496 193.803 62.9009L192.758 62.3056C193.239 61.2635 194.113 60.7485 195.364 60.7485C196.513 60.7485 197.281 61.1605 197.661 61.9966C197.799 62.3056 197.868 62.6722 197.868 63.0963V66.9889H196.525V66.1528C196.145 66.7829 195.55 67.0919 194.722 67.0919C194.125 67.0919 193.631 66.9208 193.241 66.5875C192.85 66.2558 192.656 65.8211 192.656 65.294V65.2259C192.656 63.8066 194.126 63.3598 195.205 63.3598H195.963C196.341 63.3598 196.537 63.1886 196.537 62.8448C196.534 62.3404 196.098 61.9285 195.329 61.9285ZM196.523 64.3216H195.203C194.916 64.3216 194.641 64.4019 194.388 64.5503C194.146 64.6988 194.02 64.9048 194.02 65.1683C194.02 65.6727 194.41 66.0044 194.995 66.0044C195.925 66.0044 196.522 65.4319 196.522 64.5155V64.3216H196.523Z" fill="white"/>
<path d="M199.634 60.876H201V63.3025H203.778V60.876H205.143V66.9891H203.778V64.493H201V66.9891H199.634V60.876Z" fill="white"/>
<path d="M206.981 60.876H208.314V64.964L211.218 60.876H212.538V66.9891H211.206V62.9132L208.301 66.9891H206.981V60.876Z" fill="white"/>
<path d="M213.835 66.9891L215.557 64.7338C214.582 64.4248 214.087 63.7947 214.087 62.8677C214.087 61.7227 214.913 60.876 216.51 60.876H219.587V66.9891H218.222V64.9746H216.958L215.465 66.9891H213.835ZM218.222 62.0195H216.66C216.051 62.0195 215.466 62.2604 215.466 62.9359C215.466 63.4736 215.857 63.8856 216.683 63.8856H218.222V62.0195Z" fill="white"/>
<path d="M40.3119 8.39273L40.3027 0.0969382L63.6066 0L63.6158 8.29579L40.3119 8.39273Z" fill="white"/>
<path d="M8.76897 68.3823H0L26.9813 0H35.7503L8.76897 68.3823Z" fill="white"/>
<path d="M40.3027 20.4736V28.7755C48.6342 29.1496 55.2964 36.0231 55.2964 44.4219C55.2964 52.8207 48.6342 59.6942 40.3027 60.0684V68.3702C53.2428 67.9931 63.6158 57.4162 63.6158 44.4204C63.6158 31.4277 53.2428 20.8508 40.3027 20.4736Z" fill="white"/>
</g>
<defs>
<clipPath id="clip0">
<rect width="270" height="70" fill="white"/>
</clipPath>
</defs>
</svg>
