<svg width="60" height="60" viewBox="0 0 60 60" fill="none" xmlns="http://www.w3.org/2000/svg">
<path d="M45 25H20C19.448 25 19 25.447 19 26C19 26.553 19.448 27 20 27H45C45.552 27 46 26.553 46 26C46 25.447 45.552 25 45 25Z" fill="#0A2783"/>
<path d="M20 19H30C30.552 19 31 18.553 31 18C31 17.447 30.552 17 30 17H20C19.448 17 19 17.447 19 18C19 18.553 19.448 19 20 19Z" fill="#0A2783"/>
<path d="M45 33H20C19.448 33 19 33.447 19 34C19 34.553 19.448 35 20 35H45C45.552 35 46 34.553 46 34C46 33.447 45.552 33 45 33Z" fill="#0A2783"/>
<path d="M45 41H20C19.448 41 19 41.447 19 42C19 42.553 19.448 43 20 43H45C45.552 43 46 42.553 46 42C46 41.447 45.552 41 45 41Z" fill="#0A2783"/>
<path d="M45 49H20C19.448 49 19 49.447 19 50C19 50.553 19.448 51 20 51H45C45.552 51 46 50.553 46 50C46 49.447 45.552 49 45 49Z" fill="#0A2783"/>
<path d="M49 14.586V0H6V55H11V60H54V19.586L49 14.586ZM40 8.414L49 17.414L50.586 19H40V8.414ZM8 53V2H47V12.586L39.414 5H11V53H8ZM13 58V55V7H38V21H52V58H13Z" fill="black"/>
</svg>
