<svg width="60" height="60" viewBox="0 0 60 60" fill="none" xmlns="http://www.w3.org/2000/svg">
<path d="M9.57983 0V13H0V34.5H9.57983V60H44.3698L60 45V0H9.57983ZM2.01681 32.5V15H39.8319V32.5H2.01681ZM44.874 57V44.5H57.479L44.874 57ZM57.9832 42.5H42.8571V58H11.5966V34.5H41.8487V13H11.5966V2H57.9832V42.5Z" fill="black"/>
<path d="M36.8067 40H16.6387V42H36.8067V40Z" fill="#0A2783"/>
<path d="M36.8067 45H16.6387V47H36.8067V45Z" fill="#0A2783"/>
<path d="M36.8067 50H16.6387V52H36.8067V50Z" fill="#0A2783"/>
<path d="M13.8101 20.4475C13.7092 20.0625 13.5429 19.72 13.3109 19.42C13.079 19.12 12.7765 18.8775 12.3958 18.6925C12.0151 18.5075 11.5513 18.415 10.9966 18.415H7.18488V29.125H9.36303V24.85H10.5277C11.042 24.85 11.5109 24.78 11.9345 24.6525C12.358 24.525 12.7185 24.3275 13.016 24.0675C13.3134 23.81 13.5454 23.475 13.7118 23.065C13.8781 22.655 13.9613 22.175 13.9613 21.625C13.9613 21.225 13.9084 20.83 13.8101 20.4475ZM11.3824 22.8725C11.1176 23.1325 10.7647 23.265 10.3311 23.265H9.36303V20.0075H10.2706C10.8151 20.0075 11.2034 20.15 11.4353 20.4275C11.6672 20.7075 11.7832 21.1175 11.7832 21.6575C11.7832 22.2075 11.6496 22.6125 11.3824 22.8725Z" fill="#0A2783"/>
<path d="M23.6603 21.475C23.5695 20.8325 23.3981 20.2875 23.1385 19.8325C22.8813 19.375 22.5208 19.0275 22.0569 18.7825C21.5906 18.5375 20.983 18.4125 20.2242 18.4125H16.6544V29.1225H20.0931C20.8191 29.1225 21.4191 29.0125 21.8931 28.7925C22.367 28.5725 22.7452 28.24 23.0275 27.7875C23.3099 27.3375 23.509 26.7625 23.625 26.07C23.741 25.375 23.7964 24.5575 23.7964 23.6175C23.7964 22.83 23.7511 22.115 23.6603 21.475ZM21.5477 25.51C21.5048 26.0025 21.4141 26.3975 21.2754 26.6975C21.1393 26.9975 20.9553 27.2125 20.7233 27.3425C20.4914 27.4725 20.1838 27.5375 19.8006 27.5375H18.8326V20.005H19.7527C20.1662 20.005 20.4964 20.085 20.7435 20.24C20.9931 20.3925 21.1771 20.6225 21.3057 20.9275C21.4317 21.2325 21.5149 21.615 21.5553 22.075C21.5931 22.5375 21.6158 23.0725 21.6158 23.6825C21.6158 24.4125 21.5931 25.0225 21.5477 25.51Z" fill="#0A2783"/>
<path d="M32.7777 20.185V18.415H26.7424V29.125H28.9205V24.475H32.5508V22.705H28.9205V20.185H32.7777Z" fill="#0A2783"/>
</svg>
