<svg width="348" height="90" viewBox="0 0 348 90" fill="none" xmlns="http://www.w3.org/2000/svg">
<g clip-path="url(#clip0)">
<path d="M111.014 0.32135H115.113L125.656 26.0156H121.586L118.569 18.7323H107.558L104.6 25.9864H100.559L111.014 0.32135ZM108.993 15.2366H117.134L113.063 5.36127L108.993 15.2366Z" fill="black"/>
<path d="M141.091 0.0895996V8.47908C146.04 8.5083 150.081 12.5278 150.081 17.4508C150.081 22.4031 146.04 26.3934 141.091 26.4226V33.4138H137.577V26.4226C132.598 26.3934 128.587 22.4031 128.587 17.4508C128.587 12.5278 132.598 8.5083 137.577 8.47908V0.0895996H141.091ZM137.577 22.927V11.9747C134.53 12.0039 132.101 14.4499 132.101 17.4508C132.099 20.481 134.53 22.927 137.577 22.927ZM141.091 11.9747V22.927C144.108 22.927 146.567 20.4791 146.567 17.4508C146.567 14.4499 144.108 12.0039 141.091 11.9747Z" fill="black"/>
<path d="M161.446 8.47906C166.424 8.47906 170.465 12.4985 170.465 17.4508C170.465 22.4031 166.424 26.4226 161.446 26.4226C156.467 26.4226 152.426 22.4031 152.426 17.4508C152.424 12.4985 156.467 8.47906 161.446 8.47906ZM161.446 22.927C164.492 22.927 166.951 20.4791 166.951 17.4508C166.951 14.4206 164.49 11.9747 161.446 11.9747C158.4 11.9747 155.941 14.4206 155.941 17.4508C155.939 20.481 158.4 22.927 161.446 22.927Z" fill="black"/>
<path d="M188.095 8.68357V26.0448H184.287V19.2561H177.2V26.0721H173.392V8.65436H177.2V15.4703H184.287V8.68357H188.095Z" fill="black"/>
<path d="M207.103 8.68356V26.0448H203.295V14.4791L195.858 26.0448H191.611V8.68356H195.419V20.3058L202.829 8.68356H207.103Z" fill="black"/>
<path d="M225.318 8.68357V26.0448H221.51V19.2561H214.423V26.0721H210.615V8.65436H214.423V15.4703H221.51V8.68357H225.318Z" fill="black"/>
<path d="M229.332 26.0156L229.038 25.8696C227.985 25.2581 227.662 23.9767 228.247 22.927C228.832 21.8773 230.179 21.4995 231.235 22.111C232.259 22.6933 232.64 24.0331 232.026 25.0828L231.996 25.1704L229.8 28.9874L229.332 26.0156Z" fill="black"/>
<path d="M256.831 4.07985H244.062V10.0798L248.835 10.0506H250.27C254.781 10.0506 258.354 13.6339 258.354 18.0915C258.354 22.52 254.781 26.0448 250.27 26.0448H240.254V0.292114H256.829V4.07985H256.831ZM244.062 13.8676V22.2571H250.27C252.672 22.2571 254.546 20.4226 254.546 18.0915C254.546 15.7313 252.672 13.8384 250.27 13.8384H248.835L244.062 13.8676Z" fill="black"/>
<path d="M269.717 8.47906C274.695 8.47906 278.736 12.4985 278.736 17.4508C278.736 22.4031 274.695 26.4226 269.717 26.4226C264.738 26.4226 260.697 22.4031 260.697 17.4508C260.697 12.4985 264.738 8.47906 269.717 8.47906ZM269.717 22.927C272.763 22.927 275.222 20.4791 275.222 17.4508C275.222 14.4206 272.763 11.9747 269.717 11.9747C266.67 11.9747 264.211 14.4206 264.211 17.4508C264.211 20.481 266.672 22.927 269.717 22.927Z" fill="black"/>
<path d="M308.551 8.68356L299.735 17.4216L308.404 26.0448H303.484L296.573 19.1704V26.0448H293.059V19.1704L286.148 26.0448H281.228L289.897 17.4216L281.081 8.68356H286.001L293.059 15.6748V8.68356H296.573V15.6748L303.631 8.68356H308.551Z" fill="black"/>
<path d="M317.484 8.47906C322.463 8.47906 326.504 12.4985 326.504 17.4508C326.504 22.4031 322.463 26.4226 317.484 26.4226C312.506 26.4226 308.465 22.4031 308.465 17.4508C308.465 12.4985 312.506 8.47906 317.484 8.47906ZM317.484 22.927C320.531 22.927 322.989 20.4791 322.989 17.4508C322.989 14.4206 320.531 11.9747 317.484 11.9747C314.438 11.9747 311.979 14.4206 311.979 17.4508C311.979 20.481 314.438 22.927 317.484 22.927Z" fill="black"/>
<path d="M332.947 8.68357V11.8287C334.47 9.7897 337.105 8.5083 339.711 8.5083C344.28 8.5083 347.998 12.4694 347.998 17.3632C347.998 22.2279 344.278 26.1889 339.711 26.1889C337.105 26.1889 334.468 24.8783 332.947 22.8686V33.4138H329.432V8.68162H332.947V8.68357ZM339.069 22.7517C342.086 22.7517 344.515 20.333 344.515 17.3632C344.515 14.3622 342.084 11.9455 339.069 11.9455C336.081 11.9455 333.652 14.3642 333.652 17.3632C333.652 20.335 336.081 22.7517 339.069 22.7517Z" fill="black"/>
<path d="M116.636 40.8822V58.2434H112.829V46.6777L105.389 58.2434H101.143V40.8822H104.95V52.5044L112.359 40.8822H116.636Z" fill="black"/>
<path d="M137.107 58.2435V44.6388H130.108V58.2435H126.3V40.853H140.913V58.2435H137.107Z" fill="black"/>
<path d="M158.603 58.2434V55.0964C157.08 57.1354 154.445 58.4168 151.837 58.4168C147.27 58.4168 143.55 54.4557 143.55 49.5618C143.55 44.6972 147.27 40.7361 151.837 40.7361C154.443 40.7361 157.08 42.0467 158.603 44.0565V40.9095H162.117V58.2415H158.603V58.2434ZM152.483 44.1733C149.466 44.1733 147.037 46.592 147.037 49.5618C147.037 52.5628 149.466 54.9796 152.483 54.9796C155.471 54.9796 157.9 52.5628 157.9 49.5618C157.9 46.5901 155.471 44.1733 152.483 44.1733Z" fill="black"/>
<path d="M169.148 40.8822V44.0273C170.671 41.9883 173.306 40.7069 175.912 40.7069C180.481 40.7069 184.199 44.668 184.199 49.5619C184.199 54.4265 180.479 58.3876 175.912 58.3876C173.306 58.3876 170.669 57.077 169.148 55.0672V65.6125H165.634V40.8803H169.148V40.8822ZM175.268 54.9504C178.285 54.9504 180.714 52.5317 180.714 49.5619C180.714 46.5609 178.283 44.1441 175.268 44.1441C172.28 44.1441 169.851 46.5628 169.851 49.5619C169.851 52.5336 172.28 54.9504 175.268 54.9504Z" fill="black"/>
<path d="M186.542 40.8822H201.655V44H196.061V58.2454H192.253V44H186.542V40.8822Z" fill="black"/>
<path d="M219.284 40.8822V58.2434H215.476V51.4567H208.389V58.2727H204.583V40.853H208.389V47.669H215.476V40.8822H219.284Z" fill="black"/>
<path d="M226.436 50.7459C226.469 52.039 226.988 53.1042 227.994 53.9767C229.001 54.816 230.171 55.2366 231.503 55.2366C233.68 55.2366 235.238 54.3311 236.18 52.555L238.974 54.3973C237.511 57.0789 234.686 58.5648 231.567 58.5648C229.001 58.5648 226.826 57.7254 225.071 56.0117C223.351 54.2999 222.474 52.1344 222.474 49.5813C222.474 47.0925 223.317 44.9932 224.976 43.2483C226.632 41.5034 228.711 40.631 231.213 40.631C233.844 40.631 235.923 41.4392 237.417 43.0867C238.911 44.7342 239.659 46.8666 239.659 49.5482C239.659 50.0662 239.626 50.4538 239.594 50.7439H226.436V50.7459ZM226.63 47.8384H235.726C235.596 45.4158 233.68 43.928 231.211 43.928C228.838 43.928 226.988 45.4801 226.63 47.8384Z" fill="black"/>
<path d="M246.292 40.8822V44.0273C247.815 41.9883 250.45 40.7069 253.056 40.7069C257.625 40.7069 261.343 44.668 261.343 49.5619C261.343 54.4265 257.623 58.3876 253.056 58.3876C250.45 58.3876 247.813 57.077 246.292 55.0672V65.6125H242.778V40.8803H246.292V40.8822ZM252.414 54.9504C255.431 54.9504 257.86 52.5317 257.86 49.5619C257.86 46.5609 255.429 44.1441 252.414 44.1441C249.426 44.1441 246.997 46.5628 246.997 49.5619C246.997 52.5336 249.426 54.9504 252.414 54.9504Z" fill="black"/>
<path d="M267.729 46.853H271.712C274.905 46.853 277.422 49.3574 277.422 52.5628C277.422 55.6514 274.905 58.2434 271.712 58.2434H264.274V40.9114H267.729V46.853ZM267.729 50.3194V54.8062H271.712C272.97 54.8062 273.967 53.7858 273.967 52.5628C273.967 51.3106 273.002 50.3194 271.712 50.3194H267.729ZM282.374 40.8822V58.2434H278.859V40.8822H282.374Z" fill="black"/>
<path d="M102.317 81.4469H103.664C103.827 80.4752 104.285 79.6806 105.011 79.0477C105.735 78.4148 106.609 78.1052 107.631 78.1052C108.786 78.1052 109.731 78.4888 110.487 79.2678C111.243 80.0487 111.626 81.0205 111.626 82.1831C111.626 83.3457 111.243 84.3174 110.471 85.0984C109.718 85.8793 108.754 86.261 107.586 86.261C106.579 86.261 105.722 85.9513 104.995 85.334C104.285 84.7167 103.84 83.9065 103.678 82.9192H102.317V86.1285H100.571V78.2687H102.317V81.4469ZM106.002 83.965C106.417 84.4362 106.963 84.6719 107.629 84.6719C108.989 84.6719 109.833 83.5969 109.833 82.185C109.833 81.4937 109.626 80.9036 109.212 80.4187C108.813 79.9338 108.265 79.6982 107.599 79.6982C106.223 79.6982 105.395 80.7575 105.395 82.185C105.395 82.89 105.602 83.4781 106.002 83.965Z" fill="#0A2783"/>
<path d="M120.607 85.0393C119.867 85.8494 118.935 86.2467 117.795 86.2467C117.396 86.2467 116.938 86.1435 116.419 85.9371C115.9 85.717 115.516 85.4074 115.235 84.9809V90.0013H113.474V78.2701H115.191V79.4911C115.487 79.0062 115.886 78.6674 116.405 78.4454C116.922 78.2253 117.396 78.1221 117.84 78.1221C118.995 78.1221 119.927 78.5349 120.638 79.3587C121.362 80.1825 121.719 81.125 121.719 82.1708C121.717 83.273 121.347 84.2292 120.607 85.0393ZM115.205 82.1825C115.205 82.8738 115.426 83.4638 115.855 83.9488C116.3 84.42 116.877 84.6557 117.572 84.6557C118.267 84.6557 118.845 84.42 119.273 83.9488C119.718 83.4638 119.939 82.8738 119.939 82.1825C119.939 81.4911 119.716 80.901 119.273 80.4161C118.845 79.9312 118.267 79.6956 117.572 79.6956C116.877 79.6956 116.3 79.9312 115.855 80.4161C115.428 80.903 115.205 81.4911 115.205 82.1825Z" fill="#0A2783"/>
<path d="M123.551 78.2688H125.268V83.5248L129.011 78.2688H130.713V86.1285H128.996V80.888L125.252 86.1285H123.551V78.2688Z" fill="#0A2783"/>
<path d="M132.297 84.5823H132.326C132.696 84.5823 133.021 84.4206 133.303 84.111C133.88 83.4781 134.043 82.742 134.147 81.961L134.605 78.2668H140.48V84.5531H141.486V88.557H139.756V86.1285H134.029V88.557H132.298V84.5823H132.297ZM136.173 79.8422L135.877 82.1246C135.728 83.2425 135.345 84.0526 134.708 84.5531H138.704V79.8422H136.173Z" fill="#0A2783"/>
<path d="M143.35 78.2688H145.067V83.5248L148.81 78.2688H150.512V86.1285H148.795V80.888L145.051 86.1285H143.35V78.2688Z" fill="#0A2783"/>
<path d="M157.481 86.1285V83.2872C156.624 83.6845 155.868 83.8909 155.203 83.8909C153.531 83.8909 152.375 83.0088 152.375 81.3009V78.2688H154.151V81.0224C154.151 81.8325 154.67 82.3174 155.498 82.3174C156.179 82.3174 156.845 82.1266 157.481 81.7585V78.2707H159.257V86.1305H157.481V86.1285Z" fill="#0A2783"/>
<path d="M162.883 82.7126C162.898 83.3008 163.135 83.7876 163.593 84.1849C164.052 84.5685 164.584 84.7594 165.191 84.7594C166.182 84.7594 166.892 84.3465 167.321 83.5383L168.594 84.3777C167.928 85.5987 166.64 86.2764 165.22 86.2764C164.052 86.2764 163.059 85.8947 162.26 85.1138C161.477 84.3329 161.076 83.3475 161.076 82.1849C161.076 81.0515 161.461 80.0953 162.215 79.3007C162.969 78.5062 163.917 78.1089 165.056 78.1089C166.254 78.1089 167.202 78.477 167.883 79.2267C168.564 79.9765 168.903 80.9483 168.903 82.1712C168.903 82.4069 168.887 82.5841 168.874 82.7165H162.883V82.7126ZM162.971 81.3884H167.114C167.055 80.2842 166.182 79.6065 165.056 79.6065C163.977 79.6065 163.135 80.3134 162.971 81.3884Z" fill="#0A2783"/>
<path d="M171.362 85.0984C170.579 84.3174 170.177 83.3457 170.177 82.1831C170.177 81.0789 170.577 80.1227 171.362 79.3126C172.147 78.5024 173.124 78.1052 174.293 78.1052C176.068 78.1052 177.37 79.0613 177.844 80.4596L176.335 81.1373C175.994 80.1811 175.313 79.6943 174.306 79.6943C173.654 79.6943 173.108 79.9299 172.648 80.3856C172.204 80.8413 171.983 81.4314 171.983 82.1519C171.983 82.888 172.206 83.4917 172.648 83.963C173.093 84.4343 173.654 84.6699 174.32 84.6699C175.311 84.6699 175.992 84.185 176.362 83.2132L177.901 83.8909C177.678 84.5239 177.249 85.0828 176.644 85.554C176.039 86.0253 175.252 86.261 174.291 86.261C173.122 86.261 172.147 85.8773 171.362 85.0984Z" fill="#0A2783"/>
<path d="M181.364 78.2688V81.5813H181.439L184.575 78.2688H186.912L183.302 82.037L187.165 86.1285H184.782L181.439 82.4927H181.364V86.1285H179.604V78.2688H181.364Z" fill="#0A2783"/>
<path d="M191.028 79.6222C190.125 79.6222 189.46 80.0351 189.06 80.8724L187.713 80.1071C188.334 78.7673 189.46 78.1052 191.073 78.1052C192.553 78.1052 193.543 78.6349 194.033 79.7098C194.211 80.1071 194.299 80.5784 194.299 81.1237V86.1285H192.568V85.0536C192.081 85.8637 191.312 86.261 190.245 86.261C189.475 86.261 188.839 86.0409 188.336 85.6125C187.833 85.186 187.58 84.6271 187.58 83.9494V83.8617C187.58 82.037 189.475 81.4625 190.865 81.4625H191.842C192.33 81.4625 192.582 81.2425 192.582 80.8004C192.582 80.1519 192.018 79.6222 191.028 79.6222ZM192.566 82.6991H190.865C190.495 82.6991 190.141 82.8023 189.814 82.9932C189.503 83.184 189.34 83.4489 189.34 83.7877C189.34 84.4362 189.843 84.8627 190.597 84.8627C191.795 84.8627 192.565 84.1266 192.565 82.9484V82.6991H192.566Z" fill="#0A2783"/>
<path d="M195.881 86.1285L198.101 83.2288C196.844 82.8316 196.206 82.0214 196.206 80.8296C196.206 79.3574 197.271 78.2688 199.329 78.2688H203.295V86.1285H201.535V83.5385H199.908L197.984 86.1285H195.881ZM201.535 79.7391H199.523C198.739 79.7391 197.984 80.0487 197.984 80.9173C197.984 81.6086 198.487 82.1383 199.552 82.1383H201.535V79.7391Z" fill="#0A2783"/>
<path d="M211.33 78.2688V81.5813H211.404L214.541 78.2688H216.878L213.268 82.037L217.131 86.1285H214.748L211.404 82.4927H211.33V86.1285H209.57V78.2688H211.33Z" fill="#0A2783"/>
<path d="M224.353 79.2697C225.167 80.0506 225.567 81.0068 225.567 82.1538C225.567 83.3165 225.167 84.2882 224.353 85.0828C223.554 85.8637 222.577 86.261 221.408 86.261C220.253 86.261 219.263 85.8637 218.448 85.0828C217.634 84.3019 217.234 83.3301 217.234 82.1831C217.234 81.036 217.648 80.0643 218.462 79.2834C219.276 78.5024 220.267 78.1052 221.422 78.1052C222.562 78.1052 223.539 78.4888 224.353 79.2697ZM219.04 82.1538C219.04 82.8452 219.261 83.4353 219.705 83.9357C220.15 84.4207 220.727 84.6719 221.422 84.6719C222.117 84.6719 222.695 84.4362 223.123 83.9513C223.552 83.4664 223.775 82.8763 223.775 82.185C223.775 81.4937 223.554 80.9036 223.11 80.4187C222.681 79.9338 222.103 79.6982 221.408 79.6982C220.713 79.6982 220.136 79.9338 219.692 80.4187C219.261 80.888 219.04 81.4625 219.04 82.1538Z" fill="#0A2783"/>
<path d="M229.886 78.2688L232.223 83.9065L234.518 78.2688H237.018V86.1285H235.287V80.2259L232.875 86.1285H231.573L229.116 80.2551V86.1285H227.399V78.2688H229.886Z" fill="#0A2783"/>
<path d="M239.387 78.2688H246.431V86.1285H244.669V79.8423H241.147V86.1285H239.387V78.2688Z" fill="#0A2783"/>
<path d="M251.758 79.6222C250.855 79.6222 250.19 80.0351 249.79 80.8724L248.443 80.1071C249.064 78.7673 250.19 78.1052 251.803 78.1052C253.283 78.1052 254.274 78.6349 254.763 79.7098C254.941 80.1071 255.029 80.5784 255.029 81.1237V86.1285H253.299V85.0536C252.809 85.8637 252.042 86.261 250.975 86.261C250.205 86.261 249.569 86.0409 249.066 85.6125C248.563 85.186 248.312 84.6271 248.312 83.9494V83.8617C248.312 82.037 250.207 81.4625 251.597 81.4625H252.574C253.062 81.4625 253.314 81.2425 253.314 80.8004C253.31 80.1519 252.748 79.6222 251.758 79.6222ZM253.297 82.6991H251.595C251.225 82.6991 250.871 82.8023 250.544 82.9932C250.233 83.184 250.07 83.4489 250.07 83.7877C250.07 84.4362 250.573 84.8627 251.327 84.8627C252.525 84.8627 253.295 84.1266 253.295 82.9484V82.6991H253.297Z" fill="#0A2783"/>
<path d="M257.306 78.2688H259.066V81.3885H262.647V78.2688H264.407V86.1285H262.647V82.9192H259.066V86.1285H257.306V78.2688Z" fill="#0A2783"/>
<path d="M266.776 78.2688H268.493V83.5248L272.236 78.2688H273.937V86.1285H272.221V80.888L268.477 86.1285H266.776V78.2688Z" fill="#0A2783"/>
<path d="M275.609 86.1285L277.829 83.2288C276.573 82.8316 275.934 82.0214 275.934 80.8296C275.934 79.3574 276.999 78.2688 279.057 78.2688H283.023V86.1285H281.263V83.5385H279.635L277.71 86.1285H275.609ZM281.263 79.7391H279.251C278.466 79.7391 277.712 80.0487 277.712 80.9173C277.712 81.6086 278.215 82.1383 279.28 82.1383H281.263V79.7391Z" fill="#0A2783"/>
<path d="M51.9573 10.7907L51.9456 0.124635L81.9817 0L81.9935 10.666L51.9573 10.7907Z" fill="#0A2783"/>
<path d="M11.3022 87.9202H0L34.7759 0H46.0781L11.3022 87.9202Z" fill="#0A2783"/>
<path d="M51.9456 26.3233V36.9971C62.6839 37.4781 71.2707 46.3155 71.2707 57.1139C71.2707 67.9124 62.6839 76.7498 51.9456 77.2308V87.9046C68.6238 87.4197 81.9935 73.8209 81.9935 57.112C81.9935 40.407 68.6238 26.8082 51.9456 26.3233Z" fill="#0A2783"/>
</g>
<defs>
<clipPath id="clip0">
<rect width="348" height="90" fill="white"/>
</clipPath>
</defs>
</svg>
