<svg width="60" height="60" viewBox="0 0 60 60" fill="none" xmlns="http://www.w3.org/2000/svg">
<g clip-path="url(#clip0)">
<path d="M3.75732 20.717H5.52109V9.38828H8.3963V7.62451H3.75732V20.717Z" fill="#0A2783"/>
<path d="M3.75732 26.353H5.52109V28.2317H3.75732V26.353Z" fill="#0A2783"/>
<path d="M54.4218 33.9243H56.3V35.6885H54.4218V33.9243Z" fill="#0A2783"/>
<path d="M17.8463 26.7022L14.7207 14.1993H11.2715V31.0492H13.0357V15.9636H13.3433L17.1006 30.9919H19.6106V14.1993H17.8463V26.7022Z" fill="#0A2783"/>
<path d="M39.4501 29.2283H38.3258L37.3865 17.9568H33.8851L32.9457 29.2283H31.8215V14.1422H30.0573V30.992H34.569L35.5078 19.7205H35.7633L36.7026 30.992H41.2143V14.1422H39.4501V29.2283Z" fill="#0A2783"/>
<path d="M60 46.9601V3.86719H41.2715V5.63141H58.2362V37.6817H19.6678V39.4455H58.2358V45.1959H1.76422V39.4455H16.8498V37.6817H1.76422V5.63141H38.4535V3.86719H0V46.9601H21.6037V50.8315H17.8464V56.353H32.818V54.5888H19.6106V52.5957H40.3894V54.5888H35.6355V56.353H42.1536V50.8315H38.3963V46.9601H60ZM36.6321 50.8315H23.3675V46.9601H36.6321V50.8315Z" fill="black"/>
<path d="M29.0607 41.4387H30.9393V43.2029H29.0607V41.4387Z" fill="#0A2783"/>
<path d="M3.75732 22.5957H5.52109V24.4744H3.75732V22.5957Z" fill="#0A2783"/>
<path d="M3.75732 30.1104H5.52109V31.9886H3.75732V30.1104Z" fill="#0A2783"/>
<path d="M54.4218 30.167H56.3V31.9312H54.4218V30.167Z" fill="#0A2783"/>
<path d="M50.6644 33.9243H52.5431V35.6885H50.6644V33.9243Z" fill="#0A2783"/>
<path d="M28.1214 15.9636V14.1993H21.6038V30.9919H28.1214V29.2282H23.3675V23.4778H28.1214V21.7135H23.3675V15.9636H28.1214Z" fill="#0A2783"/>
<path d="M43.2074 27.2923V30.9919H49.6678V22.938L44.9716 21.0594V15.9636H47.9036V17.8994H49.6678V14.1993H43.2074V22.2537L47.9036 24.1324V29.2282H44.9716V27.2923H43.2074Z" fill="#0A2783"/>
</g>
<defs>
<clipPath id="clip0">
<rect width="60" height="60" fill="white"/>
</clipPath>
</defs>
</svg>
