<svg width="60" height="60" viewBox="0 0 60 60" fill="none" xmlns="http://www.w3.org/2000/svg">
<path d="M47.7977 11.4409C47.0865 11.4409 46.3769 11.5035 45.6792 11.6276C42.8281 3.84577 34.6742 -1.00503 26.4753 0.17663C19.4587 1.18778 13.5809 6.44144 11.8115 13.31L13.5195 13.75C15.3619 6.59866 22.0962 1.55548 29.473 1.76562C36.7671 1.97328 42.3649 6.94566 44.5067 13.7084C47.9605 12.8496 51.4281 13.1968 54.2651 15.5024C56.9588 17.6915 58.4025 21.1806 57.999 24.6335C57.5777 28.2395 55.2369 31.3832 51.939 32.8772C49.9415 33.7822 48.0193 33.6653 45.8808 33.6653V35.4291C48.0314 35.4291 49.9745 35.5302 52.028 34.7518C56.1895 33.1745 58.7081 30.0147 59.5642 25.9996C61.1372 18.6228 55.3443 11.4409 47.7977 11.4409Z" fill="#0A2783"/>
<path d="M8.61145 33.564C3.10251 32.3985 0.247318 25.9388 3.09533 21.0812C6.03519 16.0669 12.8366 15.6805 16.6762 19.8169L17.9579 18.6051C16.453 16.9869 14.5899 15.7933 12.4036 15.3488L12.4027 15.3533C4.93032 13.974 -1.72854 21.0613 0.67652 28.4537C1.77822 31.84 4.73888 34.6208 8.27115 35.2948C10.169 35.657 12.2091 35.4927 14.1318 35.4927V33.7289C12.3038 33.7289 10.4235 33.8472 8.61145 33.564Z" fill="#0A2783"/>
<path d="M19.4232 44.1648H21.1871V45.9286H19.4232V44.1648Z" fill="#0A2783"/>
<path d="M22.9509 44.1648H24.7148V45.9286H22.9509V44.1648Z" fill="#0A2783"/>
<path d="M33.5339 44.1648H40.5893V45.9286H33.5339V44.1648Z" fill="#0A2783"/>
<path d="M29.1826 51.1812H30.9466V52.945H29.1826V51.1812Z" fill="#0A2783"/>
<path d="M19.4232 54.7087H21.1871V56.4726H19.4232V54.7087Z" fill="#0A2783"/>
<path d="M22.9509 54.7087H24.7148V56.4726H22.9509V54.7087Z" fill="#0A2783"/>
<path d="M33.5339 54.7087H40.5893V56.4726H33.5339V54.7087Z" fill="#0A2783"/>
<path d="M29.1826 37.1484H30.9466V38.9123H29.1826V37.1484Z" fill="#0A2783"/>
<path d="M19.4232 33.6208H21.1871V35.3847H19.4232V33.6208Z" fill="#0A2783"/>
<path d="M22.9509 33.6208H24.7148V35.3847H22.9509V33.6208Z" fill="#0A2783"/>
<path d="M33.5339 33.6208H40.5893V35.3847H33.5339V33.6208Z" fill="#0A2783"/>
<path d="M36.1797 23.0426H38.9202C39.2975 24.053 40.2722 24.7745 41.4124 24.7745C42.8789 24.7745 44.0718 23.5814 44.0718 22.1151C44.0718 20.6488 42.8788 19.4557 41.4124 19.4557C40.2381 19.4557 39.2398 20.2211 38.8885 21.2789H34.4159V30.0934H32.652V17.1164L34.5834 15.1851C34.9502 15.3762 35.3664 15.4849 35.8079 15.4849C37.2743 15.4849 38.4673 14.2919 38.4673 12.8255C38.4673 11.3592 37.2742 10.1661 35.8079 10.1661C34.3415 10.1661 33.1485 11.3591 33.1485 12.8255C33.1485 13.2072 33.23 13.5701 33.3754 13.8985L30.8883 16.3858V30.0933H29.1244V11.2903L26.776 8.94168C26.8863 8.65006 26.947 8.33421 26.947 8.00437C26.947 6.53792 25.754 5.34497 24.2876 5.34497C22.8213 5.34497 21.628 6.53803 21.628 8.00449C21.628 9.47095 22.8211 10.6639 24.2874 10.6639C24.7791 10.6639 25.2396 10.5293 25.6352 10.2957L27.3605 12.0209V30.0933H25.5966V22.9636H21.115C20.7369 21.9547 19.763 21.2345 18.6238 21.2345C17.1574 21.2345 15.9644 22.4275 15.9644 23.8939C15.9644 25.3602 17.1575 26.5533 18.6238 26.5533C19.7991 26.5533 20.7981 25.7866 21.1487 24.7275H23.8328V30.0933H15.9152V38.9124H17.718V40.6372H15.9152V49.4563H17.718V51.181H15.9152V60.0001H44.0973V51.181H42.412V49.4563H44.0973V40.6372H42.412V38.9124H44.0973V30.0933H36.1797V23.0426ZM41.4124 21.2195C41.9062 21.2195 42.308 21.6213 42.308 22.1151C42.308 22.6089 41.9062 23.0107 41.4124 23.0107C40.9187 23.0107 40.5169 22.6089 40.5169 22.1151C40.5169 21.6213 40.9187 21.2195 41.4124 21.2195ZM35.8079 11.93C36.3016 11.93 36.7034 12.3318 36.7034 12.8255C36.7034 13.3193 36.3016 13.7211 35.8079 13.7211C35.3141 13.7211 34.9123 13.3193 34.9123 12.8255C34.9123 12.3318 35.3141 11.93 35.8079 11.93ZM23.3918 8.00449C23.3918 7.51073 23.7937 7.10893 24.2874 7.10893C24.7812 7.10893 25.183 7.51073 25.183 8.00449C25.183 8.49825 24.7812 8.90005 24.2874 8.90005C23.7937 8.90005 23.3918 8.49825 23.3918 8.00449ZM18.624 24.7896C18.1302 24.7896 17.7284 24.3878 17.7284 23.894C17.7284 23.4002 18.1302 22.9984 18.624 22.9984C19.1177 22.9984 19.5195 23.4002 19.5195 23.894C19.5195 24.3878 19.1177 24.7896 18.624 24.7896ZM17.679 42.401H42.3335V47.6924H17.679V42.401ZM40.6482 51.181H32.7103V52.9448H42.3335V58.2362H17.679V52.9448H27.4187V51.181H19.4819V49.4563H40.6482V51.181ZM42.3335 37.1486H32.7103V38.9124H40.6482V40.6372H19.4819V38.9124H27.4187V37.1486H17.679V31.8572H42.3335V37.1486Z" fill="black"/>
</svg>
