<svg width="60" height="67" viewBox="0 0 60 67" fill="none" xmlns="http://www.w3.org/2000/svg">
<path fill-rule="evenodd" clip-rule="evenodd" d="M30.0401 14.0978H12.1463L10.0679 16.4784V31.0346L12.1463 33.4151H14.3324L18.2513 50.486H27.9855L25.4872 39.603H28.4585V33.4151H30.0402L50.3812 41.4014V33.1513H48.4324V38.5427L31.1989 31.7766V15.7365L48.4324 8.97036V31.2024H50.3812V6.11157L30.0401 14.0978ZM22.0671 33.4151L25.5386 48.5372H19.8035L16.3318 33.4151H22.0671ZM24.0665 33.4151H26.5095V37.6542H25.0397L24.0665 33.4151ZM13.0319 31.4663L12.0167 30.3035V17.2094L13.0319 16.0466H29.2501V31.4663H13.0319Z" fill="#0A2783"/>
<path d="M39.239 3.42186L35.8302 0H13.9503V1.94882H29.1985L28.0886 7.79513H11.151L10.0408 1.94882H12.0089V0H3.40874L0 3.42186V63.0975L3.40874 66.5193H35.8302L39.239 63.0975V38L37.2903 37.0968L37.2902 54.6512H30.3832V56.6H37.2902V62.2923L35.0206 64.5704H4.21815L1.94882 62.2923V56.6H28.4418V54.6512H1.94882V4.22685L4.21815 1.94882H8.05719L9.53738 9.74395H29.7022L31.1821 1.94882H35.0206L37.2902 4.22685V10.2639L39.239 9.5V3.42186Z" fill="black"/>
<path d="M3.89771 21.7612H5.84644V23.7354H3.89771V21.7612Z" fill="black"/>
<path d="M3.89771 17.7563H5.84644V19.7305H3.89771V17.7563Z" fill="black"/>
<path d="M3.89771 25.7654H5.84644V31.8137H3.89771V25.7654Z" fill="black"/>
<path d="M33.4072 59H35.3561V61.0305H33.4072V59Z" fill="black"/>
<path d="M16.4716 59H22.7678V61.0305H16.4716V59Z" fill="black"/>
<path d="M54.2154 12.0433L55.6525 10.6718C55.1023 10.0458 54.5084 9.4834 53.8875 9L52.7209 10.6266C53.2445 11.0342 53.7473 11.5108 54.2154 12.0433Z" fill="#0A2783"/>
<path d="M56.9462 12.3794L55.3352 13.5218C57.0865 16.203 58.0511 19.6807 58.0511 23.3144C58.0511 28.5808 56.0087 33.4424 52.7211 36.0022L53.8876 37.6288C57.6579 34.6935 60 29.2085 60 23.3146C59.9999 19.2775 58.9153 15.3939 56.9462 12.3794Z" fill="#0A2783"/>
<path d="M53.8039 26.7001L55.7063 27.1407C55.9691 25.9086 56.1024 24.6213 56.1024 23.3143C56.1024 20.3589 55.4071 17.4982 54.1446 15.259L52.4642 16.2877C53.5538 18.2197 54.1536 20.7151 54.1536 23.3143C54.1535 24.4733 54.0359 25.6124 53.8039 26.7001Z" fill="#0A2783"/>
<path d="M55.1178 29.222L53.2915 28.5134C53.0581 29.1666 52.7798 29.7816 52.4642 30.3411L54.1443 31.37C54.5173 30.7087 54.8447 29.9858 55.1178 29.222Z" fill="#0A2783"/>
<path d="M25.3523 28H27.3011V30.0305H25.3523V28Z" fill="#0A2783"/>
</svg>
