<svg width="60" height="60" viewBox="0 0 60 60" fill="none" xmlns="http://www.w3.org/2000/svg">
<g clip-path="url(#clip0)">
<path d="M56.7123 51.6633V28.1045H54.9509V51.6633H47.6459V53.4248H58.2385V55.5969C58.2385 57.0535 57.0534 58.2386 55.5968 58.2386H16.9501V60.0001H55.5968C58.0247 60.0001 60 58.0249 60 55.5969V51.6633H56.7123Z" fill="black"/>
<path d="M1.76147 55.5969V53.4248H20.9413C21.2993 54.3838 22.2249 55.0686 23.307 55.0686H36.693C37.7751 55.0686 38.7007 54.3838 39.0587 53.4248H45.8849V51.6633H37.4561V52.5441C37.4561 52.9647 37.1136 53.3071 36.693 53.3071H23.307C22.8864 53.3071 22.5439 52.9647 22.5439 52.5441V51.6633H5.04913V18.4933C5.04913 17.0367 6.23383 15.8516 7.69089 15.8516H8.63022V14.0901H7.69089C5.26291 14.0901 3.28766 16.0653 3.28766 18.4933V51.6633H0V55.5969C0 58.0249 1.97525 60.0001 4.40323 60.0001H15.1886V58.2386H4.40323C2.94617 58.2386 1.76147 57.0535 1.76147 55.5969Z" fill="black"/>
<path d="M54.9509 18.4933V26.3435H56.7124V18.4933C56.7124 16.0653 54.7371 14.0901 52.3092 14.0901H35.1664V15.8516H52.3092C53.7658 15.8516 54.9509 17.0367 54.9509 18.4933Z" fill="black"/>
<path d="M14.853 14.0901H28.943V15.8516H14.853V14.0901Z" fill="black"/>
<path d="M18.9629 18.7866H24.8337V20.5481H18.9629V18.7866Z" fill="black"/>
<path d="M10.3913 20.5481V18.7866H6.81018V48.728H13.0921V46.9666H8.57166V20.5481H10.3913Z" fill="black"/>
<path d="M51.4283 46.9666H14.853V48.728H53.1898V18.7866H33.4053V20.5481H51.4283V46.9666Z" fill="black"/>
<path d="M43.5031 34.638C46.902 34.638 49.6673 31.8727 49.6673 28.4733C49.6673 25.0744 46.902 22.3091 43.5031 22.3091C40.1037 22.3091 37.3384 25.0744 37.3384 28.4733C37.3384 31.8727 40.1037 34.638 43.5031 34.638ZM43.5031 24.0706C45.9311 24.0706 47.9058 26.0458 47.9058 28.4733C47.9058 30.9013 45.9311 32.8766 43.5031 32.8766C41.0751 32.8766 39.0999 30.9013 39.0999 28.4733C39.0999 26.0458 41.0751 24.0706 43.5031 24.0706Z" fill="#0A2783"/>
<path d="M21.8981 24.0706C28.2106 24.0706 33.3463 18.9349 33.3463 12.6224V1.76147H29.8238V0H24.5403V5.28397H29.8238V3.52249H31.5853V12.6224C31.5853 17.9636 27.2397 22.3091 21.8981 22.3091C16.5569 22.3091 12.2113 17.9636 12.2113 12.6224V3.52249H13.9728V5.28397H19.2563V0H13.9728V1.76147H10.4503V12.6224C10.4503 18.9349 15.5855 24.0706 21.8981 24.0706ZM28.0628 3.52249H26.3013V1.76147H28.0628V3.52249ZM15.7338 1.76147H17.4953V3.52249H15.7338V1.76147Z" fill="#0A2783"/>
<path d="M21.0177 40.5674C21.0177 43.0599 23.0456 45.0878 25.5381 45.0878C28.0306 45.0878 30.0585 43.0599 30.0585 40.5674V37.2797C30.0585 35.8231 31.2437 34.6379 32.7007 34.6379C34.1573 34.6379 35.3425 35.8231 35.3425 37.2797V39.5108C35.3425 42.0034 37.3704 44.0313 39.8629 44.0313C42.3554 44.0313 44.3833 42.0034 44.3833 39.5108V36.3404H42.6223V39.5108C42.6223 41.032 41.3845 42.2698 39.8629 42.2698C38.3413 42.2698 37.1035 41.032 37.1035 39.5108V37.2797C37.1035 34.8517 35.1283 32.8765 32.7007 32.8765C30.2728 32.8765 28.2975 34.8517 28.2975 37.2797V40.5674C28.2975 42.089 27.0597 43.3268 25.5381 43.3268C24.0165 43.3268 22.7787 42.089 22.7787 40.5674V32.7007H21.0177V40.5674Z" fill="#0A2783"/>
<path d="M9.33472 54.9509H15.2055V56.7124H9.33472V54.9509Z" fill="black"/>
<path d="M5.81226 54.9509H7.57327V56.7124H5.81226V54.9509Z" fill="black"/>
<path d="M21.0177 29.178H22.7787V30.9395H21.0177V29.178Z" fill="#0A2783"/>
<path d="M21.0177 25.6553H22.7787V27.4167H21.0177V25.6553Z" fill="#0A2783"/>
<path d="M42.6224 27.593H44.3835V29.354H42.6224V27.593Z" fill="#0A2783"/>
</g>
<defs>
<clipPath id="clip0">
<rect width="60" height="60" fill="white"/>
</clipPath>
</defs>
</svg>
