<svg width="60" height="60" viewBox="0 0 60 60" fill="none" xmlns="http://www.w3.org/2000/svg">
<path d="M59.0039 7.20703H55.493V3.69129H48.4617V7.20703H30.8789V0H29.1211V7.20703H11.543V3.69129H4.51172V7.20703H0.996094V30.0586H5.44934V38.7891H7.20715V24.756H8.96484V35.2734H10.7227V21.2111H12.4804V33.5156H14.2382V17.6964H15.996V31.7578H17.7538V17.6964H19.5105V37.0312H21.2684V30.0586H23.0262V42.6547L17.6943 48.2211V60H19.4521V48.9273L24.784 43.3609V30.0586H35.35V43.3609L40.6819 48.9273V60H42.4397V48.2211L37.1078 42.6547V30.0586H38.8656V37.0312H40.6234V23.0273H42.3802V31.7578H44.138V17.6964H45.8959V33.5156H47.6537V17.6964H49.4113V35.2734H51.1691V24.756H52.9269V51.0938H54.6847V30.0586H59.0039V7.20703ZM50.2195 5.4491H53.7352V7.20703H50.2195V5.4491ZM6.26953 5.4491H9.78516V7.20703H6.26953V5.4491ZM57.2461 28.3008H54.6848V23.0273H55.493V21.2695H51.9773V22.9982H51.1692V15.9386H50.2186V14.2286H46.703V15.9386H44.9441V14.2286H41.4285V15.9864H42.3803V17.7539H41.4285V19.5117H42.3803V21.2695H39.6696H38.8657H36.154V23.0273H38.8657V28.3008H36.229H35.3501H24.784H23.846H21.2684V23.0273H23.846V21.2695H21.2684V19.5117H23.846V17.7539H21.2684V15.9864H23.846V14.2286H20.3304V15.9386H18.5715V14.2286H15.0559V15.9386H13.297V14.2286H9.78141V15.9864H12.4802V19.4532H8.96484V22.9982H8.02266V21.2695H4.50703V23.0273H5.44934V28.3008H2.75391V8.96484H57.2461V28.3008Z" fill="#0A2783"/>
<path d="M4.50684 10.7228H8.02246V12.4806H4.50684V10.7228Z" fill="#0A2783"/>
<path d="M9.78125 10.7228H13.2969V12.4806H9.78125V10.7228Z" fill="#0A2783"/>
<path d="M15.0562 10.7228H18.5718V12.4806H15.0562V10.7228Z" fill="#0A2783"/>
<path d="M20.3306 10.7228H23.8462V12.4806H20.3306V10.7228Z" fill="#0A2783"/>
<path d="M25.605 10.7228H29.1206V12.4806H25.605V10.7228Z" fill="#0A2783"/>
<path d="M30.8794 10.7228H34.395V12.4806H30.8794V10.7228Z" fill="#0A2783"/>
<path d="M36.1538 10.7228H39.6694V12.4806H36.1538V10.7228Z" fill="#0A2783"/>
<path d="M41.4282 10.7228H44.9438V12.4806H41.4282V10.7228Z" fill="#0A2783"/>
<path d="M46.7031 10.7228H50.2188V12.4806H46.7031V10.7228Z" fill="#0A2783"/>
<path d="M51.9775 10.7228H55.4932V12.4806H51.9775V10.7228Z" fill="#0A2783"/>
<path d="M4.50684 14.2285H8.02246V15.9863H4.50684V14.2285Z" fill="#0A2783"/>
<path d="M25.605 14.2285H29.1206V15.9863H25.605V14.2285Z" fill="#0A2783"/>
<path d="M30.8794 14.2285H34.395V15.9863H30.8794V14.2285Z" fill="#0A2783"/>
<path d="M36.1538 14.2285H39.6694V15.9863H36.1538V14.2285Z" fill="#0A2783"/>
<path d="M51.9775 14.2285H55.4932V15.9863H51.9775V14.2285Z" fill="#0A2783"/>
<path d="M25.605 21.2695H29.1206V23.0273H25.605V21.2695Z" fill="#0A2783"/>
<path d="M30.8794 21.2695H34.395V23.0273H30.8794V21.2695Z" fill="#0A2783"/>
<path d="M4.50684 17.7539H8.02246V19.5117H4.50684V17.7539Z" fill="#0A2783"/>
<path d="M25.605 17.7539H29.1206V19.5117H25.605V17.7539Z" fill="#0A2783"/>
<path d="M30.8794 17.7539H34.395V19.5117H30.8794V17.7539Z" fill="#0A2783"/>
<path d="M36.1538 17.7539H39.6694V19.5117H36.1538V17.7539Z" fill="#0A2783"/>
<path d="M51.9775 17.7539H55.4932V19.5117H51.9775V17.7539Z" fill="#0A2783"/>
<path d="M22.9688 24.7852H37.0312V26.543H22.9688V24.7852Z" fill="#0A2783"/>
<path d="M52.9268 52.8516H54.6846V54.6094H52.9268V52.8516Z" fill="#0A2783"/>
<path d="M52.9268 56.3672H54.6846V60H52.9268V56.3672Z" fill="#0A2783"/>
<path d="M5.44922 40.5469H7.20703V42.3047H5.44922V40.5469Z" fill="#0A2783"/>
<path d="M5.44922 44.0625H7.20703V60H5.44922V44.0625Z" fill="#0A2783"/>
</svg>
