<svg width="60" height="60" viewBox="0 0 60 60" fill="none" xmlns="http://www.w3.org/2000/svg">
<g clip-path="url(#clip0)">
<path d="M55.2044 8.44656L50 8.44152V0H41.5V8.4462H39.6672V7.06139H30.8781V8.44609H10.4951V10.2039H30.8781V11.9617H3.87272L5.54897 10.2039H8.7373V8.44609H4.79627L0.843994 12.5907V46.6755L4.80366 50.7109H22.2629V53.1811H15.2602L12.2393 57.0459V59.9999H38.8025V58.2421H13.9972V57.6513L16.1173 54.9388H43.8827L46.0028 57.6513V58.2421H40.5602V59.9999H47.7607V57.0459L44.7398 53.1811H37.7371V50.7109H55.1966L59.156 46.6755V12.5908L55.2044 8.44656ZM54.4509 10.2036L56.2246 12.0637H50.2123V10.1993L54.4509 10.2036ZM41.5 10.204V12.0638H39.6672V10.204H41.5ZM32.6358 8.81921H37.9092V41.9234H32.6358V8.81921ZM39.6672 43.6812V13.8215H41.5V43.5H50L50.2125 23.2836H48.5L48.5279 41.9236H43V1.75782H48.5L48.5454 21.5258H50.2125V13.8216H57.3982V45.4375H2.60181V13.7197H30.878V43.6812H39.6672ZM35.9793 53.1812H24.0207V50.711H35.9794L35.9793 53.1812ZM54.4586 48.953H5.54159L3.8167 47.1952H56.1834L54.4586 48.953Z" fill="black"/>
<path d="M20.3328 43.6813H29.1218V20.7554H20.3328V43.6813ZM22.0906 22.5132H27.364V41.9234H22.0906V22.5132Z" fill="#0A2783"/>
<path d="M30.8969 43.6682H39.6554V7.0752H30.8969V43.6682ZM32.6516 8.82985H37.9155V41.9102H32.6516V8.82985Z" fill="#0A2783"/>
<path d="M41.4814 43.6682H50.2399V0H41.4814V43.6682ZM43.236 1.75466H48.5V41.9102H43.236V1.75466Z" fill="#0A2783"/>
<path d="M9.78772 43.6815H18.5768V30.7791H9.78772V43.6815ZM11.5455 32.5369H16.819V41.9237H11.5455V32.5369Z" fill="#0A2783"/>
<path d="M53.8826 41.8259H55.6404V43.6893H53.8826V41.8259Z" fill="#0A2783"/>
<path d="M12.1031 15.5776H13.861V17.3354H12.1031V15.5776Z" fill="#0A2783"/>
<path d="M10.3456 15.5776H4.35803V22.8896H6.11584V17.3354H10.3456V15.5776Z" fill="#0A2783"/>
<path d="M15.6188 15.5776H17.3766V17.3354H15.6188V15.5776Z" fill="#0A2783"/>
<path d="M53.8826 37.9917H55.6404V39.891H53.8826V37.9917Z" fill="#0A2783"/>
<path d="M44.939 4.45044H46.6968V10.0352H44.939V4.45044Z" fill="#0A2783"/>
<path d="M44.939 11.7927H46.6968V13.5507H44.939V11.7927Z" fill="#0A2783"/>
<path d="M34.3938 18.7969H36.1516V20.5547H34.3938V18.7969Z" fill="#0A2783"/>
<path d="M34.3938 11.4543H36.1516V17.0389H34.3938V11.4543Z" fill="#0A2783"/>
<path d="M23.8484 29.4846H25.6062V31.2424H23.8484V29.4846Z" fill="#0A2783"/>
<path d="M23.8485 33.0002H25.6063V39.2883H23.8485V33.0002Z" fill="#0A2783"/>
<path d="M13.3032 38.4094H15.061V40.1672H13.3032V38.4094Z" fill="#0A2783"/>
</g>
<defs>
<clipPath id="clip0">
<rect width="60" height="60" fill="white"/>
</clipPath>
</defs>
</svg>
