<svg width="37" height="25" viewBox="0 0 37 25" fill="none" xmlns="http://www.w3.org/2000/svg">
<path fill-rule="evenodd" clip-rule="evenodd" d="M30.5818 0.206743C32.7614 0.328092 33.8318 0.647194 34.8182 2.38204C35.8455 4.11463 36.3636 7.09892 36.3636 12.3551V12.3619V12.3731C36.3636 17.6046 35.8455 20.6114 34.8204 22.326C33.8341 24.0608 32.7636 24.3754 30.5841 24.5215C28.4045 24.6451 22.9295 24.7192 18.1864 24.7192C13.4341 24.7192 7.95682 24.6451 5.77954 24.5192C3.60454 24.3732 2.53409 24.0586 1.53864 22.3237C0.522727 20.6091 0 17.6023 0 12.3709V12.3664V12.3596V12.3529C0 7.09892 0.522727 4.11463 1.53864 2.38204C2.53409 0.644947 3.60682 0.328092 5.78182 0.204496C7.95682 0.0606747 13.4341 0 18.1864 0C22.9295 0 28.4045 0.0606745 30.5818 0.206743ZM25 12.3599L13.6364 5.61816V19.1016L25 12.3599Z" fill="white" fill-opacity="0.5"/>
</svg>
