<svg width="36" height="21" viewBox="0 0 36 21" fill="none" xmlns="http://www.w3.org/2000/svg">
<path d="M17.6148 20.6584H19.766C19.766 20.6584 20.4163 20.5891 20.747 20.2446C21.053 19.9283 21.0418 19.3348 21.0418 19.3348C21.0418 19.3348 20.999 16.5554 22.3401 16.1459C23.661 15.743 25.3576 18.8322 27.1555 20.0215C28.5146 20.9205 29.5474 20.7234 29.5474 20.7234L34.356 20.6584C34.356 20.6584 36.8717 20.5089 35.6791 18.6047C35.5824 18.4487 34.9838 17.1966 32.1036 14.623C29.0884 11.9281 29.4934 12.3657 33.1252 7.70593C35.3371 4.86804 36.2214 3.13498 35.9446 2.3941C35.6814 1.68788 34.0545 1.87418 34.0545 1.87418L28.6451 1.90451C28.6451 1.90451 28.2446 1.85252 27.9453 2.02366C27.655 2.19263 27.4683 2.58257 27.4683 2.58257C27.4683 2.58257 26.611 4.77922 25.4679 6.6466C23.0579 10.5871 22.0926 10.7951 21.6988 10.5503C20.783 9.98057 21.0125 8.25834 21.0125 7.03654C21.0125 3.2173 21.6133 1.62505 19.8402 1.21345C19.2507 1.07697 18.8186 0.985989 17.3133 0.970825C15.3826 0.951328 13.7468 0.977324 12.8219 1.41276C12.2054 1.70304 11.7306 2.35077 12.0209 2.3876C12.3787 2.43309 13.1887 2.59774 13.6185 3.16098C14.1743 3.8867 14.154 5.52011 14.154 5.52011C14.154 5.52011 14.4736 10.0152 13.4092 10.5741C12.6779 10.9576 11.6766 10.1755 9.5277 6.59894C8.42737 4.76839 7.59481 2.74288 7.59481 2.74288C7.59481 2.74288 7.43505 2.36594 7.14928 2.16447C6.80275 1.91968 6.31672 1.84169 6.31672 1.84169L1.17284 1.87202C1.17284 1.87202 0.401032 1.89368 0.117511 2.21646C-0.134508 2.50458 0.0972595 3.09816 0.0972595 3.09816C0.0972595 3.09816 4.12506 12.1686 8.68389 16.7417C12.8669 20.9335 17.6148 20.6584 17.6148 20.6584Z" fill="white" fill-opacity="0.5"/>
</svg>
