<svg width="346" height="145" viewBox="0 0 346 145" fill="none" xmlns="http://www.w3.org/2000/svg">
<g opacity="0.1">
<path d="M188.648 3.79156C188.648 5.88365 186.956 7.57723 184.866 7.57723C182.776 7.57723 181.085 5.88365 181.085 3.79156C181.085 1.69947 182.776 0 184.866 0C186.956 0 188.648 1.69947 188.648 3.79156Z" fill="white"/>
<path d="M162.345 3.79156C162.345 5.88365 160.653 7.57723 158.563 7.57723C156.473 7.57723 154.781 5.88365 154.781 3.79156C154.781 1.69947 156.473 0 158.563 0C160.653 0 162.345 1.69947 162.345 3.79156Z" fill="white"/>
<path d="M136.041 3.79156C136.041 5.88365 134.349 7.57723 132.259 7.57723C130.169 7.57723 128.471 5.88365 128.471 3.79156C128.471 1.69947 130.169 0 132.259 0C134.349 0 136.041 1.69947 136.041 3.79156Z" fill="white"/>
<path d="M188.648 38.9058C188.648 40.9921 186.956 42.6915 184.866 42.6915C182.776 42.6915 181.085 40.9921 181.085 38.9058C181.085 36.8137 182.776 35.1143 184.866 35.1143C186.956 35.1143 188.648 36.8137 188.648 38.9058Z" fill="white"/>
<path d="M162.345 38.9058C162.345 40.9921 160.653 42.6915 158.563 42.6915C156.473 42.6915 154.781 40.9921 154.781 38.9058C154.781 36.8137 156.473 35.1143 158.563 35.1143C160.653 35.1143 162.345 36.8137 162.345 38.9058Z" fill="white"/>
<path d="M136.041 38.9058C136.041 40.9921 134.349 42.6915 132.259 42.6915C130.169 42.6915 128.471 40.9921 128.471 38.9058C128.471 36.8137 130.169 35.1143 132.259 35.1143C134.349 35.1143 136.041 36.8137 136.041 38.9058Z" fill="white"/>
<path d="M188.648 74.0142C188.648 76.1063 186.956 77.8058 184.866 77.8058C182.776 77.8058 181.085 76.1063 181.085 74.0142C181.085 71.9221 182.776 70.2286 184.866 70.2286C186.956 70.2286 188.648 71.9221 188.648 74.0142Z" fill="white"/>
<path d="M162.345 74.0142C162.345 76.1063 160.653 77.8058 158.563 77.8058C156.473 77.8058 154.781 76.1063 154.781 74.0142C154.781 71.9221 156.473 70.2286 158.563 70.2286C160.653 70.2286 162.345 71.9221 162.345 74.0142Z" fill="white"/>
<path d="M136.041 74.0142C136.041 76.1063 134.349 77.8058 132.259 77.8058C130.169 77.8058 128.471 76.1063 128.471 74.0142C128.471 71.9221 130.169 70.2286 132.259 70.2286C134.349 70.2286 136.041 71.9221 136.041 74.0142Z" fill="white"/>
<path d="M188.648 109.129C188.648 111.221 186.956 112.914 184.866 112.914C182.776 112.914 181.085 111.221 181.085 109.129C181.085 107.036 182.776 105.343 184.866 105.343C186.956 105.343 188.648 107.036 188.648 109.129Z" fill="white"/>
<path d="M162.345 109.129C162.345 111.221 160.653 112.914 158.563 112.914C156.473 112.914 154.781 111.221 154.781 109.129C154.781 107.036 156.473 105.343 158.563 105.343C160.653 105.343 162.345 107.036 162.345 109.129Z" fill="white"/>
<path d="M136.041 109.129C136.041 111.221 134.349 112.914 132.259 112.914C130.169 112.914 128.471 111.221 128.471 109.129C128.471 107.036 130.169 105.343 132.259 105.343C134.349 105.343 136.041 107.036 136.041 109.129Z" fill="white"/>
<path d="M188.648 141.118C188.648 143.21 186.956 144.91 184.866 144.91C182.776 144.91 181.085 143.21 181.085 141.118C181.085 139.026 182.776 137.332 184.866 137.332C186.956 137.332 188.648 139.026 188.648 141.118Z" fill="white"/>
<path d="M162.345 141.118C162.345 143.21 160.653 144.91 158.563 144.91C156.473 144.91 154.781 143.21 154.781 141.118C154.781 139.026 156.473 137.332 158.563 137.332C160.653 137.332 162.345 139.026 162.345 141.118Z" fill="white"/>
<path d="M136.041 141.118C136.041 143.21 134.349 144.91 132.259 144.91C130.169 144.91 128.471 143.21 128.471 141.118C128.471 139.026 130.169 137.332 132.259 137.332C134.349 137.332 136.041 139.026 136.041 141.118Z" fill="white"/>
<path d="M2.30821 3.79156C2.30821 5.88365 0.616318 7.57723 -1.47369 7.57723C-3.56371 7.57723 -5.25562 5.88365 -5.25562 3.79156C-5.25562 1.69947 -3.56371 0 -1.47369 0C0.616318 0 2.30821 1.69947 2.30821 3.79156Z" fill="white"/>
<path d="M28.6177 3.79156C28.6177 5.88365 26.9199 7.57723 24.8299 7.57723C22.7399 7.57723 21.048 5.88365 21.048 3.79156C21.048 1.69947 22.7399 0 24.8299 0C26.9199 0 28.6177 1.69947 28.6177 3.79156Z" fill="white"/>
<path d="M54.9213 3.79156C54.9213 5.88365 53.2236 7.57723 51.1336 7.57723C49.0436 7.57723 47.3517 5.88365 47.3517 3.79156C47.3517 1.69947 49.0436 0 51.1336 0C53.2236 0 54.9213 1.69947 54.9213 3.79156Z" fill="white"/>
<path d="M81.2249 3.79156C81.2249 5.88365 79.5331 7.57723 77.4431 7.57723C75.3531 7.57723 73.6553 5.88365 73.6553 3.79156C73.6553 1.69947 75.3531 0 77.4431 0C79.5331 0 81.2249 1.69947 81.2249 3.79156Z" fill="white"/>
<path d="M107.529 3.79156C107.529 5.88365 105.837 7.57723 103.747 7.57723C101.657 7.57723 99.9589 5.88365 99.9589 3.79156C99.9589 1.69947 101.657 0 103.747 0C105.837 0 107.529 1.69947 107.529 3.79156Z" fill="white"/>
<path d="M-23.9954 3.79156C-23.9954 5.88365 -25.6873 7.57723 -27.7773 7.57723C-29.8674 7.57723 -31.5593 5.88365 -31.5593 3.79156C-31.5593 1.69947 -29.8674 0 -27.7773 0C-25.6873 0 -23.9954 1.69947 -23.9954 3.79156Z" fill="white"/>
<path d="M-50.299 3.79156C-50.299 5.88365 -51.991 7.57723 -54.081 7.57723C-56.171 7.57723 -57.8687 5.88365 -57.8687 3.79156C-57.8687 1.69947 -56.171 0 -54.081 0C-51.991 0 -50.299 1.69947 -50.299 3.79156Z" fill="white"/>
<path d="M-181.823 3.79156C-181.823 5.88365 -183.515 7.57723 -185.605 7.57723C-187.695 7.57723 -189.387 5.88365 -189.387 3.79156C-189.387 1.69947 -187.695 0 -185.605 0C-183.515 0 -181.823 1.69947 -181.823 3.79156Z" fill="white"/>
<path d="M-155.519 3.79156C-155.519 5.88365 -157.211 7.57723 -159.301 7.57723C-161.391 7.57723 -163.083 5.88365 -163.083 3.79156C-163.083 1.69947 -161.391 0 -159.301 0C-157.211 0 -155.519 1.69947 -155.519 3.79156Z" fill="white"/>
<path d="M-129.21 3.79156C-129.21 5.88365 -130.908 7.57723 -132.998 7.57723C-135.088 7.57723 -136.78 5.88365 -136.78 3.79156C-136.78 1.69947 -135.088 0 -132.998 0C-130.908 0 -129.21 1.69947 -129.21 3.79156Z" fill="white"/>
<path d="M-102.906 3.79156C-102.906 5.88365 -104.604 7.57723 -106.694 7.57723C-108.778 7.57723 -110.476 5.88365 -110.476 3.79156C-110.476 1.69947 -108.778 0 -106.694 0C-104.604 0 -102.906 1.69947 -102.906 3.79156Z" fill="white"/>
<path d="M-76.6027 3.79156C-76.6027 5.88365 -78.2946 7.57723 -80.3846 7.57723C-82.4746 7.57723 -84.1724 5.88365 -84.1724 3.79156C-84.1724 1.69947 -82.4746 0 -80.3846 0C-78.2946 0 -76.6027 1.69947 -76.6027 3.79156Z" fill="white"/>
<path d="M-208.127 3.79156C-208.127 5.88365 -209.819 7.57723 -211.909 7.57723C-213.999 7.57723 -215.691 5.88365 -215.691 3.79156C-215.691 1.69947 -213.999 0 -211.909 0C-209.819 0 -208.127 1.69947 -208.127 3.79156Z" fill="white"/>
<path d="M-234.43 3.79156C-234.43 5.88365 -236.122 7.57723 -238.212 7.57723C-240.302 7.57723 -242 5.88365 -242 3.79156C-242 1.69947 -240.302 0 -238.212 0C-236.122 0 -234.43 1.69947 -234.43 3.79156Z" fill="white"/>
<path d="M2.30821 38.9058C2.30821 40.9921 0.616318 42.6915 -1.47369 42.6915C-3.56371 42.6915 -5.25562 40.9921 -5.25562 38.9058C-5.25562 36.8137 -3.56371 35.1143 -1.47369 35.1143C0.616318 35.1143 2.30821 36.8137 2.30821 38.9058Z" fill="white"/>
<path d="M28.6177 38.9058C28.6177 40.9921 26.9199 42.6915 24.8299 42.6915C22.7399 42.6915 21.048 40.9921 21.048 38.9058C21.048 36.8137 22.7399 35.1143 24.8299 35.1143C26.9199 35.1143 28.6177 36.8137 28.6177 38.9058Z" fill="white"/>
<path d="M54.9213 38.9058C54.9213 40.9921 53.2236 42.6915 51.1336 42.6915C49.0436 42.6915 47.3517 40.9921 47.3517 38.9058C47.3517 36.8137 49.0436 35.1143 51.1336 35.1143C53.2236 35.1143 54.9213 36.8137 54.9213 38.9058Z" fill="white"/>
<path d="M81.2249 38.9058C81.2249 40.9921 79.5331 42.6915 77.4431 42.6915C75.3531 42.6915 73.6553 40.9921 73.6553 38.9058C73.6553 36.8137 75.3531 35.1143 77.4431 35.1143C79.5331 35.1143 81.2249 36.8137 81.2249 38.9058Z" fill="white"/>
<path d="M107.529 38.9058C107.529 40.9921 105.837 42.6915 103.747 42.6915C101.657 42.6915 99.9589 40.9921 99.9589 38.9058C99.9589 36.8137 101.657 35.1143 103.747 35.1143C105.837 35.1143 107.529 36.8137 107.529 38.9058Z" fill="white"/>
<path d="M-23.9954 38.9058C-23.9954 40.9921 -25.6873 42.6915 -27.7773 42.6915C-29.8674 42.6915 -31.5593 40.9921 -31.5593 38.9058C-31.5593 36.8137 -29.8674 35.1143 -27.7773 35.1143C-25.6873 35.1143 -23.9954 36.8137 -23.9954 38.9058Z" fill="white"/>
<path d="M-50.299 38.9058C-50.299 40.9921 -51.991 42.6915 -54.081 42.6915C-56.171 42.6915 -57.8687 40.9921 -57.8687 38.9058C-57.8687 36.8137 -56.171 35.1143 -54.081 35.1143C-51.991 35.1143 -50.299 36.8137 -50.299 38.9058Z" fill="white"/>
<path d="M-181.823 38.9058C-181.823 40.9921 -183.515 42.6915 -185.605 42.6915C-187.695 42.6915 -189.387 40.9921 -189.387 38.9058C-189.387 36.8137 -187.695 35.1143 -185.605 35.1143C-183.515 35.1143 -181.823 36.8137 -181.823 38.9058Z" fill="white"/>
<path d="M-155.519 38.9058C-155.519 40.9921 -157.211 42.6915 -159.301 42.6915C-161.391 42.6915 -163.083 40.9921 -163.083 38.9058C-163.083 36.8137 -161.391 35.1143 -159.301 35.1143C-157.211 35.1143 -155.519 36.8137 -155.519 38.9058Z" fill="white"/>
<path d="M-129.21 38.9058C-129.21 40.9921 -130.908 42.6915 -132.998 42.6915C-135.088 42.6915 -136.78 40.9921 -136.78 38.9058C-136.78 36.8137 -135.088 35.1143 -132.998 35.1143C-130.908 35.1143 -129.21 36.8137 -129.21 38.9058Z" fill="white"/>
<path d="M-102.906 38.9058C-102.906 40.9921 -104.604 42.6915 -106.694 42.6915C-108.778 42.6915 -110.476 40.9921 -110.476 38.9058C-110.476 36.8137 -108.778 35.1143 -106.694 35.1143C-104.604 35.1143 -102.906 36.8137 -102.906 38.9058Z" fill="white"/>
<path d="M-76.6027 38.9058C-76.6027 40.9921 -78.2946 42.6915 -80.3846 42.6915C-82.4746 42.6915 -84.1724 40.9921 -84.1724 38.9058C-84.1724 36.8137 -82.4746 35.1143 -80.3846 35.1143C-78.2946 35.1143 -76.6027 36.8137 -76.6027 38.9058Z" fill="white"/>
<path d="M-208.127 38.9058C-208.127 40.9921 -209.819 42.6915 -211.909 42.6915C-213.999 42.6915 -215.691 40.9921 -215.691 38.9058C-215.691 36.8137 -213.999 35.1143 -211.909 35.1143C-209.819 35.1143 -208.127 36.8137 -208.127 38.9058Z" fill="white"/>
<path d="M-234.43 38.9058C-234.43 40.9921 -236.122 42.6915 -238.212 42.6915C-240.302 42.6915 -242 40.9921 -242 38.9058C-242 36.8137 -240.302 35.1143 -238.212 35.1143C-236.122 35.1143 -234.43 36.8137 -234.43 38.9058Z" fill="white"/>
<path d="M2.30821 74.0142C2.30821 76.1063 0.616318 77.8058 -1.47369 77.8058C-3.56371 77.8058 -5.25562 76.1063 -5.25562 74.0142C-5.25562 71.9221 -3.56371 70.2286 -1.47369 70.2286C0.616318 70.2286 2.30821 71.9221 2.30821 74.0142Z" fill="white"/>
<path d="M28.6177 74.0142C28.6177 76.1063 26.9199 77.8058 24.8299 77.8058C22.7399 77.8058 21.048 76.1063 21.048 74.0142C21.048 71.9221 22.7399 70.2286 24.8299 70.2286C26.9199 70.2286 28.6177 71.9221 28.6177 74.0142Z" fill="white"/>
<path d="M54.9213 74.0142C54.9213 76.1063 53.2236 77.8058 51.1336 77.8058C49.0436 77.8058 47.3517 76.1063 47.3517 74.0142C47.3517 71.9221 49.0436 70.2286 51.1336 70.2286C53.2236 70.2286 54.9213 71.9221 54.9213 74.0142Z" fill="white"/>
<path d="M81.2249 74.0142C81.2249 76.1063 79.5331 77.8058 77.4431 77.8058C75.3531 77.8058 73.6553 76.1063 73.6553 74.0142C73.6553 71.9221 75.3531 70.2286 77.4431 70.2286C79.5331 70.2286 81.2249 71.9221 81.2249 74.0142Z" fill="white"/>
<path d="M107.529 74.0142C107.529 76.1063 105.837 77.8058 103.747 77.8058C101.657 77.8058 99.9589 76.1063 99.9589 74.0142C99.9589 71.9221 101.657 70.2286 103.747 70.2286C105.837 70.2286 107.529 71.9221 107.529 74.0142Z" fill="white"/>
<path d="M-23.9954 74.0142C-23.9954 76.1063 -25.6873 77.8058 -27.7773 77.8058C-29.8674 77.8058 -31.5593 76.1063 -31.5593 74.0142C-31.5593 71.9221 -29.8674 70.2286 -27.7773 70.2286C-25.6873 70.2286 -23.9954 71.9221 -23.9954 74.0142Z" fill="white"/>
<path d="M-50.299 74.0142C-50.299 76.1063 -51.991 77.8058 -54.081 77.8058C-56.171 77.8058 -57.8687 76.1063 -57.8687 74.0142C-57.8687 71.9221 -56.171 70.2286 -54.081 70.2286C-51.991 70.2286 -50.299 71.9221 -50.299 74.0142Z" fill="white"/>
<path d="M-181.823 74.0142C-181.823 76.1063 -183.515 77.8058 -185.605 77.8058C-187.695 77.8058 -189.387 76.1063 -189.387 74.0142C-189.387 71.9221 -187.695 70.2286 -185.605 70.2286C-183.515 70.2286 -181.823 71.9221 -181.823 74.0142Z" fill="white"/>
<path d="M-155.519 74.0142C-155.519 76.1063 -157.211 77.8058 -159.301 77.8058C-161.391 77.8058 -163.083 76.1063 -163.083 74.0142C-163.083 71.9221 -161.391 70.2286 -159.301 70.2286C-157.211 70.2286 -155.519 71.9221 -155.519 74.0142Z" fill="white"/>
<path d="M-129.21 74.0142C-129.21 76.1063 -130.908 77.8058 -132.998 77.8058C-135.088 77.8058 -136.78 76.1063 -136.78 74.0142C-136.78 71.9221 -135.088 70.2286 -132.998 70.2286C-130.908 70.2286 -129.21 71.9221 -129.21 74.0142Z" fill="white"/>
<path d="M-102.906 74.0142C-102.906 76.1063 -104.604 77.8058 -106.694 77.8058C-108.778 77.8058 -110.476 76.1063 -110.476 74.0142C-110.476 71.9221 -108.778 70.2286 -106.694 70.2286C-104.604 70.2286 -102.906 71.9221 -102.906 74.0142Z" fill="white"/>
<path d="M-76.6027 74.0142C-76.6027 76.1063 -78.2946 77.8058 -80.3846 77.8058C-82.4746 77.8058 -84.1724 76.1063 -84.1724 74.0142C-84.1724 71.9221 -82.4746 70.2286 -80.3846 70.2286C-78.2946 70.2286 -76.6027 71.9221 -76.6027 74.0142Z" fill="white"/>
<path d="M-208.127 74.0142C-208.127 76.1063 -209.819 77.8058 -211.909 77.8058C-213.999 77.8058 -215.691 76.1063 -215.691 74.0142C-215.691 71.9221 -213.999 70.2286 -211.909 70.2286C-209.819 70.2286 -208.127 71.9221 -208.127 74.0142Z" fill="white"/>
<path d="M-234.43 74.0142C-234.43 76.1063 -236.122 77.8058 -238.212 77.8058C-240.302 77.8058 -242 76.1063 -242 74.0142C-242 71.9221 -240.302 70.2286 -238.212 70.2286C-236.122 70.2286 -234.43 71.9221 -234.43 74.0142Z" fill="white"/>
<path d="M2.30821 109.129C2.30821 111.221 0.616318 112.914 -1.47369 112.914C-3.56371 112.914 -5.25562 111.221 -5.25562 109.129C-5.25562 107.036 -3.56371 105.343 -1.47369 105.343C0.616318 105.343 2.30821 107.036 2.30821 109.129Z" fill="white"/>
<path d="M28.6177 109.129C28.6177 111.221 26.9199 112.914 24.8299 112.914C22.7399 112.914 21.048 111.221 21.048 109.129C21.048 107.036 22.7399 105.343 24.8299 105.343C26.9199 105.343 28.6177 107.036 28.6177 109.129Z" fill="white"/>
<path d="M54.9213 109.129C54.9213 111.221 53.2236 112.914 51.1336 112.914C49.0436 112.914 47.3517 111.221 47.3517 109.129C47.3517 107.036 49.0436 105.343 51.1336 105.343C53.2236 105.343 54.9213 107.036 54.9213 109.129Z" fill="white"/>
<path d="M81.2249 109.129C81.2249 111.221 79.5331 112.914 77.4431 112.914C75.3531 112.914 73.6553 111.221 73.6553 109.129C73.6553 107.036 75.3531 105.343 77.4431 105.343C79.5331 105.343 81.2249 107.036 81.2249 109.129Z" fill="white"/>
<path d="M107.529 109.129C107.529 111.221 105.837 112.914 103.747 112.914C101.657 112.914 99.9589 111.221 99.9589 109.129C99.9589 107.036 101.657 105.343 103.747 105.343C105.837 105.343 107.529 107.036 107.529 109.129Z" fill="white"/>
<path d="M-23.9954 109.129C-23.9954 111.221 -25.6873 112.914 -27.7773 112.914C-29.8674 112.914 -31.5593 111.221 -31.5593 109.129C-31.5593 107.036 -29.8674 105.343 -27.7773 105.343C-25.6873 105.343 -23.9954 107.036 -23.9954 109.129Z" fill="white"/>
<path d="M-50.299 109.129C-50.299 111.221 -51.991 112.914 -54.081 112.914C-56.171 112.914 -57.8687 111.221 -57.8687 109.129C-57.8687 107.036 -56.171 105.343 -54.081 105.343C-51.991 105.343 -50.299 107.036 -50.299 109.129Z" fill="white"/>
<path d="M-181.823 109.129C-181.823 111.221 -183.515 112.914 -185.605 112.914C-187.695 112.914 -189.387 111.221 -189.387 109.129C-189.387 107.036 -187.695 105.343 -185.605 105.343C-183.515 105.343 -181.823 107.036 -181.823 109.129Z" fill="white"/>
<path d="M-155.519 109.129C-155.519 111.221 -157.211 112.914 -159.301 112.914C-161.391 112.914 -163.083 111.221 -163.083 109.129C-163.083 107.036 -161.391 105.343 -159.301 105.343C-157.211 105.343 -155.519 107.036 -155.519 109.129Z" fill="white"/>
<path d="M-129.21 109.129C-129.21 111.221 -130.908 112.914 -132.998 112.914C-135.088 112.914 -136.78 111.221 -136.78 109.129C-136.78 107.036 -135.088 105.343 -132.998 105.343C-130.908 105.343 -129.21 107.036 -129.21 109.129Z" fill="white"/>
<path d="M-102.906 109.129C-102.906 111.221 -104.604 112.914 -106.694 112.914C-108.778 112.914 -110.476 111.221 -110.476 109.129C-110.476 107.036 -108.778 105.343 -106.694 105.343C-104.604 105.343 -102.906 107.036 -102.906 109.129Z" fill="white"/>
<path d="M-76.6027 109.129C-76.6027 111.221 -78.2946 112.914 -80.3846 112.914C-82.4746 112.914 -84.1724 111.221 -84.1724 109.129C-84.1724 107.036 -82.4746 105.343 -80.3846 105.343C-78.2946 105.343 -76.6027 107.036 -76.6027 109.129Z" fill="white"/>
<path d="M-208.127 109.129C-208.127 111.221 -209.819 112.914 -211.909 112.914C-213.999 112.914 -215.691 111.221 -215.691 109.129C-215.691 107.036 -213.999 105.343 -211.909 105.343C-209.819 105.343 -208.127 107.036 -208.127 109.129Z" fill="white"/>
<path d="M-234.43 109.129C-234.43 111.221 -236.122 112.914 -238.212 112.914C-240.302 112.914 -242 111.221 -242 109.129C-242 107.036 -240.302 105.343 -238.212 105.343C-236.122 105.343 -234.43 107.036 -234.43 109.129Z" fill="white"/>
<path d="M2.30821 141.118C2.30821 143.21 0.616318 144.91 -1.47369 144.91C-3.56371 144.91 -5.25562 143.21 -5.25562 141.118C-5.25562 139.026 -3.56371 137.332 -1.47369 137.332C0.616318 137.332 2.30821 139.026 2.30821 141.118Z" fill="white"/>
<path d="M28.6177 141.118C28.6177 143.21 26.9199 144.91 24.8299 144.91C22.7399 144.91 21.048 143.21 21.048 141.118C21.048 139.026 22.7399 137.332 24.8299 137.332C26.9199 137.332 28.6177 139.026 28.6177 141.118Z" fill="white"/>
<path d="M54.9213 141.118C54.9213 143.21 53.2236 144.91 51.1336 144.91C49.0436 144.91 47.3517 143.21 47.3517 141.118C47.3517 139.026 49.0436 137.332 51.1336 137.332C53.2236 137.332 54.9213 139.026 54.9213 141.118Z" fill="white"/>
<path d="M81.2249 141.118C81.2249 143.21 79.5331 144.91 77.4431 144.91C75.3531 144.91 73.6553 143.21 73.6553 141.118C73.6553 139.026 75.3531 137.332 77.4431 137.332C79.5331 137.332 81.2249 139.026 81.2249 141.118Z" fill="white"/>
<path d="M107.529 141.118C107.529 143.21 105.837 144.91 103.747 144.91C101.657 144.91 99.9589 143.21 99.9589 141.118C99.9589 139.026 101.657 137.332 103.747 137.332C105.837 137.332 107.529 139.026 107.529 141.118Z" fill="white"/>
<path d="M-23.9954 141.118C-23.9954 143.21 -25.6873 144.91 -27.7773 144.91C-29.8674 144.91 -31.5593 143.21 -31.5593 141.118C-31.5593 139.026 -29.8674 137.332 -27.7773 137.332C-25.6873 137.332 -23.9954 139.026 -23.9954 141.118Z" fill="white"/>
<path d="M-50.299 141.118C-50.299 143.21 -51.991 144.91 -54.081 144.91C-56.171 144.91 -57.8687 143.21 -57.8687 141.118C-57.8687 139.026 -56.171 137.332 -54.081 137.332C-51.991 137.332 -50.299 139.026 -50.299 141.118Z" fill="white"/>
<path d="M-181.823 141.118C-181.823 143.21 -183.515 144.91 -185.605 144.91C-187.695 144.91 -189.387 143.21 -189.387 141.118C-189.387 139.026 -187.695 137.332 -185.605 137.332C-183.515 137.332 -181.823 139.026 -181.823 141.118Z" fill="white"/>
<path d="M-155.519 141.118C-155.519 143.21 -157.211 144.91 -159.301 144.91C-161.391 144.91 -163.083 143.21 -163.083 141.118C-163.083 139.026 -161.391 137.332 -159.301 137.332C-157.211 137.332 -155.519 139.026 -155.519 141.118Z" fill="white"/>
<path d="M-129.21 141.118C-129.21 143.21 -130.908 144.91 -132.998 144.91C-135.088 144.91 -136.78 143.21 -136.78 141.118C-136.78 139.026 -135.088 137.332 -132.998 137.332C-130.908 137.332 -129.21 139.026 -129.21 141.118Z" fill="white"/>
<path d="M-102.906 141.118C-102.906 143.21 -104.604 144.91 -106.694 144.91C-108.778 144.91 -110.476 143.21 -110.476 141.118C-110.476 139.026 -108.778 137.332 -106.694 137.332C-104.604 137.332 -102.906 139.026 -102.906 141.118Z" fill="white"/>
<path d="M-76.6027 141.118C-76.6027 143.21 -78.2946 144.91 -80.3846 144.91C-82.4746 144.91 -84.1724 143.21 -84.1724 141.118C-84.1724 139.026 -82.4746 137.332 -80.3846 137.332C-78.2946 137.332 -76.6027 139.026 -76.6027 141.118Z" fill="white"/>
<path d="M-208.127 141.118C-208.127 143.21 -209.819 144.91 -211.909 144.91C-213.999 144.91 -215.691 143.21 -215.691 141.118C-215.691 139.026 -213.999 137.332 -211.909 137.332C-209.819 137.332 -208.127 139.026 -208.127 141.118Z" fill="white"/>
<path d="M-234.43 141.118C-234.43 143.21 -236.122 144.91 -238.212 144.91C-240.302 144.91 -242 143.21 -242 141.118C-242 139.026 -240.302 137.332 -238.212 137.332C-236.122 137.332 -234.43 139.026 -234.43 141.118Z" fill="white"/>
</g>
<g opacity="0.1">
<path d="M266.177 3.79156C266.177 5.88365 264.485 7.57723 262.395 7.57723C260.305 7.57723 258.613 5.88365 258.613 3.79156C258.613 1.69947 260.305 0 262.395 0C264.485 0 266.177 1.69947 266.177 3.79156Z" fill="white"/>
<path d="M292.481 3.79156C292.481 5.88365 290.789 7.57723 288.699 7.57723C286.609 7.57723 284.917 5.88365 284.917 3.79156C284.917 1.69947 286.609 0 288.699 0C290.789 0 292.481 1.69947 292.481 3.79156Z" fill="white"/>
<path d="M318.79 3.79156C318.79 5.88365 317.092 7.57723 315.002 7.57723C312.912 7.57723 311.22 5.88365 311.22 3.79156C311.22 1.69947 312.912 0 315.002 0C317.092 0 318.79 1.69947 318.79 3.79156Z" fill="white"/>
<path d="M345.094 3.79156C345.094 5.88365 343.396 7.57723 341.306 7.57723C339.222 7.57723 337.524 5.88365 337.524 3.79156C337.524 1.69947 339.222 0 341.306 0C343.396 0 345.094 1.69947 345.094 3.79156Z" fill="white"/>
<path d="M239.873 3.79156C239.873 5.88365 238.181 7.57723 236.091 7.57723C234.001 7.57723 232.309 5.88365 232.309 3.79156C232.309 1.69947 234.001 0 236.091 0C238.181 0 239.873 1.69947 239.873 3.79156Z" fill="white"/>
<path d="M213.57 3.79156C213.57 5.88365 211.878 7.57723 209.788 7.57723C207.698 7.57723 206 5.88365 206 3.79156C206 1.69947 207.698 0 209.788 0C211.878 0 213.57 1.69947 213.57 3.79156Z" fill="white"/>
<path d="M266.177 38.9058C266.177 40.9921 264.485 42.6915 262.395 42.6915C260.305 42.6915 258.613 40.9921 258.613 38.9058C258.613 36.8137 260.305 35.1143 262.395 35.1143C264.485 35.1143 266.177 36.8137 266.177 38.9058Z" fill="white"/>
<path d="M292.481 38.9058C292.481 40.9921 290.789 42.6915 288.699 42.6915C286.609 42.6915 284.917 40.9921 284.917 38.9058C284.917 36.8137 286.609 35.1143 288.699 35.1143C290.789 35.1143 292.481 36.8137 292.481 38.9058Z" fill="white"/>
<path d="M318.79 38.9058C318.79 40.9921 317.092 42.6915 315.002 42.6915C312.912 42.6915 311.22 40.9921 311.22 38.9058C311.22 36.8137 312.912 35.1143 315.002 35.1143C317.092 35.1143 318.79 36.8137 318.79 38.9058Z" fill="white"/>
<path d="M345.094 38.9058C345.094 40.9921 343.396 42.6915 341.306 42.6915C339.222 42.6915 337.524 40.9921 337.524 38.9058C337.524 36.8137 339.222 35.1143 341.306 35.1143C343.396 35.1143 345.094 36.8137 345.094 38.9058Z" fill="white"/>
<path d="M239.873 38.9058C239.873 40.9921 238.181 42.6915 236.091 42.6915C234.001 42.6915 232.309 40.9921 232.309 38.9058C232.309 36.8137 234.001 35.1143 236.091 35.1143C238.181 35.1143 239.873 36.8137 239.873 38.9058Z" fill="white"/>
<path d="M213.57 38.9058C213.57 40.9921 211.878 42.6915 209.788 42.6915C207.698 42.6915 206 40.9921 206 38.9058C206 36.8137 207.698 35.1143 209.788 35.1143C211.878 35.1143 213.57 36.8137 213.57 38.9058Z" fill="white"/>
<path d="M266.177 74.0142C266.177 76.1063 264.485 77.8058 262.395 77.8058C260.305 77.8058 258.613 76.1063 258.613 74.0142C258.613 71.9221 260.305 70.2286 262.395 70.2286C264.485 70.2286 266.177 71.9221 266.177 74.0142Z" fill="white"/>
<path d="M292.481 74.0142C292.481 76.1063 290.789 77.8058 288.699 77.8058C286.609 77.8058 284.917 76.1063 284.917 74.0142C284.917 71.9221 286.609 70.2286 288.699 70.2286C290.789 70.2286 292.481 71.9221 292.481 74.0142Z" fill="white"/>
<path d="M318.79 74.0142C318.79 76.1063 317.092 77.8058 315.002 77.8058C312.912 77.8058 311.22 76.1063 311.22 74.0142C311.22 71.9221 312.912 70.2286 315.002 70.2286C317.092 70.2286 318.79 71.9221 318.79 74.0142Z" fill="white"/>
<path d="M345.094 74.0142C345.094 76.1063 343.396 77.8058 341.306 77.8058C339.222 77.8058 337.524 76.1063 337.524 74.0142C337.524 71.9221 339.222 70.2286 341.306 70.2286C343.396 70.2286 345.094 71.9221 345.094 74.0142Z" fill="white"/>
<path d="M239.873 74.0142C239.873 76.1063 238.181 77.8058 236.091 77.8058C234.001 77.8058 232.309 76.1063 232.309 74.0142C232.309 71.9221 234.001 70.2286 236.091 70.2286C238.181 70.2286 239.873 71.9221 239.873 74.0142Z" fill="white"/>
<path d="M213.57 74.0142C213.57 76.1063 211.878 77.8058 209.788 77.8058C207.698 77.8058 206 76.1063 206 74.0142C206 71.9221 207.698 70.2286 209.788 70.2286C211.878 70.2286 213.57 71.9221 213.57 74.0142Z" fill="white"/>
<path d="M266.177 109.129C266.177 111.221 264.485 112.914 262.395 112.914C260.305 112.914 258.613 111.221 258.613 109.129C258.613 107.036 260.305 105.343 262.395 105.343C264.485 105.343 266.177 107.036 266.177 109.129Z" fill="white"/>
<path d="M292.481 109.129C292.481 111.221 290.789 112.914 288.699 112.914C286.609 112.914 284.917 111.221 284.917 109.129C284.917 107.036 286.609 105.343 288.699 105.343C290.789 105.343 292.481 107.036 292.481 109.129Z" fill="white"/>
<path d="M318.79 109.129C318.79 111.221 317.092 112.914 315.002 112.914C312.912 112.914 311.22 111.221 311.22 109.129C311.22 107.036 312.912 105.343 315.002 105.343C317.092 105.343 318.79 107.036 318.79 109.129Z" fill="white"/>
<path d="M345.094 109.129C345.094 111.221 343.396 112.914 341.306 112.914C339.222 112.914 337.524 111.221 337.524 109.129C337.524 107.036 339.222 105.343 341.306 105.343C343.396 105.343 345.094 107.036 345.094 109.129Z" fill="white"/>
<path d="M239.873 109.129C239.873 111.221 238.181 112.914 236.091 112.914C234.001 112.914 232.309 111.221 232.309 109.129C232.309 107.036 234.001 105.343 236.091 105.343C238.181 105.343 239.873 107.036 239.873 109.129Z" fill="white"/>
<path d="M213.57 109.129C213.57 111.221 211.878 112.914 209.788 112.914C207.698 112.914 206 111.221 206 109.129C206 107.036 207.698 105.343 209.788 105.343C211.878 105.343 213.57 107.036 213.57 109.129Z" fill="white"/>
<path d="M266.177 141.118C266.177 143.21 264.485 144.91 262.395 144.91C260.305 144.91 258.613 143.21 258.613 141.118C258.613 139.026 260.305 137.332 262.395 137.332C264.485 137.332 266.177 139.026 266.177 141.118Z" fill="white"/>
<path d="M292.481 141.118C292.481 143.21 290.789 144.91 288.699 144.91C286.609 144.91 284.917 143.21 284.917 141.118C284.917 139.026 286.609 137.332 288.699 137.332C290.789 137.332 292.481 139.026 292.481 141.118Z" fill="white"/>
<path d="M318.79 141.118C318.79 143.21 317.092 144.91 315.002 144.91C312.912 144.91 311.22 143.21 311.22 141.118C311.22 139.026 312.912 137.332 315.002 137.332C317.092 137.332 318.79 139.026 318.79 141.118Z" fill="white"/>
<path d="M345.094 141.118C345.094 143.21 343.396 144.91 341.306 144.91C339.222 144.91 337.524 143.21 337.524 141.118C337.524 139.026 339.222 137.332 341.306 137.332C343.396 137.332 345.094 139.026 345.094 141.118Z" fill="white"/>
<path d="M239.873 141.118C239.873 143.21 238.181 144.91 236.091 144.91C234.001 144.91 232.309 143.21 232.309 141.118C232.309 139.026 234.001 137.332 236.091 137.332C238.181 137.332 239.873 139.026 239.873 141.118Z" fill="white"/>
<path d="M213.57 141.118C213.57 143.21 211.878 144.91 209.788 144.91C207.698 144.91 206 143.21 206 141.118C206 139.026 207.698 137.332 209.788 137.332C211.878 137.332 213.57 139.026 213.57 141.118Z" fill="white"/>
</g>
<path d="M189.177 3.79156C189.177 5.88365 187.485 7.57723 185.395 7.57723C183.305 7.57723 181.613 5.88365 181.613 3.79156C181.613 1.69947 183.305 0 185.395 0C187.485 0 189.177 1.69947 189.177 3.79156Z" fill="white"/>
<path d="M162.873 3.79156C162.873 5.88365 161.181 7.57723 159.091 7.57723C157.001 7.57723 155.309 5.88365 155.309 3.79156C155.309 1.69947 157.001 0 159.091 0C161.181 0 162.873 1.69947 162.873 3.79156Z" fill="white"/>
<path d="M136.57 3.79156C136.57 5.88365 134.878 7.57723 132.788 7.57723C130.698 7.57723 129 5.88365 129 3.79156C129 1.69947 130.698 0 132.788 0C134.878 0 136.57 1.69947 136.57 3.79156Z" fill="white"/>
<path d="M189.177 38.9058C189.177 40.9921 187.485 42.6915 185.395 42.6915C183.305 42.6915 181.613 40.9921 181.613 38.9058C181.613 36.8137 183.305 35.1143 185.395 35.1143C187.485 35.1143 189.177 36.8137 189.177 38.9058Z" fill="white"/>
<path d="M162.873 38.9058C162.873 40.9921 161.181 42.6915 159.091 42.6915C157.001 42.6915 155.309 40.9921 155.309 38.9058C155.309 36.8137 157.001 35.1143 159.091 35.1143C161.181 35.1143 162.873 36.8137 162.873 38.9058Z" fill="white"/>
<path d="M136.57 38.9058C136.57 40.9921 134.878 42.6915 132.788 42.6915C130.698 42.6915 129 40.9921 129 38.9058C129 36.8137 130.698 35.1143 132.788 35.1143C134.878 35.1143 136.57 36.8137 136.57 38.9058Z" fill="white"/>
<path d="M81.5697 3.79156C81.5697 5.88365 79.8778 7.57723 77.7878 7.57723C75.6978 7.57723 74 5.88365 74 3.79156C74 1.69947 75.6978 0 77.7878 0C79.8778 0 81.5697 1.69947 81.5697 3.79156Z" fill="white"/>
<path d="M107.873 3.79156C107.873 5.88365 106.181 7.57723 104.091 7.57723C102.001 7.57723 100.304 5.88365 100.304 3.79156C100.304 1.69947 102.001 0 104.091 0C106.181 0 107.873 1.69947 107.873 3.79156Z" fill="white"/>
<path d="M81.5697 38.9058C81.5697 40.9921 79.8778 42.6915 77.7878 42.6915C75.6978 42.6915 74 40.9921 74 38.9058C74 36.8137 75.6978 35.1143 77.7878 35.1143C79.8778 35.1143 81.5697 36.8137 81.5697 38.9058Z" fill="white"/>
<path d="M107.873 38.9058C107.873 40.9921 106.181 42.6915 104.091 42.6915C102.001 42.6915 100.304 40.9921 100.304 38.9058C100.304 36.8137 102.001 35.1143 104.091 35.1143C106.181 35.1143 107.873 36.8137 107.873 38.9058Z" fill="white"/>
<path d="M189.177 74.0688C189.177 76.1551 187.485 77.8545 185.395 77.8545C183.305 77.8545 181.613 76.1551 181.613 74.0688C181.613 71.9768 183.305 70.2773 185.395 70.2773C187.485 70.2773 189.177 71.9768 189.177 74.0688Z" fill="white"/>
<path d="M162.873 74.0688C162.873 76.1551 161.181 77.8545 159.091 77.8545C157.001 77.8545 155.309 76.1551 155.309 74.0688C155.309 71.9768 157.001 70.2773 159.091 70.2773C161.181 70.2773 162.873 71.9768 162.873 74.0688Z" fill="white"/>
<path d="M136.57 74.0688C136.57 76.1551 134.878 77.8545 132.788 77.8545C130.698 77.8545 129 76.1551 129 74.0688C129 71.9768 130.698 70.2773 132.788 70.2773C134.878 70.2773 136.57 71.9768 136.57 74.0688Z" fill="white"/>
<path d="M81.5697 74.0688C81.5697 76.1551 79.8778 77.8545 77.7878 77.8545C75.6978 77.8545 74 76.1551 74 74.0688C74 71.9768 75.6978 70.2773 77.7878 70.2773C79.8778 70.2773 81.5697 71.9768 81.5697 74.0688Z" fill="white"/>
<path d="M107.873 74.0688C107.873 76.1551 106.181 77.8545 104.091 77.8545C102.001 77.8545 100.304 76.1551 100.304 74.0688C100.304 71.9768 102.001 70.2773 104.091 70.2773C106.181 70.2773 107.873 71.9768 107.873 74.0688Z" fill="white"/>
<path d="M189.177 109.069C189.177 111.155 187.485 112.855 185.395 112.855C183.305 112.855 181.613 111.155 181.613 109.069C181.613 106.977 183.305 105.277 185.395 105.277C187.485 105.277 189.177 106.977 189.177 109.069Z" fill="white"/>
<path d="M162.873 109.069C162.873 111.155 161.181 112.855 159.091 112.855C157.001 112.855 155.309 111.155 155.309 109.069C155.309 106.977 157.001 105.277 159.091 105.277C161.181 105.277 162.873 106.977 162.873 109.069Z" fill="white"/>
<path d="M136.57 109.069C136.57 111.155 134.878 112.855 132.788 112.855C130.698 112.855 129 111.155 129 109.069C129 106.977 130.698 105.277 132.788 105.277C134.878 105.277 136.57 106.977 136.57 109.069Z" fill="white"/>
<path d="M81.5697 109.069C81.5697 111.155 79.8778 112.855 77.7878 112.855C75.6978 112.855 74 111.155 74 109.069C74 106.977 75.6978 105.277 77.7878 105.277C79.8778 105.277 81.5697 106.977 81.5697 109.069Z" fill="white"/>
<path d="M107.873 109.069C107.873 111.155 106.181 112.855 104.091 112.855C102.001 112.855 100.304 111.155 100.304 109.069C100.304 106.977 102.001 105.277 104.091 105.277C106.181 105.277 107.873 106.977 107.873 109.069Z" fill="white"/>
<path d="M189.177 141.069C189.177 143.155 187.485 144.855 185.395 144.855C183.305 144.855 181.613 143.155 181.613 141.069C181.613 138.977 183.305 137.277 185.395 137.277C187.485 137.277 189.177 138.977 189.177 141.069Z" fill="white"/>
<path d="M162.873 141.069C162.873 143.155 161.181 144.855 159.091 144.855C157.001 144.855 155.309 143.155 155.309 141.069C155.309 138.977 157.001 137.277 159.091 137.277C161.181 137.277 162.873 138.977 162.873 141.069Z" fill="white"/>
<path d="M136.57 141.069C136.57 143.155 134.878 144.855 132.788 144.855C130.698 144.855 129 143.155 129 141.069C129 138.977 130.698 137.277 132.788 137.277C134.878 137.277 136.57 138.977 136.57 141.069Z" fill="white"/>
<path d="M81.5697 141.069C81.5697 143.155 79.8778 144.855 77.7878 144.855C75.6978 144.855 74 143.155 74 141.069C74 138.977 75.6978 137.277 77.7878 137.277C79.8778 137.277 81.5697 138.977 81.5697 141.069Z" fill="white"/>
<path d="M107.873 141.069C107.873 143.155 106.181 144.855 104.091 144.855C102.001 144.855 100.304 143.155 100.304 141.069C100.304 138.977 102.001 137.277 104.091 137.277C106.181 137.277 107.873 138.977 107.873 141.069Z" fill="white"/>
</svg>
