<svg width="377" height="113" viewBox="0 0 377 113" fill="none" xmlns="http://www.w3.org/2000/svg">
<g opacity="0.1">
<path d="M430.648 3.78568C430.648 5.87777 428.956 7.57723 426.866 7.57723C424.776 7.57723 423.085 5.87777 423.085 3.78568C423.085 1.6936 424.776 0 426.866 0C428.956 0 430.648 1.6936 430.648 3.78568Z" fill="#0A2783"/>
<path d="M404.345 3.78568C404.345 5.87777 402.653 7.57723 400.563 7.57723C398.473 7.57723 396.781 5.87777 396.781 3.78568C396.781 1.6936 398.473 0 400.563 0C402.653 0 404.345 1.6936 404.345 3.78568Z" fill="#0A2783"/>
<path d="M378.041 3.78568C378.041 5.87777 376.349 7.57723 374.259 7.57723C372.169 7.57723 370.471 5.87777 370.471 3.78568C370.471 1.6936 372.169 0 374.259 0C376.349 0 378.041 1.6936 378.041 3.78568Z" fill="#0A2783"/>
<path d="M430.648 38.9C430.648 40.9921 428.956 42.6856 426.866 42.6856C424.776 42.6856 423.085 40.9921 423.085 38.9C423.085 36.8079 424.776 35.1143 426.866 35.1143C428.956 35.1143 430.648 36.8079 430.648 38.9Z" fill="#0A2783"/>
<path d="M404.345 38.9C404.345 40.9921 402.653 42.6856 400.563 42.6856C398.473 42.6856 396.781 40.9921 396.781 38.9C396.781 36.8079 398.473 35.1143 400.563 35.1143C402.653 35.1143 404.345 36.8079 404.345 38.9Z" fill="#0A2783"/>
<path d="M378.041 38.9C378.041 40.9921 376.349 42.6856 374.259 42.6856C372.169 42.6856 370.471 40.9921 370.471 38.9C370.471 36.8079 372.169 35.1143 374.259 35.1143C376.349 35.1143 378.041 36.8079 378.041 38.9Z" fill="#0A2783"/>
<path d="M430.648 74.0142C430.648 76.1063 428.956 77.7999 426.866 77.7999C424.776 77.7999 423.085 76.1063 423.085 74.0142C423.085 71.9222 424.776 70.2227 426.866 70.2227C428.956 70.2227 430.648 71.9222 430.648 74.0142Z" fill="#0A2783"/>
<path d="M404.345 74.0142C404.345 76.1063 402.653 77.7999 400.563 77.7999C398.473 77.7999 396.781 76.1063 396.781 74.0142C396.781 71.9222 398.473 70.2227 400.563 70.2227C402.653 70.2227 404.345 71.9222 404.345 74.0142Z" fill="#0A2783"/>
<path d="M378.041 74.0142C378.041 76.1063 376.349 77.7999 374.259 77.7999C372.169 77.7999 370.471 76.1063 370.471 74.0142C370.471 71.9222 372.169 70.2227 374.259 70.2227C376.349 70.2227 378.041 71.9222 378.041 74.0142Z" fill="#0A2783"/>
<path d="M430.648 109.129C430.648 111.215 428.956 112.914 426.866 112.914C424.776 112.914 423.085 111.215 423.085 109.129C423.085 107.036 424.776 105.337 426.866 105.337C428.956 105.337 430.648 107.036 430.648 109.129Z" fill="#0A2783"/>
<path d="M404.345 109.129C404.345 111.215 402.653 112.914 400.563 112.914C398.473 112.914 396.781 111.215 396.781 109.129C396.781 107.036 398.473 105.337 400.563 105.337C402.653 105.337 404.345 107.036 404.345 109.129Z" fill="#0A2783"/>
<path d="M378.041 109.129C378.041 111.215 376.349 112.914 374.259 112.914C372.169 112.914 370.471 111.215 370.471 109.129C370.471 107.036 372.169 105.337 374.259 105.337C376.349 105.337 378.041 107.036 378.041 109.129Z" fill="#0A2783"/>
<path d="M244.308 3.78568C244.308 5.87777 242.616 7.57723 240.526 7.57723C238.436 7.57723 236.744 5.87777 236.744 3.78568C236.744 1.6936 238.436 0 240.526 0C242.616 0 244.308 1.6936 244.308 3.78568Z" fill="#0A2783"/>
<path d="M270.618 3.78568C270.618 5.87777 268.92 7.57723 266.83 7.57723C264.74 7.57723 263.048 5.87777 263.048 3.78568C263.048 1.6936 264.74 0 266.83 0C268.92 0 270.618 1.6936 270.618 3.78568Z" fill="#0A2783"/>
<path d="M296.921 3.78568C296.921 5.87777 295.224 7.57723 293.134 7.57723C291.044 7.57723 289.352 5.87777 289.352 3.78568C289.352 1.6936 291.044 0 293.134 0C295.224 0 296.921 1.6936 296.921 3.78568Z" fill="#0A2783"/>
<path d="M323.225 3.78568C323.225 5.87777 321.533 7.57723 319.443 7.57723C317.353 7.57723 315.655 5.87777 315.655 3.78568C315.655 1.6936 317.353 0 319.443 0C321.533 0 323.225 1.6936 323.225 3.78568Z" fill="#0A2783"/>
<path d="M349.529 3.78568C349.529 5.87777 347.837 7.57723 345.747 7.57723C343.657 7.57723 341.959 5.87777 341.959 3.78568C341.959 1.6936 343.657 0 345.747 0C347.837 0 349.529 1.6936 349.529 3.78568Z" fill="#0A2783"/>
<path d="M218.005 3.78568C218.005 5.87777 216.313 7.57723 214.223 7.57723C212.133 7.57723 210.441 5.87777 210.441 3.78568C210.441 1.6936 212.133 0 214.223 0C216.313 0 218.005 1.6936 218.005 3.78568Z" fill="#0A2783"/>
<path d="M191.701 3.78568C191.701 5.87777 190.009 7.57723 187.919 7.57723C185.829 7.57723 184.131 5.87777 184.131 3.78568C184.131 1.6936 185.829 0 187.919 0C190.009 0 191.701 1.6936 191.701 3.78568Z" fill="#0A2783"/>
<path d="M60.1769 3.78568C60.1769 5.87777 58.485 7.57723 56.395 7.57723C54.305 7.57723 52.6131 5.87777 52.6131 3.78568C52.6131 1.6936 54.305 0 56.395 0C58.485 0 60.1769 1.6936 60.1769 3.78568Z" fill="#0A2783"/>
<path d="M86.4806 3.78568C86.4806 5.87777 84.7887 7.57723 82.6987 7.57723C80.6087 7.57723 78.9167 5.87777 78.9167 3.78568C78.9167 1.6936 80.6087 0 82.6987 0C84.7887 0 86.4806 1.6936 86.4806 3.78568Z" fill="#0A2783"/>
<path d="M112.79 3.78568C112.79 5.87777 111.092 7.57723 109.002 7.57723C106.912 7.57723 105.22 5.87777 105.22 3.78568C105.22 1.6936 106.912 0 109.002 0C111.092 0 112.79 1.6936 112.79 3.78568Z" fill="#0A2783"/>
<path d="M139.094 3.78568C139.094 5.87777 137.396 7.57723 135.306 7.57723C133.222 7.57723 131.524 5.87777 131.524 3.78568C131.524 1.6936 133.222 0 135.306 0C137.396 0 139.094 1.6936 139.094 3.78568Z" fill="#0A2783"/>
<path d="M165.397 3.78568C165.397 5.87777 163.705 7.57723 161.615 7.57723C159.525 7.57723 157.828 5.87777 157.828 3.78568C157.828 1.6936 159.525 0 161.615 0C163.705 0 165.397 1.6936 165.397 3.78568Z" fill="#0A2783"/>
<path d="M33.8733 3.78568C33.8733 5.87777 32.1814 7.57723 30.0914 7.57723C28.0014 7.57723 26.3095 5.87777 26.3095 3.78568C26.3095 1.6936 28.0014 0 30.0914 0C32.1814 0 33.8733 1.6936 33.8733 3.78568Z" fill="#0A2783"/>
<path d="M7.56969 3.78568C7.56969 5.87777 5.87778 7.57723 3.78777 7.57723C1.69776 7.57723 0 5.87777 0 3.78568C0 1.6936 1.69776 0 3.78777 0C5.87778 0 7.56969 1.6936 7.56969 3.78568Z" fill="#0A2783"/>
<path d="M244.308 38.9C244.308 40.9921 242.616 42.6856 240.526 42.6856C238.436 42.6856 236.744 40.9921 236.744 38.9C236.744 36.8079 238.436 35.1143 240.526 35.1143C242.616 35.1143 244.308 36.8079 244.308 38.9Z" fill="#0A2783"/>
<path d="M270.618 38.9C270.618 40.9921 268.92 42.6856 266.83 42.6856C264.74 42.6856 263.048 40.9921 263.048 38.9C263.048 36.8079 264.74 35.1143 266.83 35.1143C268.92 35.1143 270.618 36.8079 270.618 38.9Z" fill="#0A2783"/>
<path d="M296.921 38.9C296.921 40.9921 295.224 42.6856 293.134 42.6856C291.044 42.6856 289.352 40.9921 289.352 38.9C289.352 36.8079 291.044 35.1143 293.134 35.1143C295.224 35.1143 296.921 36.8079 296.921 38.9Z" fill="#0A2783"/>
<path d="M323.225 38.9C323.225 40.9921 321.533 42.6856 319.443 42.6856C317.353 42.6856 315.655 40.9921 315.655 38.9C315.655 36.8079 317.353 35.1143 319.443 35.1143C321.533 35.1143 323.225 36.8079 323.225 38.9Z" fill="#0A2783"/>
<path d="M349.529 38.9C349.529 40.9921 347.837 42.6856 345.747 42.6856C343.657 42.6856 341.959 40.9921 341.959 38.9C341.959 36.8079 343.657 35.1143 345.747 35.1143C347.837 35.1143 349.529 36.8079 349.529 38.9Z" fill="#0A2783"/>
<path d="M218.005 38.9C218.005 40.9921 216.313 42.6856 214.223 42.6856C212.133 42.6856 210.441 40.9921 210.441 38.9C210.441 36.8079 212.133 35.1143 214.223 35.1143C216.313 35.1143 218.005 36.8079 218.005 38.9Z" fill="#0A2783"/>
<path d="M191.701 38.9C191.701 40.9921 190.009 42.6856 187.919 42.6856C185.829 42.6856 184.131 40.9921 184.131 38.9C184.131 36.8079 185.829 35.1143 187.919 35.1143C190.009 35.1143 191.701 36.8079 191.701 38.9Z" fill="#0A2783"/>
<path d="M60.1769 38.9C60.1769 40.9921 58.485 42.6856 56.395 42.6856C54.305 42.6856 52.6131 40.9921 52.6131 38.9C52.6131 36.8079 54.305 35.1143 56.395 35.1143C58.485 35.1143 60.1769 36.8079 60.1769 38.9Z" fill="#0A2783"/>
<path d="M86.4806 38.9C86.4806 40.9921 84.7887 42.6856 82.6987 42.6856C80.6087 42.6856 78.9167 40.9921 78.9167 38.9C78.9167 36.8079 80.6087 35.1143 82.6987 35.1143C84.7887 35.1143 86.4806 36.8079 86.4806 38.9Z" fill="#0A2783"/>
<path d="M112.79 38.9C112.79 40.9921 111.092 42.6856 109.002 42.6856C106.912 42.6856 105.22 40.9921 105.22 38.9C105.22 36.8079 106.912 35.1143 109.002 35.1143C111.092 35.1143 112.79 36.8079 112.79 38.9Z" fill="#0A2783"/>
<path d="M139.094 38.9C139.094 40.9921 137.396 42.6856 135.306 42.6856C133.222 42.6856 131.524 40.9921 131.524 38.9C131.524 36.8079 133.222 35.1143 135.306 35.1143C137.396 35.1143 139.094 36.8079 139.094 38.9Z" fill="#0A2783"/>
<path d="M165.397 38.9C165.397 40.9921 163.705 42.6856 161.615 42.6856C159.525 42.6856 157.828 40.9921 157.828 38.9C157.828 36.8079 159.525 35.1143 161.615 35.1143C163.705 35.1143 165.397 36.8079 165.397 38.9Z" fill="#0A2783"/>
<path d="M33.8733 38.9C33.8733 40.9921 32.1814 42.6856 30.0914 42.6856C28.0014 42.6856 26.3095 40.9921 26.3095 38.9C26.3095 36.8079 28.0014 35.1143 30.0914 35.1143C32.1814 35.1143 33.8733 36.8079 33.8733 38.9Z" fill="#0A2783"/>
<path d="M7.56969 38.9C7.56969 40.9921 5.87778 42.6856 3.78777 42.6856C1.69776 42.6856 0 40.9921 0 38.9C0 36.8079 1.69776 35.1143 3.78777 35.1143C5.87778 35.1143 7.56969 36.8079 7.56969 38.9Z" fill="#0A2783"/>
<path d="M244.308 74.0142C244.308 76.1063 242.616 77.7999 240.526 77.7999C238.436 77.7999 236.744 76.1063 236.744 74.0142C236.744 71.9222 238.436 70.2227 240.526 70.2227C242.616 70.2227 244.308 71.9222 244.308 74.0142Z" fill="#0A2783"/>
<path d="M270.618 74.0142C270.618 76.1063 268.92 77.7999 266.83 77.7999C264.74 77.7999 263.048 76.1063 263.048 74.0142C263.048 71.9222 264.74 70.2227 266.83 70.2227C268.92 70.2227 270.618 71.9222 270.618 74.0142Z" fill="#0A2783"/>
<path d="M296.921 74.0142C296.921 76.1063 295.224 77.7999 293.134 77.7999C291.044 77.7999 289.352 76.1063 289.352 74.0142C289.352 71.9222 291.044 70.2227 293.134 70.2227C295.224 70.2227 296.921 71.9222 296.921 74.0142Z" fill="#0A2783"/>
<path d="M323.225 74.0142C323.225 76.1063 321.533 77.7999 319.443 77.7999C317.353 77.7999 315.655 76.1063 315.655 74.0142C315.655 71.9222 317.353 70.2227 319.443 70.2227C321.533 70.2227 323.225 71.9222 323.225 74.0142Z" fill="#0A2783"/>
<path d="M349.529 74.0142C349.529 76.1063 347.837 77.7999 345.747 77.7999C343.657 77.7999 341.959 76.1063 341.959 74.0142C341.959 71.9222 343.657 70.2227 345.747 70.2227C347.837 70.2227 349.529 71.9222 349.529 74.0142Z" fill="#0A2783"/>
<path d="M218.005 74.0142C218.005 76.1063 216.313 77.7999 214.223 77.7999C212.133 77.7999 210.441 76.1063 210.441 74.0142C210.441 71.9222 212.133 70.2227 214.223 70.2227C216.313 70.2227 218.005 71.9222 218.005 74.0142Z" fill="#0A2783"/>
<path d="M191.701 74.0142C191.701 76.1063 190.009 77.7999 187.919 77.7999C185.829 77.7999 184.131 76.1063 184.131 74.0142C184.131 71.9222 185.829 70.2227 187.919 70.2227C190.009 70.2227 191.701 71.9222 191.701 74.0142Z" fill="#0A2783"/>
<path d="M60.1769 74.0142C60.1769 76.1063 58.485 77.7999 56.395 77.7999C54.305 77.7999 52.6131 76.1063 52.6131 74.0142C52.6131 71.9222 54.305 70.2227 56.395 70.2227C58.485 70.2227 60.1769 71.9222 60.1769 74.0142Z" fill="#0A2783"/>
<path d="M86.4806 74.0142C86.4806 76.1063 84.7887 77.7999 82.6987 77.7999C80.6087 77.7999 78.9167 76.1063 78.9167 74.0142C78.9167 71.9222 80.6087 70.2227 82.6987 70.2227C84.7887 70.2227 86.4806 71.9222 86.4806 74.0142Z" fill="#0A2783"/>
<path d="M112.79 74.0142C112.79 76.1063 111.092 77.7999 109.002 77.7999C106.912 77.7999 105.22 76.1063 105.22 74.0142C105.22 71.9222 106.912 70.2227 109.002 70.2227C111.092 70.2227 112.79 71.9222 112.79 74.0142Z" fill="#0A2783"/>
<path d="M139.094 74.0142C139.094 76.1063 137.396 77.7999 135.306 77.7999C133.222 77.7999 131.524 76.1063 131.524 74.0142C131.524 71.9222 133.222 70.2227 135.306 70.2227C137.396 70.2227 139.094 71.9222 139.094 74.0142Z" fill="#0A2783"/>
<path d="M165.397 74.0142C165.397 76.1063 163.705 77.7999 161.615 77.7999C159.525 77.7999 157.828 76.1063 157.828 74.0142C157.828 71.9222 159.525 70.2227 161.615 70.2227C163.705 70.2227 165.397 71.9222 165.397 74.0142Z" fill="#0A2783"/>
<path d="M33.8733 74.0142C33.8733 76.1063 32.1814 77.7999 30.0914 77.7999C28.0014 77.7999 26.3095 76.1063 26.3095 74.0142C26.3095 71.9222 28.0014 70.2227 30.0914 70.2227C32.1814 70.2227 33.8733 71.9222 33.8733 74.0142Z" fill="#0A2783"/>
<path d="M7.56969 74.0142C7.56969 76.1063 5.87778 77.7999 3.78777 77.7999C1.69776 77.7999 0 76.1063 0 74.0142C0 71.9222 1.69776 70.2227 3.78777 70.2227C5.87778 70.2227 7.56969 71.9222 7.56969 74.0142Z" fill="#0A2783"/>
<path d="M244.308 109.129C244.308 111.215 242.616 112.914 240.526 112.914C238.436 112.914 236.744 111.215 236.744 109.129C236.744 107.036 238.436 105.337 240.526 105.337C242.616 105.337 244.308 107.036 244.308 109.129Z" fill="#0A2783"/>
<path d="M270.618 109.129C270.618 111.215 268.92 112.914 266.83 112.914C264.74 112.914 263.048 111.215 263.048 109.129C263.048 107.036 264.74 105.337 266.83 105.337C268.92 105.337 270.618 107.036 270.618 109.129Z" fill="#0A2783"/>
<path d="M296.921 109.129C296.921 111.215 295.224 112.914 293.134 112.914C291.044 112.914 289.352 111.215 289.352 109.129C289.352 107.036 291.044 105.337 293.134 105.337C295.224 105.337 296.921 107.036 296.921 109.129Z" fill="#0A2783"/>
<path d="M323.225 109.129C323.225 111.215 321.533 112.914 319.443 112.914C317.353 112.914 315.655 111.215 315.655 109.129C315.655 107.036 317.353 105.337 319.443 105.337C321.533 105.337 323.225 107.036 323.225 109.129Z" fill="#0A2783"/>
<path d="M349.529 109.129C349.529 111.215 347.837 112.914 345.747 112.914C343.657 112.914 341.959 111.215 341.959 109.129C341.959 107.036 343.657 105.337 345.747 105.337C347.837 105.337 349.529 107.036 349.529 109.129Z" fill="#0A2783"/>
<path d="M218.005 109.129C218.005 111.215 216.313 112.914 214.223 112.914C212.133 112.914 210.441 111.215 210.441 109.129C210.441 107.036 212.133 105.337 214.223 105.337C216.313 105.337 218.005 107.036 218.005 109.129Z" fill="#0A2783"/>
<path d="M191.701 109.129C191.701 111.215 190.009 112.914 187.919 112.914C185.829 112.914 184.131 111.215 184.131 109.129C184.131 107.036 185.829 105.337 187.919 105.337C190.009 105.337 191.701 107.036 191.701 109.129Z" fill="#0A2783"/>
<path d="M60.1769 109.129C60.1769 111.215 58.485 112.914 56.395 112.914C54.305 112.914 52.6131 111.215 52.6131 109.129C52.6131 107.036 54.305 105.337 56.395 105.337C58.485 105.337 60.1769 107.036 60.1769 109.129Z" fill="#0A2783"/>
<path d="M86.4806 109.129C86.4806 111.215 84.7887 112.914 82.6987 112.914C80.6087 112.914 78.9167 111.215 78.9167 109.129C78.9167 107.036 80.6087 105.337 82.6987 105.337C84.7887 105.337 86.4806 107.036 86.4806 109.129Z" fill="#0A2783"/>
<path d="M112.79 109.129C112.79 111.215 111.092 112.914 109.002 112.914C106.912 112.914 105.22 111.215 105.22 109.129C105.22 107.036 106.912 105.337 109.002 105.337C111.092 105.337 112.79 107.036 112.79 109.129Z" fill="#0A2783"/>
<path d="M139.094 109.129C139.094 111.215 137.396 112.914 135.306 112.914C133.222 112.914 131.524 111.215 131.524 109.129C131.524 107.036 133.222 105.337 135.306 105.337C137.396 105.337 139.094 107.036 139.094 109.129Z" fill="#0A2783"/>
<path d="M165.397 109.129C165.397 111.215 163.705 112.914 161.615 112.914C159.525 112.914 157.828 111.215 157.828 109.129C157.828 107.036 159.525 105.337 161.615 105.337C163.705 105.337 165.397 107.036 165.397 109.129Z" fill="#0A2783"/>
<path d="M33.8733 109.129C33.8733 111.215 32.1814 112.914 30.0914 112.914C28.0014 112.914 26.3095 111.215 26.3095 109.129C26.3095 107.036 28.0014 105.337 30.0914 105.337C32.1814 105.337 33.8733 107.036 33.8733 109.129Z" fill="#0A2783"/>
<path d="M7.56969 109.129C7.56969 111.215 5.87778 112.914 3.78777 112.914C1.69776 112.914 0 111.215 0 109.129C0 107.036 1.69776 105.337 3.78777 105.337C5.87778 105.337 7.56969 107.036 7.56969 109.129Z" fill="#0A2783"/>
</g>
</svg>
