<svg width="113" height="324" viewBox="0 0 113 324" fill="none" xmlns="http://www.w3.org/2000/svg">
<g opacity="0.1">
<path d="M109.128 244.308C107.036 244.308 105.337 242.616 105.337 240.526C105.337 238.436 107.036 236.744 109.128 236.744C111.221 236.744 112.914 238.436 112.914 240.526C112.914 242.616 111.221 244.308 109.128 244.308Z" fill="white"/>
<path d="M109.128 270.618C107.036 270.618 105.337 268.92 105.337 266.83C105.337 264.74 107.036 263.048 109.128 263.048C111.221 263.048 112.914 264.74 112.914 266.83C112.914 268.92 111.221 270.618 109.128 270.618Z" fill="white"/>
<path d="M109.128 296.921C107.036 296.921 105.337 295.224 105.337 293.134C105.337 291.044 107.036 289.352 109.128 289.352C111.221 289.352 112.914 291.044 112.914 293.134C112.914 295.224 111.221 296.921 109.128 296.921Z" fill="white"/>
<path d="M109.128 323.225C107.036 323.225 105.337 321.533 105.337 319.443C105.337 317.353 107.036 315.655 109.128 315.655C111.221 315.655 112.914 317.353 112.914 319.443C112.914 321.533 111.221 323.225 109.128 323.225Z" fill="white"/>
<path d="M109.128 218.005C107.036 218.005 105.337 216.313 105.337 214.223C105.337 212.133 107.036 210.441 109.128 210.441C111.221 210.441 112.914 212.133 112.914 214.223C112.914 216.313 111.221 218.005 109.128 218.005Z" fill="white"/>
<path d="M109.128 191.701C107.036 191.701 105.337 190.009 105.337 187.919C105.337 185.829 107.036 184.131 109.128 184.131C111.221 184.131 112.914 185.829 112.914 187.919C112.914 190.009 111.221 191.701 109.128 191.701Z" fill="white"/>
<path d="M109.128 60.1769C107.036 60.1769 105.337 58.485 105.337 56.395C105.337 54.305 107.036 52.6131 109.128 52.6131C111.221 52.6131 112.914 54.305 112.914 56.395C112.914 58.485 111.221 60.1769 109.128 60.1769Z" fill="white"/>
<path d="M109.128 86.4806C107.036 86.4806 105.337 84.7887 105.337 82.6987C105.337 80.6086 107.036 78.9167 109.128 78.9167C111.221 78.9167 112.914 80.6087 112.914 82.6987C112.914 84.7887 111.221 86.4806 109.128 86.4806Z" fill="white"/>
<path d="M109.128 112.79C107.036 112.79 105.337 111.092 105.337 109.002C105.337 106.912 107.036 105.22 109.128 105.22C111.221 105.22 112.914 106.912 112.914 109.002C112.914 111.092 111.221 112.79 109.128 112.79Z" fill="white"/>
<path d="M109.128 139.094C107.036 139.094 105.337 137.396 105.337 135.306C105.337 133.222 107.036 131.524 109.128 131.524C111.221 131.524 112.914 133.222 112.914 135.306C112.914 137.396 111.221 139.094 109.128 139.094Z" fill="white"/>
<path d="M109.128 165.397C107.036 165.397 105.337 163.705 105.337 161.615C105.337 159.525 107.036 157.828 109.128 157.828C111.221 157.828 112.914 159.525 112.914 161.615C112.914 163.705 111.221 165.397 109.128 165.397Z" fill="white"/>
<path d="M109.128 33.8733C107.036 33.8733 105.337 32.1814 105.337 30.0914C105.337 28.0014 107.036 26.3095 109.128 26.3095C111.221 26.3095 112.914 28.0014 112.914 30.0914C112.914 32.1814 111.221 33.8733 109.128 33.8733Z" fill="white"/>
<path d="M109.128 7.56969C107.036 7.56969 105.337 5.87777 105.337 3.78777C105.337 1.69776 107.036 -2.56926e-07 109.128 -1.65478e-07C111.221 -7.40294e-08 112.914 1.69776 112.914 3.78777C112.914 5.87778 111.221 7.56969 109.128 7.56969Z" fill="white"/>
<path d="M74.0142 244.308C71.9221 244.308 70.2285 242.616 70.2285 240.526C70.2285 238.436 71.9221 236.744 74.0142 236.744C76.1063 236.744 77.7999 238.436 77.7999 240.526C77.7999 242.616 76.1063 244.308 74.0142 244.308Z" fill="white"/>
<path d="M74.0142 270.618C71.9221 270.618 70.2285 268.92 70.2285 266.83C70.2285 264.74 71.9221 263.048 74.0142 263.048C76.1063 263.048 77.7999 264.74 77.7999 266.83C77.7999 268.92 76.1063 270.618 74.0142 270.618Z" fill="white"/>
<path d="M74.0142 296.921C71.9221 296.921 70.2285 295.224 70.2285 293.134C70.2285 291.044 71.9221 289.352 74.0142 289.352C76.1063 289.352 77.7999 291.044 77.7999 293.134C77.7999 295.224 76.1063 296.921 74.0142 296.921Z" fill="white"/>
<path d="M74.0142 323.225C71.9221 323.225 70.2285 321.533 70.2285 319.443C70.2285 317.353 71.9221 315.655 74.0142 315.655C76.1063 315.655 77.7999 317.353 77.7999 319.443C77.7999 321.533 76.1063 323.225 74.0142 323.225Z" fill="white"/>
<path d="M74.0142 218.005C71.9221 218.005 70.2285 216.313 70.2285 214.223C70.2285 212.133 71.9221 210.441 74.0142 210.441C76.1063 210.441 77.7999 212.133 77.7999 214.223C77.7999 216.313 76.1063 218.005 74.0142 218.005Z" fill="white"/>
<path d="M74.0142 191.701C71.9221 191.701 70.2285 190.009 70.2285 187.919C70.2285 185.829 71.9221 184.131 74.0142 184.131C76.1063 184.131 77.7999 185.829 77.7999 187.919C77.7999 190.009 76.1063 191.701 74.0142 191.701Z" fill="white"/>
<path d="M74.0142 60.1769C71.9221 60.1769 70.2285 58.485 70.2285 56.395C70.2285 54.305 71.9221 52.6131 74.0142 52.6131C76.1063 52.6131 77.7999 54.305 77.7999 56.395C77.7999 58.485 76.1063 60.1769 74.0142 60.1769Z" fill="white"/>
<path d="M74.0142 86.4806C71.9221 86.4806 70.2285 84.7887 70.2285 82.6987C70.2285 80.6086 71.9221 78.9167 74.0142 78.9167C76.1063 78.9167 77.7999 80.6086 77.7999 82.6987C77.7999 84.7887 76.1063 86.4806 74.0142 86.4806Z" fill="white"/>
<path d="M74.0142 112.79C71.9221 112.79 70.2285 111.092 70.2285 109.002C70.2285 106.912 71.9221 105.22 74.0142 105.22C76.1063 105.22 77.7999 106.912 77.7999 109.002C77.7999 111.092 76.1063 112.79 74.0142 112.79Z" fill="white"/>
<path d="M74.0142 139.094C71.9221 139.094 70.2285 137.396 70.2285 135.306C70.2285 133.222 71.9221 131.524 74.0142 131.524C76.1063 131.524 77.7999 133.222 77.7999 135.306C77.7999 137.396 76.1063 139.094 74.0142 139.094Z" fill="white"/>
<path d="M74.0142 165.397C71.9221 165.397 70.2285 163.705 70.2285 161.615C70.2285 159.525 71.9221 157.828 74.0142 157.828C76.1063 157.828 77.7999 159.525 77.7999 161.615C77.7999 163.705 76.1063 165.397 74.0142 165.397Z" fill="white"/>
<path d="M74.0142 33.8733C71.9221 33.8733 70.2285 32.1814 70.2285 30.0914C70.2285 28.0014 71.9221 26.3095 74.0142 26.3095C76.1063 26.3095 77.7999 28.0014 77.7999 30.0914C77.7999 32.1814 76.1063 33.8733 74.0142 33.8733Z" fill="white"/>
<path d="M74.0142 7.56968C71.9221 7.56968 70.2285 5.87777 70.2285 3.78777C70.2285 1.69776 71.9221 -1.79182e-06 74.0142 -1.70037e-06C76.1063 -1.60892e-06 77.7999 1.69776 77.7999 3.78777C77.7999 5.87777 76.1063 7.56968 74.0142 7.56968Z" fill="white"/>
<path d="M38.8999 244.308C36.8078 244.308 35.1143 242.616 35.1143 240.526C35.1143 238.436 36.8078 236.744 38.8999 236.744C40.992 236.744 42.6915 238.436 42.6915 240.526C42.6915 242.616 40.992 244.308 38.8999 244.308Z" fill="white"/>
<path d="M38.8999 270.618C36.8078 270.618 35.1143 268.92 35.1143 266.83C35.1143 264.74 36.8078 263.048 38.8999 263.048C40.992 263.048 42.6915 264.74 42.6915 266.83C42.6915 268.92 40.992 270.618 38.8999 270.618Z" fill="white"/>
<path d="M38.8999 296.921C36.8078 296.921 35.1143 295.224 35.1143 293.134C35.1143 291.044 36.8078 289.352 38.8999 289.352C40.992 289.352 42.6915 291.044 42.6915 293.134C42.6915 295.224 40.992 296.921 38.8999 296.921Z" fill="white"/>
<path d="M38.8999 323.225C36.8078 323.225 35.1143 321.533 35.1143 319.443C35.1143 317.353 36.8078 315.655 38.8999 315.655C40.992 315.655 42.6915 317.353 42.6915 319.443C42.6915 321.533 40.992 323.225 38.8999 323.225Z" fill="white"/>
<path d="M38.8999 218.005C36.8078 218.005 35.1143 216.313 35.1143 214.223C35.1143 212.133 36.8078 210.441 38.8999 210.441C40.992 210.441 42.6915 212.133 42.6915 214.223C42.6915 216.313 40.992 218.005 38.8999 218.005Z" fill="white"/>
<path d="M38.8999 191.701C36.8078 191.701 35.1143 190.009 35.1143 187.919C35.1143 185.829 36.8078 184.131 38.8999 184.131C40.992 184.131 42.6915 185.829 42.6915 187.919C42.6915 190.009 40.992 191.701 38.8999 191.701Z" fill="white"/>
<path d="M38.8999 60.1769C36.8079 60.1769 35.1143 58.485 35.1143 56.395C35.1143 54.305 36.8079 52.6131 38.8999 52.6131C40.992 52.6131 42.6915 54.305 42.6915 56.395C42.6915 58.485 40.992 60.1769 38.8999 60.1769Z" fill="white"/>
<path d="M38.8999 86.4806C36.8078 86.4806 35.1143 84.7887 35.1143 82.6987C35.1143 80.6086 36.8079 78.9167 38.8999 78.9167C40.992 78.9167 42.6915 80.6086 42.6915 82.6987C42.6915 84.7887 40.992 86.4806 38.8999 86.4806Z" fill="white"/>
<path d="M38.8999 112.79C36.8078 112.79 35.1143 111.092 35.1143 109.002C35.1143 106.912 36.8078 105.22 38.8999 105.22C40.992 105.22 42.6915 106.912 42.6915 109.002C42.6915 111.092 40.992 112.79 38.8999 112.79Z" fill="white"/>
<path d="M38.8999 139.094C36.8078 139.094 35.1143 137.396 35.1143 135.306C35.1143 133.222 36.8078 131.524 38.8999 131.524C40.992 131.524 42.6915 133.222 42.6915 135.306C42.6915 137.396 40.992 139.094 38.8999 139.094Z" fill="white"/>
<path d="M38.8999 165.397C36.8078 165.397 35.1143 163.705 35.1143 161.615C35.1143 159.525 36.8078 157.828 38.8999 157.828C40.992 157.828 42.6915 159.525 42.6915 161.615C42.6915 163.705 40.992 165.397 38.8999 165.397Z" fill="white"/>
<path d="M38.8999 33.8733C36.8079 33.8733 35.1143 32.1814 35.1143 30.0914C35.1143 28.0014 36.8079 26.3095 38.8999 26.3095C40.992 26.3095 42.6915 28.0014 42.6915 30.0914C42.6915 32.1814 40.992 33.8733 38.8999 33.8733Z" fill="white"/>
<path d="M38.8999 7.56968C36.8079 7.56968 35.1143 5.87777 35.1143 3.78777C35.1143 1.69776 36.8079 -3.32671e-06 38.8999 -3.23527e-06C40.992 -3.14382e-06 42.6915 1.69776 42.6915 3.78777C42.6915 5.87777 40.992 7.56968 38.8999 7.56968Z" fill="white"/>
<path d="M3.78566 244.308C1.69943 244.308 -1.82345e-05 242.616 -1.81431e-05 240.526C-1.80518e-05 238.436 1.69943 236.744 3.78566 236.744C5.87774 236.744 7.5772 238.436 7.5772 240.526C7.5772 242.616 5.87774 244.308 3.78566 244.308Z" fill="white"/>
<path d="M3.78566 270.618C1.69943 270.618 -1.93843e-05 268.92 -1.92929e-05 266.83C-1.92015e-05 264.74 1.69943 263.048 3.78566 263.048C5.87774 263.048 7.5772 264.74 7.5772 266.83C7.5772 268.92 5.87774 270.618 3.78566 270.618Z" fill="white"/>
<path d="M3.78565 296.921C1.69943 296.921 -2.0534e-05 295.224 -2.04427e-05 293.134C-2.03513e-05 291.044 1.69943 289.352 3.78565 289.352C5.87774 289.352 7.5772 291.044 7.5772 293.134C7.5772 295.224 5.87774 296.921 3.78565 296.921Z" fill="white"/>
<path d="M3.78565 323.225C1.69943 323.225 -2.16841e-05 321.533 -2.15927e-05 319.443C-2.15013e-05 317.353 1.69943 315.655 3.78565 315.655C5.87774 315.655 7.5772 317.353 7.5772 319.443C7.5772 321.533 5.87774 323.225 3.78565 323.225Z" fill="white"/>
<path d="M3.78566 218.005C1.69943 218.005 -1.70847e-05 216.313 -1.69934e-05 214.223C-1.6902e-05 212.133 1.69943 210.441 3.78566 210.441C5.87775 210.441 7.5772 212.133 7.5772 214.223C7.5772 216.313 5.87774 218.005 3.78566 218.005Z" fill="white"/>
<path d="M3.78566 191.701C1.69943 191.701 -1.5935e-05 190.009 -1.58436e-05 187.919C-1.57522e-05 185.829 1.69943 184.131 3.78566 184.131C5.87775 184.131 7.5772 185.829 7.5772 187.919C7.5772 190.009 5.87775 191.701 3.78566 191.701Z" fill="white"/>
<path d="M3.78566 60.1769C1.69944 60.1769 -1.01859e-05 58.485 -1.00945e-05 56.395C-1.00031e-05 54.305 1.69944 52.6131 3.78567 52.6131C5.87775 52.6131 7.57721 54.305 7.57721 56.395C7.57721 58.485 5.87775 60.1769 3.78566 60.1769Z" fill="white"/>
<path d="M3.78566 86.4806C1.69944 86.4806 -1.13356e-05 84.7887 -1.12443e-05 82.6986C-1.11529e-05 80.6086 1.69944 78.9167 3.78566 78.9167C5.87775 78.9167 7.57721 80.6086 7.57721 82.6986C7.57721 84.7887 5.87775 86.4806 3.78566 86.4806Z" fill="white"/>
<path d="M3.78566 112.79C1.69944 112.79 -1.24854e-05 111.092 -1.2394e-05 109.002C-1.23027e-05 106.912 1.69944 105.22 3.78566 105.22C5.87775 105.22 7.5772 106.912 7.5772 109.002C7.5772 111.092 5.87775 112.79 3.78566 112.79Z" fill="white"/>
<path d="M3.78566 139.094C1.69943 139.094 -1.36352e-05 137.396 -1.35438e-05 135.306C-1.34527e-05 133.222 1.69943 131.524 3.78566 131.524C5.87775 131.524 7.5772 133.222 7.5772 135.306C7.5772 137.396 5.87775 139.094 3.78566 139.094Z" fill="white"/>
<path d="M3.78566 165.397C1.69943 165.397 -1.47852e-05 163.705 -1.46938e-05 161.615C-1.46025e-05 159.525 1.69943 157.828 3.78566 157.828C5.87775 157.828 7.5772 159.525 7.5772 161.615C7.5772 163.705 5.87775 165.397 3.78566 165.397Z" fill="white"/>
<path d="M3.78567 33.8733C1.69944 33.8733 -9.03609e-06 32.1814 -8.94473e-06 30.0914C-8.85337e-06 28.0014 1.69944 26.3095 3.78567 26.3095C5.87775 26.3095 7.57721 28.0014 7.57721 30.0914C7.57721 32.1814 5.87775 33.8733 3.78567 33.8733Z" fill="white"/>
<path d="M3.78567 7.56968C1.69944 7.56968 -7.88632e-06 5.87777 -7.79496e-06 3.78776C-7.70361e-06 1.69776 1.69944 -4.86135e-06 3.78567 -4.77016e-06C5.87775 -4.67871e-06 7.57721 1.69776 7.57721 3.78776C7.57721 5.87777 5.87775 7.56968 3.78567 7.56968Z" fill="white"/>
</g>
<path d="M109.128 112.677C107.036 112.677 105.337 110.985 105.337 108.895C105.337 106.805 107.036 105.113 109.128 105.113C111.221 105.113 112.914 106.805 112.914 108.895C112.914 110.985 111.221 112.677 109.128 112.677Z" fill="white"/>
<path d="M109.128 86.3733C107.036 86.3733 105.337 84.6814 105.337 82.5914C105.337 80.5014 107.036 78.8095 109.128 78.8095C111.221 78.8095 112.914 80.5014 112.914 82.5914C112.914 84.6814 111.221 86.3733 109.128 86.3733Z" fill="white"/>
<path d="M109.128 60.0697C107.036 60.0697 105.337 58.3778 105.337 56.2878C105.337 54.1978 107.036 52.5 109.128 52.5C111.221 52.5 112.914 54.1978 112.914 56.2878C112.914 58.3778 111.221 60.0697 109.128 60.0697Z" fill="white"/>
<path d="M74.0142 112.677C71.9221 112.677 70.2285 110.985 70.2285 108.895C70.2285 106.805 71.9221 105.113 74.0142 105.113C76.1063 105.113 77.7999 106.805 77.7999 108.895C77.7999 110.985 76.1063 112.677 74.0142 112.677Z" fill="white"/>
<path d="M74.0142 86.3733C71.9221 86.3733 70.2285 84.6814 70.2285 82.5914C70.2285 80.5014 71.9221 78.8095 74.0142 78.8095C76.1063 78.8095 77.7999 80.5014 77.7999 82.5914C77.7999 84.6814 76.1063 86.3733 74.0142 86.3733Z" fill="white"/>
<path d="M74.0142 60.0697C71.9221 60.0697 70.2285 58.3778 70.2285 56.2878C70.2285 54.1978 71.9221 52.5 74.0142 52.5C76.1063 52.5 77.7999 54.1978 77.7999 56.2878C77.7999 58.3778 76.1063 60.0697 74.0142 60.0697Z" fill="white"/>
<path d="M38.8999 112.677C36.8078 112.677 35.1143 110.985 35.1143 108.895C35.1143 106.805 36.8078 105.113 38.8999 105.113C40.992 105.113 42.6915 106.805 42.6915 108.895C42.6915 110.985 40.992 112.677 38.8999 112.677Z" fill="white"/>
<path d="M38.8999 86.3733C36.8078 86.3733 35.1143 84.6814 35.1143 82.5914C35.1143 80.5014 36.8079 78.8095 38.8999 78.8095C40.992 78.8095 42.6915 80.5014 42.6915 82.5914C42.6915 84.6814 40.992 86.3733 38.8999 86.3733Z" fill="white"/>
<path d="M38.8999 60.0697C36.8079 60.0697 35.1143 58.3778 35.1143 56.2878C35.1143 54.1978 36.8079 52.5 38.8999 52.5C40.992 52.5 42.6915 54.1978 42.6915 56.2878C42.6915 58.3778 40.992 60.0697 38.8999 60.0697Z" fill="white"/>
<path d="M3.78566 112.677C1.69944 112.677 -1.24807e-05 110.985 -1.23893e-05 108.895C-1.2298e-05 106.805 1.69944 105.113 3.78566 105.113C5.87775 105.113 7.5772 106.805 7.5772 108.895C7.5772 110.985 5.87775 112.677 3.78566 112.677Z" fill="white"/>
<path d="M3.78566 86.3733C1.69944 86.3733 -1.13309e-05 84.6814 -1.12396e-05 82.5914C-1.11482e-05 80.5014 1.69944 78.8095 3.78566 78.8095C5.87775 78.8095 7.57721 80.5014 7.57721 82.5914C7.57721 84.6814 5.87775 86.3733 3.78566 86.3733Z" fill="white"/>
<path d="M3.78566 60.0697C1.69944 60.0697 -1.01812e-05 58.3778 -1.00898e-05 56.2878C-9.99845e-06 54.1978 1.69944 52.5 3.78567 52.5C5.87775 52.5 7.57721 54.1978 7.57721 56.2878C7.57721 58.3778 5.87775 60.0697 3.78566 60.0697Z" fill="white"/>
<path d="M109.128 7.56967C107.036 7.56967 105.337 5.87779 105.337 3.78778C105.337 1.69777 107.036 -2.56926e-07 109.128 -1.65478e-07C111.221 -7.40294e-08 112.914 1.69777 112.914 3.78778C112.914 5.87779 111.221 7.56967 109.128 7.56967Z" fill="white"/>
<path d="M109.128 33.8733C107.036 33.8733 105.337 32.1814 105.337 30.0914C105.337 28.0014 107.036 26.3036 109.128 26.3036C111.221 26.3036 112.914 28.0014 112.914 30.0914C112.914 32.1814 111.221 33.8733 109.128 33.8733Z" fill="white"/>
<path d="M74.0142 7.56967C71.9221 7.56967 70.2285 5.87778 70.2285 3.78778C70.2285 1.69777 71.9221 -1.79182e-06 74.0142 -1.70037e-06C76.1063 -1.60892e-06 77.7999 1.69777 77.7999 3.78778C77.7999 5.87779 76.1063 7.56967 74.0142 7.56967Z" fill="white"/>
<path d="M74.0142 33.8733C71.9221 33.8733 70.2285 32.1814 70.2285 30.0914C70.2285 28.0014 71.9221 26.3036 74.0142 26.3036C76.1063 26.3036 77.7999 28.0014 77.7999 30.0914C77.7999 32.1814 76.1063 33.8733 74.0142 33.8733Z" fill="white"/>
<path d="M38.8999 7.56967C36.8079 7.56967 35.1143 5.87778 35.1143 3.78778C35.1143 1.69777 36.8079 -3.32671e-06 38.8999 -3.23527e-06C40.992 -3.14382e-06 42.6915 1.69777 42.6915 3.78778C42.6915 5.87778 40.992 7.56967 38.8999 7.56967Z" fill="white"/>
<path d="M38.8999 33.8733C36.8079 33.8733 35.1143 32.1814 35.1143 30.0914C35.1143 28.0014 36.8079 26.3036 38.8999 26.3036C40.992 26.3036 42.6915 28.0014 42.6915 30.0914C42.6915 32.1814 40.992 33.8733 38.8999 33.8733Z" fill="white"/>
<path d="M3.78567 7.56967C1.69944 7.56967 -7.88632e-06 5.87778 -7.79496e-06 3.78778C-7.70361e-06 1.69777 1.69944 -4.86135e-06 3.78567 -4.77016e-06C5.87775 -4.67871e-06 7.57721 1.69777 7.57721 3.78778C7.57721 5.87778 5.87775 7.56967 3.78567 7.56967Z" fill="white"/>
<path d="M3.78567 33.8733C1.69944 33.8733 -9.03609e-06 32.1814 -8.94473e-06 30.0914C-8.85337e-06 28.0014 1.69944 26.3036 3.78567 26.3036C5.87775 26.3036 7.57721 28.0014 7.57721 30.0914C7.57721 32.1814 5.87775 33.8733 3.78567 33.8733Z" fill="white"/>
</svg>
