<svg width="516" height="145" viewBox="0 0 516 145" fill="none" xmlns="http://www.w3.org/2000/svg">
<g opacity="0.1">
<path d="M430.648 3.79156C430.648 5.88365 428.956 7.57723 426.866 7.57723C424.776 7.57723 423.085 5.88365 423.085 3.79156C423.085 1.69947 424.776 0 426.866 0C428.956 0 430.648 1.69947 430.648 3.79156Z" fill="#0A2783"/>
<path d="M404.345 3.79156C404.345 5.88365 402.653 7.57723 400.563 7.57723C398.473 7.57723 396.781 5.88365 396.781 3.79156C396.781 1.69947 398.473 0 400.563 0C402.653 0 404.345 1.69947 404.345 3.79156Z" fill="#0A2783"/>
<path d="M378.041 3.79156C378.041 5.88365 376.349 7.57723 374.259 7.57723C372.169 7.57723 370.471 5.88365 370.471 3.79156C370.471 1.69947 372.169 0 374.259 0C376.349 0 378.041 1.69947 378.041 3.79156Z" fill="#0A2783"/>
<path d="M430.648 38.9058C430.648 40.9921 428.956 42.6915 426.866 42.6915C424.776 42.6915 423.085 40.9921 423.085 38.9058C423.085 36.8137 424.776 35.1143 426.866 35.1143C428.956 35.1143 430.648 36.8137 430.648 38.9058Z" fill="#0A2783"/>
<path d="M404.345 38.9058C404.345 40.9921 402.653 42.6915 400.563 42.6915C398.473 42.6915 396.781 40.9921 396.781 38.9058C396.781 36.8137 398.473 35.1143 400.563 35.1143C402.653 35.1143 404.345 36.8137 404.345 38.9058Z" fill="#0A2783"/>
<path d="M378.041 38.9058C378.041 40.9921 376.349 42.6915 374.259 42.6915C372.169 42.6915 370.471 40.9921 370.471 38.9058C370.471 36.8137 372.169 35.1143 374.259 35.1143C376.349 35.1143 378.041 36.8137 378.041 38.9058Z" fill="#0A2783"/>
<path d="M430.648 74.0142C430.648 76.1063 428.956 77.8058 426.866 77.8058C424.776 77.8058 423.085 76.1063 423.085 74.0142C423.085 71.9221 424.776 70.2286 426.866 70.2286C428.956 70.2286 430.648 71.9221 430.648 74.0142Z" fill="#0A2783"/>
<path d="M404.345 74.0142C404.345 76.1063 402.653 77.8058 400.563 77.8058C398.473 77.8058 396.781 76.1063 396.781 74.0142C396.781 71.9221 398.473 70.2286 400.563 70.2286C402.653 70.2286 404.345 71.9221 404.345 74.0142Z" fill="#0A2783"/>
<path d="M378.041 74.0142C378.041 76.1063 376.349 77.8058 374.259 77.8058C372.169 77.8058 370.471 76.1063 370.471 74.0142C370.471 71.9221 372.169 70.2286 374.259 70.2286C376.349 70.2286 378.041 71.9221 378.041 74.0142Z" fill="#0A2783"/>
<path d="M430.648 109.129C430.648 111.221 428.956 112.914 426.866 112.914C424.776 112.914 423.085 111.221 423.085 109.129C423.085 107.036 424.776 105.343 426.866 105.343C428.956 105.343 430.648 107.036 430.648 109.129Z" fill="#0A2783"/>
<path d="M404.345 109.129C404.345 111.221 402.653 112.914 400.563 112.914C398.473 112.914 396.781 111.221 396.781 109.129C396.781 107.036 398.473 105.343 400.563 105.343C402.653 105.343 404.345 107.036 404.345 109.129Z" fill="#0A2783"/>
<path d="M378.041 109.129C378.041 111.221 376.349 112.914 374.259 112.914C372.169 112.914 370.471 111.221 370.471 109.129C370.471 107.036 372.169 105.343 374.259 105.343C376.349 105.343 378.041 107.036 378.041 109.129Z" fill="#0A2783"/>
<path d="M430.648 141.118C430.648 143.21 428.956 144.91 426.866 144.91C424.776 144.91 423.085 143.21 423.085 141.118C423.085 139.026 424.776 137.332 426.866 137.332C428.956 137.332 430.648 139.026 430.648 141.118Z" fill="#0A2783"/>
<path d="M404.345 141.118C404.345 143.21 402.653 144.91 400.563 144.91C398.473 144.91 396.781 143.21 396.781 141.118C396.781 139.026 398.473 137.332 400.563 137.332C402.653 137.332 404.345 139.026 404.345 141.118Z" fill="#0A2783"/>
<path d="M378.041 141.118C378.041 143.21 376.349 144.91 374.259 144.91C372.169 144.91 370.471 143.21 370.471 141.118C370.471 139.026 372.169 137.332 374.259 137.332C376.349 137.332 378.041 139.026 378.041 141.118Z" fill="#0A2783"/>
<path d="M244.308 3.79156C244.308 5.88365 242.616 7.57723 240.526 7.57723C238.436 7.57723 236.744 5.88365 236.744 3.79156C236.744 1.69947 238.436 0 240.526 0C242.616 0 244.308 1.69947 244.308 3.79156Z" fill="#0A2783"/>
<path d="M270.618 3.79156C270.618 5.88365 268.92 7.57723 266.83 7.57723C264.74 7.57723 263.048 5.88365 263.048 3.79156C263.048 1.69947 264.74 0 266.83 0C268.92 0 270.618 1.69947 270.618 3.79156Z" fill="#0A2783"/>
<path d="M296.921 3.79156C296.921 5.88365 295.224 7.57723 293.134 7.57723C291.044 7.57723 289.352 5.88365 289.352 3.79156C289.352 1.69947 291.044 0 293.134 0C295.224 0 296.921 1.69947 296.921 3.79156Z" fill="#0A2783"/>
<path d="M323.225 3.79156C323.225 5.88365 321.533 7.57723 319.443 7.57723C317.353 7.57723 315.655 5.88365 315.655 3.79156C315.655 1.69947 317.353 0 319.443 0C321.533 0 323.225 1.69947 323.225 3.79156Z" fill="#0A2783"/>
<path d="M349.529 3.79156C349.529 5.88365 347.837 7.57723 345.747 7.57723C343.657 7.57723 341.959 5.88365 341.959 3.79156C341.959 1.69947 343.657 0 345.747 0C347.837 0 349.529 1.69947 349.529 3.79156Z" fill="#0A2783"/>
<path d="M218.005 3.79156C218.005 5.88365 216.313 7.57723 214.223 7.57723C212.133 7.57723 210.441 5.88365 210.441 3.79156C210.441 1.69947 212.133 0 214.223 0C216.313 0 218.005 1.69947 218.005 3.79156Z" fill="#0A2783"/>
<path d="M191.701 3.79156C191.701 5.88365 190.009 7.57723 187.919 7.57723C185.829 7.57723 184.131 5.88365 184.131 3.79156C184.131 1.69947 185.829 0 187.919 0C190.009 0 191.701 1.69947 191.701 3.79156Z" fill="#0A2783"/>
<path d="M60.1769 3.79156C60.1769 5.88365 58.485 7.57723 56.395 7.57723C54.305 7.57723 52.6131 5.88365 52.6131 3.79156C52.6131 1.69947 54.305 0 56.395 0C58.485 0 60.1769 1.69947 60.1769 3.79156Z" fill="#0A2783"/>
<path d="M86.4806 3.79156C86.4806 5.88365 84.7887 7.57723 82.6987 7.57723C80.6087 7.57723 78.9167 5.88365 78.9167 3.79156C78.9167 1.69947 80.6087 0 82.6987 0C84.7887 0 86.4806 1.69947 86.4806 3.79156Z" fill="#0A2783"/>
<path d="M112.79 3.79156C112.79 5.88365 111.092 7.57723 109.002 7.57723C106.912 7.57723 105.22 5.88365 105.22 3.79156C105.22 1.69947 106.912 0 109.002 0C111.092 0 112.79 1.69947 112.79 3.79156Z" fill="#0A2783"/>
<path d="M139.094 3.79156C139.094 5.88365 137.396 7.57723 135.306 7.57723C133.222 7.57723 131.524 5.88365 131.524 3.79156C131.524 1.69947 133.222 0 135.306 0C137.396 0 139.094 1.69947 139.094 3.79156Z" fill="#0A2783"/>
<path d="M165.397 3.79156C165.397 5.88365 163.705 7.57723 161.615 7.57723C159.525 7.57723 157.828 5.88365 157.828 3.79156C157.828 1.69947 159.525 0 161.615 0C163.705 0 165.397 1.69947 165.397 3.79156Z" fill="#0A2783"/>
<path d="M33.8733 3.79156C33.8733 5.88365 32.1814 7.57723 30.0914 7.57723C28.0014 7.57723 26.3095 5.88365 26.3095 3.79156C26.3095 1.69947 28.0014 0 30.0914 0C32.1814 0 33.8733 1.69947 33.8733 3.79156Z" fill="#0A2783"/>
<path d="M7.56969 3.79156C7.56969 5.88365 5.87778 7.57723 3.78777 7.57723C1.69776 7.57723 0 5.88365 0 3.79156C0 1.69947 1.69776 0 3.78777 0C5.87778 0 7.56969 1.69947 7.56969 3.79156Z" fill="#0A2783"/>
<path d="M244.308 38.9058C244.308 40.9921 242.616 42.6915 240.526 42.6915C238.436 42.6915 236.744 40.9921 236.744 38.9058C236.744 36.8137 238.436 35.1143 240.526 35.1143C242.616 35.1143 244.308 36.8137 244.308 38.9058Z" fill="#0A2783"/>
<path d="M270.618 38.9058C270.618 40.9921 268.92 42.6915 266.83 42.6915C264.74 42.6915 263.048 40.9921 263.048 38.9058C263.048 36.8137 264.74 35.1143 266.83 35.1143C268.92 35.1143 270.618 36.8137 270.618 38.9058Z" fill="#0A2783"/>
<path d="M296.921 38.9058C296.921 40.9921 295.224 42.6915 293.134 42.6915C291.044 42.6915 289.352 40.9921 289.352 38.9058C289.352 36.8137 291.044 35.1143 293.134 35.1143C295.224 35.1143 296.921 36.8137 296.921 38.9058Z" fill="#0A2783"/>
<path d="M323.225 38.9058C323.225 40.9921 321.533 42.6915 319.443 42.6915C317.353 42.6915 315.655 40.9921 315.655 38.9058C315.655 36.8137 317.353 35.1143 319.443 35.1143C321.533 35.1143 323.225 36.8137 323.225 38.9058Z" fill="#0A2783"/>
<path d="M349.529 38.9058C349.529 40.9921 347.837 42.6915 345.747 42.6915C343.657 42.6915 341.959 40.9921 341.959 38.9058C341.959 36.8137 343.657 35.1143 345.747 35.1143C347.837 35.1143 349.529 36.8137 349.529 38.9058Z" fill="#0A2783"/>
<path d="M218.005 38.9058C218.005 40.9921 216.313 42.6915 214.223 42.6915C212.133 42.6915 210.441 40.9921 210.441 38.9058C210.441 36.8137 212.133 35.1143 214.223 35.1143C216.313 35.1143 218.005 36.8137 218.005 38.9058Z" fill="#0A2783"/>
<path d="M191.701 38.9058C191.701 40.9921 190.009 42.6915 187.919 42.6915C185.829 42.6915 184.131 40.9921 184.131 38.9058C184.131 36.8137 185.829 35.1143 187.919 35.1143C190.009 35.1143 191.701 36.8137 191.701 38.9058Z" fill="#0A2783"/>
<path d="M60.1769 38.9058C60.1769 40.9921 58.485 42.6915 56.395 42.6915C54.305 42.6915 52.6131 40.9921 52.6131 38.9058C52.6131 36.8137 54.305 35.1143 56.395 35.1143C58.485 35.1143 60.1769 36.8137 60.1769 38.9058Z" fill="#0A2783"/>
<path d="M86.4806 38.9058C86.4806 40.9921 84.7887 42.6915 82.6987 42.6915C80.6087 42.6915 78.9167 40.9921 78.9167 38.9058C78.9167 36.8137 80.6087 35.1143 82.6987 35.1143C84.7887 35.1143 86.4806 36.8137 86.4806 38.9058Z" fill="#0A2783"/>
<path d="M112.79 38.9058C112.79 40.9921 111.092 42.6915 109.002 42.6915C106.912 42.6915 105.22 40.9921 105.22 38.9058C105.22 36.8137 106.912 35.1143 109.002 35.1143C111.092 35.1143 112.79 36.8137 112.79 38.9058Z" fill="#0A2783"/>
<path d="M139.094 38.9058C139.094 40.9921 137.396 42.6915 135.306 42.6915C133.222 42.6915 131.524 40.9921 131.524 38.9058C131.524 36.8137 133.222 35.1143 135.306 35.1143C137.396 35.1143 139.094 36.8137 139.094 38.9058Z" fill="#0A2783"/>
<path d="M165.397 38.9058C165.397 40.9921 163.705 42.6915 161.615 42.6915C159.525 42.6915 157.828 40.9921 157.828 38.9058C157.828 36.8137 159.525 35.1143 161.615 35.1143C163.705 35.1143 165.397 36.8137 165.397 38.9058Z" fill="#0A2783"/>
<path d="M33.8733 38.9058C33.8733 40.9921 32.1814 42.6915 30.0914 42.6915C28.0014 42.6915 26.3095 40.9921 26.3095 38.9058C26.3095 36.8137 28.0014 35.1143 30.0914 35.1143C32.1814 35.1143 33.8733 36.8137 33.8733 38.9058Z" fill="#0A2783"/>
<path d="M7.56969 38.9058C7.56969 40.9921 5.87778 42.6915 3.78777 42.6915C1.69776 42.6915 0 40.9921 0 38.9058C0 36.8137 1.69776 35.1143 3.78777 35.1143C5.87778 35.1143 7.56969 36.8137 7.56969 38.9058Z" fill="#0A2783"/>
<path d="M244.308 74.0142C244.308 76.1063 242.616 77.8058 240.526 77.8058C238.436 77.8058 236.744 76.1063 236.744 74.0142C236.744 71.9221 238.436 70.2286 240.526 70.2286C242.616 70.2286 244.308 71.9221 244.308 74.0142Z" fill="#0A2783"/>
<path d="M270.618 74.0142C270.618 76.1063 268.92 77.8058 266.83 77.8058C264.74 77.8058 263.048 76.1063 263.048 74.0142C263.048 71.9221 264.74 70.2286 266.83 70.2286C268.92 70.2286 270.618 71.9221 270.618 74.0142Z" fill="#0A2783"/>
<path d="M296.921 74.0142C296.921 76.1063 295.224 77.8058 293.134 77.8058C291.044 77.8058 289.352 76.1063 289.352 74.0142C289.352 71.9221 291.044 70.2286 293.134 70.2286C295.224 70.2286 296.921 71.9221 296.921 74.0142Z" fill="#0A2783"/>
<path d="M323.225 74.0142C323.225 76.1063 321.533 77.8058 319.443 77.8058C317.353 77.8058 315.655 76.1063 315.655 74.0142C315.655 71.9221 317.353 70.2286 319.443 70.2286C321.533 70.2286 323.225 71.9221 323.225 74.0142Z" fill="#0A2783"/>
<path d="M349.529 74.0142C349.529 76.1063 347.837 77.8058 345.747 77.8058C343.657 77.8058 341.959 76.1063 341.959 74.0142C341.959 71.9221 343.657 70.2286 345.747 70.2286C347.837 70.2286 349.529 71.9221 349.529 74.0142Z" fill="#0A2783"/>
<path d="M218.005 74.0142C218.005 76.1063 216.313 77.8058 214.223 77.8058C212.133 77.8058 210.441 76.1063 210.441 74.0142C210.441 71.9221 212.133 70.2286 214.223 70.2286C216.313 70.2286 218.005 71.9221 218.005 74.0142Z" fill="#0A2783"/>
<path d="M191.701 74.0142C191.701 76.1063 190.009 77.8058 187.919 77.8058C185.829 77.8058 184.131 76.1063 184.131 74.0142C184.131 71.9221 185.829 70.2286 187.919 70.2286C190.009 70.2286 191.701 71.9221 191.701 74.0142Z" fill="#0A2783"/>
<path d="M60.1769 74.0142C60.1769 76.1063 58.485 77.8058 56.395 77.8058C54.305 77.8058 52.6131 76.1063 52.6131 74.0142C52.6131 71.9221 54.305 70.2286 56.395 70.2286C58.485 70.2286 60.1769 71.9221 60.1769 74.0142Z" fill="#0A2783"/>
<path d="M86.4806 74.0142C86.4806 76.1063 84.7887 77.8058 82.6987 77.8058C80.6087 77.8058 78.9167 76.1063 78.9167 74.0142C78.9167 71.9221 80.6087 70.2286 82.6987 70.2286C84.7887 70.2286 86.4806 71.9221 86.4806 74.0142Z" fill="#0A2783"/>
<path d="M112.79 74.0142C112.79 76.1063 111.092 77.8058 109.002 77.8058C106.912 77.8058 105.22 76.1063 105.22 74.0142C105.22 71.9221 106.912 70.2286 109.002 70.2286C111.092 70.2286 112.79 71.9221 112.79 74.0142Z" fill="#0A2783"/>
<path d="M139.094 74.0142C139.094 76.1063 137.396 77.8058 135.306 77.8058C133.222 77.8058 131.524 76.1063 131.524 74.0142C131.524 71.9221 133.222 70.2286 135.306 70.2286C137.396 70.2286 139.094 71.9221 139.094 74.0142Z" fill="#0A2783"/>
<path d="M165.397 74.0142C165.397 76.1063 163.705 77.8058 161.615 77.8058C159.525 77.8058 157.828 76.1063 157.828 74.0142C157.828 71.9221 159.525 70.2286 161.615 70.2286C163.705 70.2286 165.397 71.9221 165.397 74.0142Z" fill="#0A2783"/>
<path d="M33.8733 74.0142C33.8733 76.1063 32.1814 77.8058 30.0914 77.8058C28.0014 77.8058 26.3095 76.1063 26.3095 74.0142C26.3095 71.9221 28.0014 70.2286 30.0914 70.2286C32.1814 70.2286 33.8733 71.9221 33.8733 74.0142Z" fill="#0A2783"/>
<path d="M7.56969 74.0142C7.56969 76.1063 5.87778 77.8058 3.78777 77.8058C1.69776 77.8058 0 76.1063 0 74.0142C0 71.9221 1.69776 70.2286 3.78777 70.2286C5.87778 70.2286 7.56969 71.9221 7.56969 74.0142Z" fill="#0A2783"/>
<path d="M244.308 109.129C244.308 111.221 242.616 112.914 240.526 112.914C238.436 112.914 236.744 111.221 236.744 109.129C236.744 107.036 238.436 105.343 240.526 105.343C242.616 105.343 244.308 107.036 244.308 109.129Z" fill="#0A2783"/>
<path d="M270.618 109.129C270.618 111.221 268.92 112.914 266.83 112.914C264.74 112.914 263.048 111.221 263.048 109.129C263.048 107.036 264.74 105.343 266.83 105.343C268.92 105.343 270.618 107.036 270.618 109.129Z" fill="#0A2783"/>
<path d="M296.921 109.129C296.921 111.221 295.224 112.914 293.134 112.914C291.044 112.914 289.352 111.221 289.352 109.129C289.352 107.036 291.044 105.343 293.134 105.343C295.224 105.343 296.921 107.036 296.921 109.129Z" fill="#0A2783"/>
<path d="M323.225 109.129C323.225 111.221 321.533 112.914 319.443 112.914C317.353 112.914 315.655 111.221 315.655 109.129C315.655 107.036 317.353 105.343 319.443 105.343C321.533 105.343 323.225 107.036 323.225 109.129Z" fill="#0A2783"/>
<path d="M349.529 109.129C349.529 111.221 347.837 112.914 345.747 112.914C343.657 112.914 341.959 111.221 341.959 109.129C341.959 107.036 343.657 105.343 345.747 105.343C347.837 105.343 349.529 107.036 349.529 109.129Z" fill="#0A2783"/>
<path d="M218.005 109.129C218.005 111.221 216.313 112.914 214.223 112.914C212.133 112.914 210.441 111.221 210.441 109.129C210.441 107.036 212.133 105.343 214.223 105.343C216.313 105.343 218.005 107.036 218.005 109.129Z" fill="#0A2783"/>
<path d="M191.701 109.129C191.701 111.221 190.009 112.914 187.919 112.914C185.829 112.914 184.131 111.221 184.131 109.129C184.131 107.036 185.829 105.343 187.919 105.343C190.009 105.343 191.701 107.036 191.701 109.129Z" fill="#0A2783"/>
<path d="M60.1769 109.129C60.1769 111.221 58.485 112.914 56.395 112.914C54.305 112.914 52.6131 111.221 52.6131 109.129C52.6131 107.036 54.305 105.343 56.395 105.343C58.485 105.343 60.1769 107.036 60.1769 109.129Z" fill="#0A2783"/>
<path d="M86.4806 109.129C86.4806 111.221 84.7887 112.914 82.6987 112.914C80.6087 112.914 78.9167 111.221 78.9167 109.129C78.9167 107.036 80.6087 105.343 82.6987 105.343C84.7887 105.343 86.4806 107.036 86.4806 109.129Z" fill="#0A2783"/>
<path d="M112.79 109.129C112.79 111.221 111.092 112.914 109.002 112.914C106.912 112.914 105.22 111.221 105.22 109.129C105.22 107.036 106.912 105.343 109.002 105.343C111.092 105.343 112.79 107.036 112.79 109.129Z" fill="#0A2783"/>
<path d="M139.094 109.129C139.094 111.221 137.396 112.914 135.306 112.914C133.222 112.914 131.524 111.221 131.524 109.129C131.524 107.036 133.222 105.343 135.306 105.343C137.396 105.343 139.094 107.036 139.094 109.129Z" fill="#0A2783"/>
<path d="M165.397 109.129C165.397 111.221 163.705 112.914 161.615 112.914C159.525 112.914 157.828 111.221 157.828 109.129C157.828 107.036 159.525 105.343 161.615 105.343C163.705 105.343 165.397 107.036 165.397 109.129Z" fill="#0A2783"/>
<path d="M33.8733 109.129C33.8733 111.221 32.1814 112.914 30.0914 112.914C28.0014 112.914 26.3095 111.221 26.3095 109.129C26.3095 107.036 28.0014 105.343 30.0914 105.343C32.1814 105.343 33.8733 107.036 33.8733 109.129Z" fill="#0A2783"/>
<path d="M7.56969 109.129C7.56969 111.221 5.87778 112.914 3.78777 112.914C1.69776 112.914 0 111.221 0 109.129C0 107.036 1.69776 105.343 3.78777 105.343C5.87778 105.343 7.56969 107.036 7.56969 109.129Z" fill="#0A2783"/>
<path d="M244.308 141.118C244.308 143.21 242.616 144.91 240.526 144.91C238.436 144.91 236.744 143.21 236.744 141.118C236.744 139.026 238.436 137.332 240.526 137.332C242.616 137.332 244.308 139.026 244.308 141.118Z" fill="#0A2783"/>
<path d="M270.618 141.118C270.618 143.21 268.92 144.91 266.83 144.91C264.74 144.91 263.048 143.21 263.048 141.118C263.048 139.026 264.74 137.332 266.83 137.332C268.92 137.332 270.618 139.026 270.618 141.118Z" fill="#0A2783"/>
<path d="M296.921 141.118C296.921 143.21 295.224 144.91 293.134 144.91C291.044 144.91 289.352 143.21 289.352 141.118C289.352 139.026 291.044 137.332 293.134 137.332C295.224 137.332 296.921 139.026 296.921 141.118Z" fill="#0A2783"/>
<path d="M323.225 141.118C323.225 143.21 321.533 144.91 319.443 144.91C317.353 144.91 315.655 143.21 315.655 141.118C315.655 139.026 317.353 137.332 319.443 137.332C321.533 137.332 323.225 139.026 323.225 141.118Z" fill="#0A2783"/>
<path d="M349.529 141.118C349.529 143.21 347.837 144.91 345.747 144.91C343.657 144.91 341.959 143.21 341.959 141.118C341.959 139.026 343.657 137.332 345.747 137.332C347.837 137.332 349.529 139.026 349.529 141.118Z" fill="#0A2783"/>
<path d="M218.005 141.118C218.005 143.21 216.313 144.91 214.223 144.91C212.133 144.91 210.441 143.21 210.441 141.118C210.441 139.026 212.133 137.332 214.223 137.332C216.313 137.332 218.005 139.026 218.005 141.118Z" fill="#0A2783"/>
<path d="M191.701 141.118C191.701 143.21 190.009 144.91 187.919 144.91C185.829 144.91 184.131 143.21 184.131 141.118C184.131 139.026 185.829 137.332 187.919 137.332C190.009 137.332 191.701 139.026 191.701 141.118Z" fill="#0A2783"/>
<path d="M60.1769 141.118C60.1769 143.21 58.485 144.91 56.395 144.91C54.305 144.91 52.6131 143.21 52.6131 141.118C52.6131 139.026 54.305 137.332 56.395 137.332C58.485 137.332 60.1769 139.026 60.1769 141.118Z" fill="#0A2783"/>
<path d="M86.4806 141.118C86.4806 143.21 84.7887 144.91 82.6987 144.91C80.6087 144.91 78.9167 143.21 78.9167 141.118C78.9167 139.026 80.6087 137.332 82.6987 137.332C84.7887 137.332 86.4806 139.026 86.4806 141.118Z" fill="#0A2783"/>
<path d="M112.79 141.118C112.79 143.21 111.092 144.91 109.002 144.91C106.912 144.91 105.22 143.21 105.22 141.118C105.22 139.026 106.912 137.332 109.002 137.332C111.092 137.332 112.79 139.026 112.79 141.118Z" fill="#0A2783"/>
<path d="M139.094 141.118C139.094 143.21 137.396 144.91 135.306 144.91C133.222 144.91 131.524 143.21 131.524 141.118C131.524 139.026 133.222 137.332 135.306 137.332C137.396 137.332 139.094 139.026 139.094 141.118Z" fill="#0A2783"/>
<path d="M165.397 141.118C165.397 143.21 163.705 144.91 161.615 144.91C159.525 144.91 157.828 143.21 157.828 141.118C157.828 139.026 159.525 137.332 161.615 137.332C163.705 137.332 165.397 139.026 165.397 141.118Z" fill="#0A2783"/>
<path d="M33.8733 141.118C33.8733 143.21 32.1814 144.91 30.0914 144.91C28.0014 144.91 26.3095 143.21 26.3095 141.118C26.3095 139.026 28.0014 137.332 30.0914 137.332C32.1814 137.332 33.8733 139.026 33.8733 141.118Z" fill="#0A2783"/>
<path d="M7.56969 141.118C7.56969 143.21 5.87778 144.91 3.78777 144.91C1.69776 144.91 0 143.21 0 141.118C0 139.026 1.69776 137.332 3.78777 137.332C5.87778 137.332 7.56969 139.026 7.56969 141.118Z" fill="#0A2783"/>
</g>
<g opacity="0.1">
<path d="M692.308 3.79156C692.308 5.88365 690.616 7.57723 688.526 7.57723C686.436 7.57723 684.744 5.88365 684.744 3.79156C684.744 1.69947 686.436 0 688.526 0C690.616 0 692.308 1.69947 692.308 3.79156Z" fill="#0A2783"/>
<path d="M718.618 3.79156C718.618 5.88365 716.92 7.57723 714.83 7.57723C712.74 7.57723 711.048 5.88365 711.048 3.79156C711.048 1.69947 712.74 0 714.83 0C716.92 0 718.618 1.69947 718.618 3.79156Z" fill="#0A2783"/>
<path d="M744.921 3.79156C744.921 5.88365 743.224 7.57723 741.134 7.57723C739.044 7.57723 737.352 5.88365 737.352 3.79156C737.352 1.69947 739.044 0 741.134 0C743.224 0 744.921 1.69947 744.921 3.79156Z" fill="#0A2783"/>
<path d="M771.225 3.79156C771.225 5.88365 769.533 7.57723 767.443 7.57723C765.353 7.57723 763.655 5.88365 763.655 3.79156C763.655 1.69947 765.353 0 767.443 0C769.533 0 771.225 1.69947 771.225 3.79156Z" fill="#0A2783"/>
<path d="M797.529 3.79156C797.529 5.88365 795.837 7.57723 793.747 7.57723C791.657 7.57723 789.959 5.88365 789.959 3.79156C789.959 1.69947 791.657 0 793.747 0C795.837 0 797.529 1.69947 797.529 3.79156Z" fill="#0A2783"/>
<path d="M666.005 3.79156C666.005 5.88365 664.313 7.57723 662.223 7.57723C660.133 7.57723 658.441 5.88365 658.441 3.79156C658.441 1.69947 660.133 0 662.223 0C664.313 0 666.005 1.69947 666.005 3.79156Z" fill="#0A2783"/>
<path d="M639.701 3.79156C639.701 5.88365 638.009 7.57723 635.919 7.57723C633.829 7.57723 632.131 5.88365 632.131 3.79156C632.131 1.69947 633.829 0 635.919 0C638.009 0 639.701 1.69947 639.701 3.79156Z" fill="#0A2783"/>
<path d="M508.177 3.79156C508.177 5.88365 506.485 7.57723 504.395 7.57723C502.305 7.57723 500.613 5.88365 500.613 3.79156C500.613 1.69947 502.305 0 504.395 0C506.485 0 508.177 1.69947 508.177 3.79156Z" fill="#0A2783"/>
<path d="M534.481 3.79156C534.481 5.88365 532.789 7.57723 530.699 7.57723C528.609 7.57723 526.917 5.88365 526.917 3.79156C526.917 1.69947 528.609 0 530.699 0C532.789 0 534.481 1.69947 534.481 3.79156Z" fill="#0A2783"/>
<path d="M560.79 3.79156C560.79 5.88365 559.092 7.57723 557.002 7.57723C554.912 7.57723 553.22 5.88365 553.22 3.79156C553.22 1.69947 554.912 0 557.002 0C559.092 0 560.79 1.69947 560.79 3.79156Z" fill="#0A2783"/>
<path d="M587.094 3.79156C587.094 5.88365 585.396 7.57723 583.306 7.57723C581.222 7.57723 579.524 5.88365 579.524 3.79156C579.524 1.69947 581.222 0 583.306 0C585.396 0 587.094 1.69947 587.094 3.79156Z" fill="#0A2783"/>
<path d="M613.397 3.79156C613.397 5.88365 611.705 7.57723 609.615 7.57723C607.525 7.57723 605.828 5.88365 605.828 3.79156C605.828 1.69947 607.525 0 609.615 0C611.705 0 613.397 1.69947 613.397 3.79156Z" fill="#0A2783"/>
<path d="M481.873 3.79156C481.873 5.88365 480.181 7.57723 478.091 7.57723C476.001 7.57723 474.309 5.88365 474.309 3.79156C474.309 1.69947 476.001 0 478.091 0C480.181 0 481.873 1.69947 481.873 3.79156Z" fill="#0A2783"/>
<path d="M455.57 3.79156C455.57 5.88365 453.878 7.57723 451.788 7.57723C449.698 7.57723 448 5.88365 448 3.79156C448 1.69947 449.698 0 451.788 0C453.878 0 455.57 1.69947 455.57 3.79156Z" fill="#0A2783"/>
<path d="M692.308 38.9058C692.308 40.9921 690.616 42.6915 688.526 42.6915C686.436 42.6915 684.744 40.9921 684.744 38.9058C684.744 36.8137 686.436 35.1143 688.526 35.1143C690.616 35.1143 692.308 36.8137 692.308 38.9058Z" fill="#0A2783"/>
<path d="M718.618 38.9058C718.618 40.9921 716.92 42.6915 714.83 42.6915C712.74 42.6915 711.048 40.9921 711.048 38.9058C711.048 36.8137 712.74 35.1143 714.83 35.1143C716.92 35.1143 718.618 36.8137 718.618 38.9058Z" fill="#0A2783"/>
<path d="M744.921 38.9058C744.921 40.9921 743.224 42.6915 741.134 42.6915C739.044 42.6915 737.352 40.9921 737.352 38.9058C737.352 36.8137 739.044 35.1143 741.134 35.1143C743.224 35.1143 744.921 36.8137 744.921 38.9058Z" fill="#0A2783"/>
<path d="M771.225 38.9058C771.225 40.9921 769.533 42.6915 767.443 42.6915C765.353 42.6915 763.655 40.9921 763.655 38.9058C763.655 36.8137 765.353 35.1143 767.443 35.1143C769.533 35.1143 771.225 36.8137 771.225 38.9058Z" fill="#0A2783"/>
<path d="M797.529 38.9058C797.529 40.9921 795.837 42.6915 793.747 42.6915C791.657 42.6915 789.959 40.9921 789.959 38.9058C789.959 36.8137 791.657 35.1143 793.747 35.1143C795.837 35.1143 797.529 36.8137 797.529 38.9058Z" fill="#0A2783"/>
<path d="M666.005 38.9058C666.005 40.9921 664.313 42.6915 662.223 42.6915C660.133 42.6915 658.441 40.9921 658.441 38.9058C658.441 36.8137 660.133 35.1143 662.223 35.1143C664.313 35.1143 666.005 36.8137 666.005 38.9058Z" fill="#0A2783"/>
<path d="M639.701 38.9058C639.701 40.9921 638.009 42.6915 635.919 42.6915C633.829 42.6915 632.131 40.9921 632.131 38.9058C632.131 36.8137 633.829 35.1143 635.919 35.1143C638.009 35.1143 639.701 36.8137 639.701 38.9058Z" fill="#0A2783"/>
<path d="M508.177 38.9058C508.177 40.9921 506.485 42.6915 504.395 42.6915C502.305 42.6915 500.613 40.9921 500.613 38.9058C500.613 36.8137 502.305 35.1143 504.395 35.1143C506.485 35.1143 508.177 36.8137 508.177 38.9058Z" fill="#0A2783"/>
<path d="M534.481 38.9058C534.481 40.9921 532.789 42.6915 530.699 42.6915C528.609 42.6915 526.917 40.9921 526.917 38.9058C526.917 36.8137 528.609 35.1143 530.699 35.1143C532.789 35.1143 534.481 36.8137 534.481 38.9058Z" fill="#0A2783"/>
<path d="M560.79 38.9058C560.79 40.9921 559.092 42.6915 557.002 42.6915C554.912 42.6915 553.22 40.9921 553.22 38.9058C553.22 36.8137 554.912 35.1143 557.002 35.1143C559.092 35.1143 560.79 36.8137 560.79 38.9058Z" fill="#0A2783"/>
<path d="M587.094 38.9058C587.094 40.9921 585.396 42.6915 583.306 42.6915C581.222 42.6915 579.524 40.9921 579.524 38.9058C579.524 36.8137 581.222 35.1143 583.306 35.1143C585.396 35.1143 587.094 36.8137 587.094 38.9058Z" fill="#0A2783"/>
<path d="M613.397 38.9058C613.397 40.9921 611.705 42.6915 609.615 42.6915C607.525 42.6915 605.828 40.9921 605.828 38.9058C605.828 36.8137 607.525 35.1143 609.615 35.1143C611.705 35.1143 613.397 36.8137 613.397 38.9058Z" fill="#0A2783"/>
<path d="M481.873 38.9058C481.873 40.9921 480.181 42.6915 478.091 42.6915C476.001 42.6915 474.309 40.9921 474.309 38.9058C474.309 36.8137 476.001 35.1143 478.091 35.1143C480.181 35.1143 481.873 36.8137 481.873 38.9058Z" fill="#0A2783"/>
<path d="M455.57 38.9058C455.57 40.9921 453.878 42.6915 451.788 42.6915C449.698 42.6915 448 40.9921 448 38.9058C448 36.8137 449.698 35.1143 451.788 35.1143C453.878 35.1143 455.57 36.8137 455.57 38.9058Z" fill="#0A2783"/>
<path d="M692.308 74.0142C692.308 76.1063 690.616 77.8058 688.526 77.8058C686.436 77.8058 684.744 76.1063 684.744 74.0142C684.744 71.9221 686.436 70.2286 688.526 70.2286C690.616 70.2286 692.308 71.9221 692.308 74.0142Z" fill="#0A2783"/>
<path d="M718.618 74.0142C718.618 76.1063 716.92 77.8058 714.83 77.8058C712.74 77.8058 711.048 76.1063 711.048 74.0142C711.048 71.9221 712.74 70.2286 714.83 70.2286C716.92 70.2286 718.618 71.9221 718.618 74.0142Z" fill="#0A2783"/>
<path d="M744.921 74.0142C744.921 76.1063 743.224 77.8058 741.134 77.8058C739.044 77.8058 737.352 76.1063 737.352 74.0142C737.352 71.9221 739.044 70.2286 741.134 70.2286C743.224 70.2286 744.921 71.9221 744.921 74.0142Z" fill="#0A2783"/>
<path d="M771.225 74.0142C771.225 76.1063 769.533 77.8058 767.443 77.8058C765.353 77.8058 763.655 76.1063 763.655 74.0142C763.655 71.9221 765.353 70.2286 767.443 70.2286C769.533 70.2286 771.225 71.9221 771.225 74.0142Z" fill="#0A2783"/>
<path d="M797.529 74.0142C797.529 76.1063 795.837 77.8058 793.747 77.8058C791.657 77.8058 789.959 76.1063 789.959 74.0142C789.959 71.9221 791.657 70.2286 793.747 70.2286C795.837 70.2286 797.529 71.9221 797.529 74.0142Z" fill="#0A2783"/>
<path d="M666.005 74.0142C666.005 76.1063 664.313 77.8058 662.223 77.8058C660.133 77.8058 658.441 76.1063 658.441 74.0142C658.441 71.9221 660.133 70.2286 662.223 70.2286C664.313 70.2286 666.005 71.9221 666.005 74.0142Z" fill="#0A2783"/>
<path d="M639.701 74.0142C639.701 76.1063 638.009 77.8058 635.919 77.8058C633.829 77.8058 632.131 76.1063 632.131 74.0142C632.131 71.9221 633.829 70.2286 635.919 70.2286C638.009 70.2286 639.701 71.9221 639.701 74.0142Z" fill="#0A2783"/>
<path d="M508.177 74.0142C508.177 76.1063 506.485 77.8058 504.395 77.8058C502.305 77.8058 500.613 76.1063 500.613 74.0142C500.613 71.9221 502.305 70.2286 504.395 70.2286C506.485 70.2286 508.177 71.9221 508.177 74.0142Z" fill="#0A2783"/>
<path d="M534.481 74.0142C534.481 76.1063 532.789 77.8058 530.699 77.8058C528.609 77.8058 526.917 76.1063 526.917 74.0142C526.917 71.9221 528.609 70.2286 530.699 70.2286C532.789 70.2286 534.481 71.9221 534.481 74.0142Z" fill="#0A2783"/>
<path d="M560.79 74.0142C560.79 76.1063 559.092 77.8058 557.002 77.8058C554.912 77.8058 553.22 76.1063 553.22 74.0142C553.22 71.9221 554.912 70.2286 557.002 70.2286C559.092 70.2286 560.79 71.9221 560.79 74.0142Z" fill="#0A2783"/>
<path d="M587.094 74.0142C587.094 76.1063 585.396 77.8058 583.306 77.8058C581.222 77.8058 579.524 76.1063 579.524 74.0142C579.524 71.9221 581.222 70.2286 583.306 70.2286C585.396 70.2286 587.094 71.9221 587.094 74.0142Z" fill="#0A2783"/>
<path d="M613.397 74.0142C613.397 76.1063 611.705 77.8058 609.615 77.8058C607.525 77.8058 605.828 76.1063 605.828 74.0142C605.828 71.9221 607.525 70.2286 609.615 70.2286C611.705 70.2286 613.397 71.9221 613.397 74.0142Z" fill="#0A2783"/>
<path d="M481.873 74.0142C481.873 76.1063 480.181 77.8058 478.091 77.8058C476.001 77.8058 474.309 76.1063 474.309 74.0142C474.309 71.9221 476.001 70.2286 478.091 70.2286C480.181 70.2286 481.873 71.9221 481.873 74.0142Z" fill="#0A2783"/>
<path d="M455.57 74.0142C455.57 76.1063 453.878 77.8058 451.788 77.8058C449.698 77.8058 448 76.1063 448 74.0142C448 71.9221 449.698 70.2286 451.788 70.2286C453.878 70.2286 455.57 71.9221 455.57 74.0142Z" fill="#0A2783"/>
<path d="M692.308 109.129C692.308 111.221 690.616 112.914 688.526 112.914C686.436 112.914 684.744 111.221 684.744 109.129C684.744 107.036 686.436 105.343 688.526 105.343C690.616 105.343 692.308 107.036 692.308 109.129Z" fill="#0A2783"/>
<path d="M718.618 109.129C718.618 111.221 716.92 112.914 714.83 112.914C712.74 112.914 711.048 111.221 711.048 109.129C711.048 107.036 712.74 105.343 714.83 105.343C716.92 105.343 718.618 107.036 718.618 109.129Z" fill="#0A2783"/>
<path d="M744.921 109.129C744.921 111.221 743.224 112.914 741.134 112.914C739.044 112.914 737.352 111.221 737.352 109.129C737.352 107.036 739.044 105.343 741.134 105.343C743.224 105.343 744.921 107.036 744.921 109.129Z" fill="#0A2783"/>
<path d="M771.225 109.129C771.225 111.221 769.533 112.914 767.443 112.914C765.353 112.914 763.655 111.221 763.655 109.129C763.655 107.036 765.353 105.343 767.443 105.343C769.533 105.343 771.225 107.036 771.225 109.129Z" fill="#0A2783"/>
<path d="M797.529 109.129C797.529 111.221 795.837 112.914 793.747 112.914C791.657 112.914 789.959 111.221 789.959 109.129C789.959 107.036 791.657 105.343 793.747 105.343C795.837 105.343 797.529 107.036 797.529 109.129Z" fill="#0A2783"/>
<path d="M666.005 109.129C666.005 111.221 664.313 112.914 662.223 112.914C660.133 112.914 658.441 111.221 658.441 109.129C658.441 107.036 660.133 105.343 662.223 105.343C664.313 105.343 666.005 107.036 666.005 109.129Z" fill="#0A2783"/>
<path d="M639.701 109.129C639.701 111.221 638.009 112.914 635.919 112.914C633.829 112.914 632.131 111.221 632.131 109.129C632.131 107.036 633.829 105.343 635.919 105.343C638.009 105.343 639.701 107.036 639.701 109.129Z" fill="#0A2783"/>
<path d="M508.177 109.129C508.177 111.221 506.485 112.914 504.395 112.914C502.305 112.914 500.613 111.221 500.613 109.129C500.613 107.036 502.305 105.343 504.395 105.343C506.485 105.343 508.177 107.036 508.177 109.129Z" fill="#0A2783"/>
<path d="M534.481 109.129C534.481 111.221 532.789 112.914 530.699 112.914C528.609 112.914 526.917 111.221 526.917 109.129C526.917 107.036 528.609 105.343 530.699 105.343C532.789 105.343 534.481 107.036 534.481 109.129Z" fill="#0A2783"/>
<path d="M560.79 109.129C560.79 111.221 559.092 112.914 557.002 112.914C554.912 112.914 553.22 111.221 553.22 109.129C553.22 107.036 554.912 105.343 557.002 105.343C559.092 105.343 560.79 107.036 560.79 109.129Z" fill="#0A2783"/>
<path d="M587.094 109.129C587.094 111.221 585.396 112.914 583.306 112.914C581.222 112.914 579.524 111.221 579.524 109.129C579.524 107.036 581.222 105.343 583.306 105.343C585.396 105.343 587.094 107.036 587.094 109.129Z" fill="#0A2783"/>
<path d="M613.397 109.129C613.397 111.221 611.705 112.914 609.615 112.914C607.525 112.914 605.828 111.221 605.828 109.129C605.828 107.036 607.525 105.343 609.615 105.343C611.705 105.343 613.397 107.036 613.397 109.129Z" fill="#0A2783"/>
<path d="M481.873 109.129C481.873 111.221 480.181 112.914 478.091 112.914C476.001 112.914 474.309 111.221 474.309 109.129C474.309 107.036 476.001 105.343 478.091 105.343C480.181 105.343 481.873 107.036 481.873 109.129Z" fill="#0A2783"/>
<path d="M455.57 109.129C455.57 111.221 453.878 112.914 451.788 112.914C449.698 112.914 448 111.221 448 109.129C448 107.036 449.698 105.343 451.788 105.343C453.878 105.343 455.57 107.036 455.57 109.129Z" fill="#0A2783"/>
<path d="M692.308 141.118C692.308 143.21 690.616 144.91 688.526 144.91C686.436 144.91 684.744 143.21 684.744 141.118C684.744 139.026 686.436 137.332 688.526 137.332C690.616 137.332 692.308 139.026 692.308 141.118Z" fill="#0A2783"/>
<path d="M718.618 141.118C718.618 143.21 716.92 144.91 714.83 144.91C712.74 144.91 711.048 143.21 711.048 141.118C711.048 139.026 712.74 137.332 714.83 137.332C716.92 137.332 718.618 139.026 718.618 141.118Z" fill="#0A2783"/>
<path d="M744.921 141.118C744.921 143.21 743.224 144.91 741.134 144.91C739.044 144.91 737.352 143.21 737.352 141.118C737.352 139.026 739.044 137.332 741.134 137.332C743.224 137.332 744.921 139.026 744.921 141.118Z" fill="#0A2783"/>
<path d="M771.225 141.118C771.225 143.21 769.533 144.91 767.443 144.91C765.353 144.91 763.655 143.21 763.655 141.118C763.655 139.026 765.353 137.332 767.443 137.332C769.533 137.332 771.225 139.026 771.225 141.118Z" fill="#0A2783"/>
<path d="M797.529 141.118C797.529 143.21 795.837 144.91 793.747 144.91C791.657 144.91 789.959 143.21 789.959 141.118C789.959 139.026 791.657 137.332 793.747 137.332C795.837 137.332 797.529 139.026 797.529 141.118Z" fill="#0A2783"/>
<path d="M666.005 141.118C666.005 143.21 664.313 144.91 662.223 144.91C660.133 144.91 658.441 143.21 658.441 141.118C658.441 139.026 660.133 137.332 662.223 137.332C664.313 137.332 666.005 139.026 666.005 141.118Z" fill="#0A2783"/>
<path d="M639.701 141.118C639.701 143.21 638.009 144.91 635.919 144.91C633.829 144.91 632.131 143.21 632.131 141.118C632.131 139.026 633.829 137.332 635.919 137.332C638.009 137.332 639.701 139.026 639.701 141.118Z" fill="#0A2783"/>
<path d="M508.177 141.118C508.177 143.21 506.485 144.91 504.395 144.91C502.305 144.91 500.613 143.21 500.613 141.118C500.613 139.026 502.305 137.332 504.395 137.332C506.485 137.332 508.177 139.026 508.177 141.118Z" fill="#0A2783"/>
<path d="M534.481 141.118C534.481 143.21 532.789 144.91 530.699 144.91C528.609 144.91 526.917 143.21 526.917 141.118C526.917 139.026 528.609 137.332 530.699 137.332C532.789 137.332 534.481 139.026 534.481 141.118Z" fill="#0A2783"/>
<path d="M560.79 141.118C560.79 143.21 559.092 144.91 557.002 144.91C554.912 144.91 553.22 143.21 553.22 141.118C553.22 139.026 554.912 137.332 557.002 137.332C559.092 137.332 560.79 139.026 560.79 141.118Z" fill="#0A2783"/>
<path d="M587.094 141.118C587.094 143.21 585.396 144.91 583.306 144.91C581.222 144.91 579.524 143.21 579.524 141.118C579.524 139.026 581.222 137.332 583.306 137.332C585.396 137.332 587.094 139.026 587.094 141.118Z" fill="#0A2783"/>
<path d="M613.397 141.118C613.397 143.21 611.705 144.91 609.615 144.91C607.525 144.91 605.828 143.21 605.828 141.118C605.828 139.026 607.525 137.332 609.615 137.332C611.705 137.332 613.397 139.026 613.397 141.118Z" fill="#0A2783"/>
<path d="M481.873 141.118C481.873 143.21 480.181 144.91 478.091 144.91C476.001 144.91 474.309 143.21 474.309 141.118C474.309 139.026 476.001 137.332 478.091 137.332C480.181 137.332 481.873 139.026 481.873 141.118Z" fill="#0A2783"/>
<path d="M455.57 141.118C455.57 143.21 453.878 144.91 451.788 144.91C449.698 144.91 448 143.21 448 141.118C448 139.026 449.698 137.332 451.788 137.332C453.878 137.332 455.57 139.026 455.57 141.118Z" fill="#0A2783"/>
</g>
<path d="M431.177 3.79156C431.177 5.88365 429.485 7.57723 427.395 7.57723C425.305 7.57723 423.613 5.88365 423.613 3.79156C423.613 1.69947 425.305 0 427.395 0C429.485 0 431.177 1.69947 431.177 3.79156Z" fill="#0A2783"/>
<path d="M404.873 3.79156C404.873 5.88365 403.181 7.57723 401.091 7.57723C399.001 7.57723 397.309 5.88365 397.309 3.79156C397.309 1.69947 399.001 0 401.091 0C403.181 0 404.873 1.69947 404.873 3.79156Z" fill="#0A2783"/>
<path d="M378.57 3.79156C378.57 5.88365 376.878 7.57723 374.788 7.57723C372.698 7.57723 371 5.88365 371 3.79156C371 1.69947 372.698 0 374.788 0C376.878 0 378.57 1.69947 378.57 3.79156Z" fill="#0A2783"/>
<path d="M431.177 38.9058C431.177 40.9921 429.485 42.6915 427.395 42.6915C425.305 42.6915 423.613 40.9921 423.613 38.9058C423.613 36.8137 425.305 35.1143 427.395 35.1143C429.485 35.1143 431.177 36.8137 431.177 38.9058Z" fill="#0A2783"/>
<path d="M404.873 38.9058C404.873 40.9921 403.181 42.6915 401.091 42.6915C399.001 42.6915 397.309 40.9921 397.309 38.9058C397.309 36.8137 399.001 35.1143 401.091 35.1143C403.181 35.1143 404.873 36.8137 404.873 38.9058Z" fill="#0A2783"/>
<path d="M378.57 38.9058C378.57 40.9921 376.878 42.6915 374.788 42.6915C372.698 42.6915 371 40.9921 371 38.9058C371 36.8137 372.698 35.1143 374.788 35.1143C376.878 35.1143 378.57 36.8137 378.57 38.9058Z" fill="#0A2783"/>
<path d="M323.57 3.79156C323.57 5.88365 321.878 7.57723 319.788 7.57723C317.698 7.57723 316 5.88365 316 3.79156C316 1.69947 317.698 0 319.788 0C321.878 0 323.57 1.69947 323.57 3.79156Z" fill="#0A2783"/>
<path d="M349.873 3.79156C349.873 5.88365 348.181 7.57723 346.091 7.57723C344.001 7.57723 342.304 5.88365 342.304 3.79156C342.304 1.69947 344.001 0 346.091 0C348.181 0 349.873 1.69947 349.873 3.79156Z" fill="#0A2783"/>
<path d="M323.57 38.9058C323.57 40.9921 321.878 42.6915 319.788 42.6915C317.698 42.6915 316 40.9921 316 38.9058C316 36.8137 317.698 35.1143 319.788 35.1143C321.878 35.1143 323.57 36.8137 323.57 38.9058Z" fill="#0A2783"/>
<path d="M349.873 38.9058C349.873 40.9921 348.181 42.6915 346.091 42.6915C344.001 42.6915 342.304 40.9921 342.304 38.9058C342.304 36.8137 344.001 35.1143 346.091 35.1143C348.181 35.1143 349.873 36.8137 349.873 38.9058Z" fill="#0A2783"/>
<path d="M431.177 74.0688C431.177 76.1551 429.485 77.8545 427.395 77.8545C425.305 77.8545 423.613 76.1551 423.613 74.0688C423.613 71.9768 425.305 70.2773 427.395 70.2773C429.485 70.2773 431.177 71.9768 431.177 74.0688Z" fill="#0A2783"/>
<path d="M404.873 74.0688C404.873 76.1551 403.181 77.8545 401.091 77.8545C399.001 77.8545 397.309 76.1551 397.309 74.0688C397.309 71.9768 399.001 70.2773 401.091 70.2773C403.181 70.2773 404.873 71.9768 404.873 74.0688Z" fill="#0A2783"/>
<path d="M378.57 74.0688C378.57 76.1551 376.878 77.8545 374.788 77.8545C372.698 77.8545 371 76.1551 371 74.0688C371 71.9768 372.698 70.2773 374.788 70.2773C376.878 70.2773 378.57 71.9768 378.57 74.0688Z" fill="#0A2783"/>
<path d="M323.57 74.0688C323.57 76.1551 321.878 77.8545 319.788 77.8545C317.698 77.8545 316 76.1551 316 74.0688C316 71.9768 317.698 70.2773 319.788 70.2773C321.878 70.2773 323.57 71.9768 323.57 74.0688Z" fill="#0A2783"/>
<path d="M349.873 74.0688C349.873 76.1551 348.181 77.8545 346.091 77.8545C344.001 77.8545 342.304 76.1551 342.304 74.0688C342.304 71.9768 344.001 70.2773 346.091 70.2773C348.181 70.2773 349.873 71.9768 349.873 74.0688Z" fill="#0A2783"/>
<path d="M431.177 109.069C431.177 111.155 429.485 112.855 427.395 112.855C425.305 112.855 423.613 111.155 423.613 109.069C423.613 106.977 425.305 105.277 427.395 105.277C429.485 105.277 431.177 106.977 431.177 109.069Z" fill="#0A2783"/>
<path d="M404.873 109.069C404.873 111.155 403.181 112.855 401.091 112.855C399.001 112.855 397.309 111.155 397.309 109.069C397.309 106.977 399.001 105.277 401.091 105.277C403.181 105.277 404.873 106.977 404.873 109.069Z" fill="#0A2783"/>
<path d="M378.57 109.069C378.57 111.155 376.878 112.855 374.788 112.855C372.698 112.855 371 111.155 371 109.069C371 106.977 372.698 105.277 374.788 105.277C376.878 105.277 378.57 106.977 378.57 109.069Z" fill="#0A2783"/>
<path d="M323.57 109.069C323.57 111.155 321.878 112.855 319.788 112.855C317.698 112.855 316 111.155 316 109.069C316 106.977 317.698 105.277 319.788 105.277C321.878 105.277 323.57 106.977 323.57 109.069Z" fill="#0A2783"/>
<path d="M349.873 109.069C349.873 111.155 348.181 112.855 346.091 112.855C344.001 112.855 342.304 111.155 342.304 109.069C342.304 106.977 344.001 105.277 346.091 105.277C348.181 105.277 349.873 106.977 349.873 109.069Z" fill="#0A2783"/>
<path d="M431.177 141.069C431.177 143.155 429.485 144.855 427.395 144.855C425.305 144.855 423.613 143.155 423.613 141.069C423.613 138.977 425.305 137.277 427.395 137.277C429.485 137.277 431.177 138.977 431.177 141.069Z" fill="#0A2783"/>
<path d="M404.873 141.069C404.873 143.155 403.181 144.855 401.091 144.855C399.001 144.855 397.309 143.155 397.309 141.069C397.309 138.977 399.001 137.277 401.091 137.277C403.181 137.277 404.873 138.977 404.873 141.069Z" fill="#0A2783"/>
<path d="M378.57 141.069C378.57 143.155 376.878 144.855 374.788 144.855C372.698 144.855 371 143.155 371 141.069C371 138.977 372.698 137.277 374.788 137.277C376.878 137.277 378.57 138.977 378.57 141.069Z" fill="#0A2783"/>
<path d="M323.57 141.069C323.57 143.155 321.878 144.855 319.788 144.855C317.698 144.855 316 143.155 316 141.069C316 138.977 317.698 137.277 319.788 137.277C321.878 137.277 323.57 138.977 323.57 141.069Z" fill="#0A2783"/>
<path d="M349.873 141.069C349.873 143.155 348.181 144.855 346.091 144.855C344.001 144.855 342.304 143.155 342.304 141.069C342.304 138.977 344.001 137.277 346.091 137.277C348.181 137.277 349.873 138.977 349.873 141.069Z" fill="#0A2783"/>
</svg>
