<svg width="326" height="78" viewBox="0 0 326 78" fill="none" xmlns="http://www.w3.org/2000/svg">
<g opacity="0.1">
<path d="M325.428 3.78568C325.428 5.87777 323.736 7.57137 321.646 7.57137C319.556 7.57137 317.864 5.87777 317.864 3.78568C317.864 1.69359 319.556 0 321.646 0C323.736 0 325.428 1.69359 325.428 3.78568Z" fill="#0A2783"/>
<path d="M299.124 3.78568C299.124 5.87777 297.432 7.57137 295.342 7.57137C293.252 7.57137 291.561 5.87777 291.561 3.78568C291.561 1.69359 293.252 0 295.342 0C297.432 0 299.124 1.69359 299.124 3.78568Z" fill="#0A2783"/>
<path d="M272.821 3.78568C272.821 5.87777 271.129 7.57137 269.039 7.57137C266.949 7.57137 265.251 5.87777 265.251 3.78568C265.251 1.69359 266.949 0 269.039 0C271.129 0 272.821 1.69359 272.821 3.78568Z" fill="#0A2783"/>
<path d="M325.428 38.9C325.428 40.9921 323.736 42.6856 321.646 42.6856C319.556 42.6856 317.864 40.9921 317.864 38.9C317.864 36.8079 319.556 35.1084 321.646 35.1084C323.736 35.1084 325.428 36.8079 325.428 38.9Z" fill="#0A2783"/>
<path d="M299.124 38.9C299.124 40.9921 297.432 42.6856 295.342 42.6856C293.252 42.6856 291.561 40.9921 291.561 38.9C291.561 36.8079 293.252 35.1084 295.342 35.1084C297.432 35.1084 299.124 36.8079 299.124 38.9Z" fill="#0A2783"/>
<path d="M272.821 38.9C272.821 40.9921 271.129 42.6856 269.039 42.6856C266.949 42.6856 265.251 40.9921 265.251 38.9C265.251 36.8079 266.949 35.1084 269.039 35.1084C271.129 35.1084 272.821 36.8079 272.821 38.9Z" fill="#0A2783"/>
<path d="M325.428 74.0142C325.428 76.1005 323.736 77.7999 321.646 77.7999C319.556 77.7999 317.864 76.1005 317.864 74.0142C317.864 71.9221 319.556 70.2227 321.646 70.2227C323.736 70.2227 325.428 71.9221 325.428 74.0142Z" fill="#0A2783"/>
<path d="M299.124 74.0142C299.124 76.1005 297.432 77.7999 295.342 77.7999C293.252 77.7999 291.561 76.1005 291.561 74.0142C291.561 71.9221 293.252 70.2227 295.342 70.2227C297.432 70.2227 299.124 71.9221 299.124 74.0142Z" fill="#0A2783"/>
<path d="M272.821 74.0142C272.821 76.1005 271.129 77.7999 269.039 77.7999C266.949 77.7999 265.251 76.1005 265.251 74.0142C265.251 71.9221 266.949 70.2227 269.039 70.2227C271.129 70.2227 272.821 71.9221 272.821 74.0142Z" fill="#0A2783"/>
<path d="M139.088 3.78568C139.088 5.87777 137.396 7.57137 135.306 7.57137C133.216 7.57137 131.524 5.87777 131.524 3.78568C131.524 1.69359 133.216 0 135.306 0C137.396 0 139.088 1.69359 139.088 3.78568Z" fill="#0A2783"/>
<path d="M165.397 3.78568C165.397 5.87777 163.7 7.57137 161.61 7.57137C159.52 7.57137 157.828 5.87777 157.828 3.78568C157.828 1.69359 159.52 0 161.61 0C163.7 0 165.397 1.69359 165.397 3.78568Z" fill="#0A2783"/>
<path d="M191.701 3.78568C191.701 5.87777 190.003 7.57137 187.913 7.57137C185.823 7.57137 184.131 5.87777 184.131 3.78568C184.131 1.69359 185.823 0 187.913 0C190.003 0 191.701 1.69359 191.701 3.78568Z" fill="#0A2783"/>
<path d="M218.005 3.78568C218.005 5.87777 216.313 7.57137 214.223 7.57137C212.133 7.57137 210.435 5.87777 210.435 3.78568C210.435 1.69359 212.133 0 214.223 0C216.313 0 218.005 1.69359 218.005 3.78568Z" fill="#0A2783"/>
<path d="M244.308 3.78568C244.308 5.87777 242.616 7.57137 240.526 7.57137C238.436 7.57137 236.738 5.87777 236.738 3.78568C236.738 1.69359 238.436 0 240.526 0C242.616 0 244.308 1.69359 244.308 3.78568Z" fill="#0A2783"/>
<path d="M112.784 3.78568C112.784 5.87777 111.092 7.57137 109.002 7.57137C106.912 7.57137 105.22 5.87777 105.22 3.78568C105.22 1.69359 106.912 0 109.002 0C111.092 0 112.784 1.69359 112.784 3.78568Z" fill="#0A2783"/>
<path d="M86.4806 3.78568C86.4806 5.87777 84.7887 7.57137 82.6987 7.57137C80.6087 7.57137 78.9109 5.87777 78.9109 3.78568C78.9109 1.69359 80.6087 0 82.6987 0C84.7887 0 86.4806 1.69359 86.4806 3.78568Z" fill="#0A2783"/>
<path d="M7.56969 3.78568C7.56969 5.87777 5.87193 7.57137 3.78192 7.57137C1.69192 7.57137 0 5.87777 0 3.78568C0 1.69359 1.69192 0 3.78192 0C5.87193 0 7.56969 1.69359 7.56969 3.78568Z" fill="#0A2783"/>
<path d="M33.8733 3.78568C33.8733 5.87777 32.1756 7.57137 30.0856 7.57137C28.0014 7.57137 26.3036 5.87777 26.3036 3.78568C26.3036 1.69359 28.0014 0 30.0856 0C32.1756 0 33.8733 1.69359 33.8733 3.78568Z" fill="#0A2783"/>
<path d="M60.1769 3.78568C60.1769 5.87777 58.485 7.57137 56.395 7.57137C54.305 7.57137 52.6073 5.87777 52.6073 3.78568C52.6073 1.69359 54.305 0 56.395 0C58.485 0 60.1769 1.69359 60.1769 3.78568Z" fill="#0A2783"/>
<path d="M139.088 38.9C139.088 40.9921 137.396 42.6856 135.306 42.6856C133.216 42.6856 131.524 40.9921 131.524 38.9C131.524 36.8079 133.216 35.1084 135.306 35.1084C137.396 35.1084 139.088 36.8079 139.088 38.9Z" fill="#0A2783"/>
<path d="M165.397 38.9C165.397 40.9921 163.7 42.6856 161.61 42.6856C159.52 42.6856 157.828 40.9921 157.828 38.9C157.828 36.8079 159.52 35.1084 161.61 35.1084C163.7 35.1084 165.397 36.8079 165.397 38.9Z" fill="#0A2783"/>
<path d="M191.701 38.9C191.701 40.9921 190.003 42.6856 187.913 42.6856C185.823 42.6856 184.131 40.9921 184.131 38.9C184.131 36.8079 185.823 35.1084 187.913 35.1084C190.003 35.1084 191.701 36.8079 191.701 38.9Z" fill="#0A2783"/>
<path d="M218.005 38.9C218.005 40.9921 216.313 42.6856 214.223 42.6856C212.133 42.6856 210.435 40.9921 210.435 38.9C210.435 36.8079 212.133 35.1084 214.223 35.1084C216.313 35.1084 218.005 36.8079 218.005 38.9Z" fill="#0A2783"/>
<path d="M244.308 38.9C244.308 40.9921 242.616 42.6856 240.526 42.6856C238.436 42.6856 236.738 40.9921 236.738 38.9C236.738 36.8079 238.436 35.1084 240.526 35.1084C242.616 35.1084 244.308 36.8079 244.308 38.9Z" fill="#0A2783"/>
<path d="M112.784 38.9C112.784 40.9921 111.092 42.6856 109.002 42.6856C106.912 42.6856 105.22 40.9921 105.22 38.9C105.22 36.8079 106.912 35.1084 109.002 35.1084C111.092 35.1084 112.784 36.8079 112.784 38.9Z" fill="#0A2783"/>
<path d="M86.4806 38.9C86.4806 40.9921 84.7887 42.6856 82.6987 42.6856C80.6087 42.6856 78.9109 40.9921 78.9109 38.9C78.9109 36.8079 80.6087 35.1084 82.6987 35.1084C84.7887 35.1084 86.4806 36.8079 86.4806 38.9Z" fill="#0A2783"/>
<path d="M7.56969 38.9C7.56969 40.9921 5.87193 42.6856 3.78192 42.6856C1.69192 42.6856 0 40.9921 0 38.9C0 36.8079 1.69192 35.1084 3.78192 35.1084C5.87193 35.1084 7.56969 36.8079 7.56969 38.9Z" fill="#0A2783"/>
<path d="M33.8733 38.9C33.8733 40.9921 32.1756 42.6856 30.0856 42.6856C28.0014 42.6856 26.3036 40.9921 26.3036 38.9C26.3036 36.8079 28.0014 35.1084 30.0856 35.1084C32.1756 35.1084 33.8733 36.8079 33.8733 38.9Z" fill="#0A2783"/>
<path d="M60.1769 38.9C60.1769 40.9921 58.485 42.6856 56.395 42.6856C54.305 42.6856 52.6073 40.9921 52.6073 38.9C52.6073 36.8079 54.305 35.1084 56.395 35.1084C58.485 35.1084 60.1769 36.8079 60.1769 38.9Z" fill="#0A2783"/>
<path d="M139.088 74.0142C139.088 76.1005 137.396 77.7999 135.306 77.7999C133.216 77.7999 131.524 76.1005 131.524 74.0142C131.524 71.9221 133.216 70.2227 135.306 70.2227C137.396 70.2227 139.088 71.9221 139.088 74.0142Z" fill="#0A2783"/>
<path d="M165.397 74.0142C165.397 76.1005 163.7 77.7999 161.61 77.7999C159.52 77.7999 157.828 76.1005 157.828 74.0142C157.828 71.9221 159.52 70.2227 161.61 70.2227C163.7 70.2227 165.397 71.9221 165.397 74.0142Z" fill="#0A2783"/>
<path d="M191.701 74.0142C191.701 76.1005 190.003 77.7999 187.913 77.7999C185.823 77.7999 184.131 76.1005 184.131 74.0142C184.131 71.9221 185.823 70.2227 187.913 70.2227C190.003 70.2227 191.701 71.9221 191.701 74.0142Z" fill="#0A2783"/>
<path d="M218.005 74.0142C218.005 76.1005 216.313 77.7999 214.223 77.7999C212.133 77.7999 210.435 76.1005 210.435 74.0142C210.435 71.9221 212.133 70.2227 214.223 70.2227C216.313 70.2227 218.005 71.9221 218.005 74.0142Z" fill="#0A2783"/>
<path d="M244.308 74.0142C244.308 76.1005 242.616 77.7999 240.526 77.7999C238.436 77.7999 236.738 76.1005 236.738 74.0142C236.738 71.9221 238.436 70.2227 240.526 70.2227C242.616 70.2227 244.308 71.9221 244.308 74.0142Z" fill="#0A2783"/>
<path d="M112.784 74.0142C112.784 76.1005 111.092 77.7999 109.002 77.7999C106.912 77.7999 105.22 76.1005 105.22 74.0142C105.22 71.9221 106.912 70.2227 109.002 70.2227C111.092 70.2227 112.784 71.9221 112.784 74.0142Z" fill="#0A2783"/>
<path d="M86.4806 74.0142C86.4806 76.1005 84.7887 77.7999 82.6987 77.7999C80.6087 77.7999 78.9109 76.1005 78.9109 74.0142C78.9109 71.9221 80.6087 70.2227 82.6987 70.2227C84.7887 70.2227 86.4806 71.9221 86.4806 74.0142Z" fill="#0A2783"/>
<path d="M7.56969 74.0142C7.56969 76.1005 5.87193 77.7999 3.78192 77.7999C1.69192 77.7999 0 76.1005 0 74.0142C0 71.9221 1.69192 70.2227 3.78192 70.2227C5.87193 70.2227 7.56969 71.9221 7.56969 74.0142Z" fill="#0A2783"/>
<path d="M33.8733 74.0142C33.8733 76.1005 32.1756 77.7999 30.0856 77.7999C28.0014 77.7999 26.3036 76.1005 26.3036 74.0142C26.3036 71.9221 28.0014 70.2227 30.0856 70.2227C32.1756 70.2227 33.8733 71.9221 33.8733 74.0142Z" fill="#0A2783"/>
<path d="M60.1769 74.0142C60.1769 76.1005 58.485 77.7999 56.395 77.7999C54.305 77.7999 52.6073 76.1005 52.6073 74.0142C52.6073 71.9221 54.305 70.2227 56.395 70.2227C58.485 70.2227 60.1769 71.9221 60.1769 74.0142Z" fill="#0A2783"/>
</g>
</svg>
