<svg width="645" height="110" viewBox="0 0 645 110" fill="none" xmlns="http://www.w3.org/2000/svg">
<g opacity="0.1">
<path d="M196.648 3.79154C196.648 5.87777 194.956 7.57722 192.866 7.57722C190.776 7.57722 189.085 5.87777 189.085 3.79154C189.085 1.69945 190.776 0 192.866 0C194.956 0 196.648 1.69945 196.648 3.79154Z" fill="#0A2783"/>
<path d="M170.345 3.79154C170.345 5.87777 168.653 7.57722 166.563 7.57722C164.473 7.57722 162.781 5.87777 162.781 3.79154C162.781 1.69945 164.473 0 166.563 0C168.653 0 170.345 1.69945 170.345 3.79154Z" fill="#0A2783"/>
<path d="M144.041 3.79154C144.041 5.87777 142.349 7.57722 140.259 7.57722C138.169 7.57722 136.471 5.87777 136.471 3.79154C136.471 1.69945 138.169 0 140.259 0C142.349 0 144.041 1.69945 144.041 3.79154Z" fill="#0A2783"/>
<path d="M196.648 38.8999C196.648 40.992 194.956 42.6915 192.866 42.6915C190.776 42.6915 189.085 40.992 189.085 38.8999C189.085 36.8079 190.776 35.1143 192.866 35.1143C194.956 35.1143 196.648 36.8079 196.648 38.8999Z" fill="#0A2783"/>
<path d="M170.345 38.8999C170.345 40.992 168.653 42.6915 166.563 42.6915C164.473 42.6915 162.781 40.992 162.781 38.8999C162.781 36.8079 164.473 35.1143 166.563 35.1143C168.653 35.1143 170.345 36.8079 170.345 38.8999Z" fill="#0A2783"/>
<path d="M144.041 38.8999C144.041 40.992 142.349 42.6915 140.259 42.6915C138.169 42.6915 136.471 40.992 136.471 38.8999C136.471 36.8079 138.169 35.1143 140.259 35.1143C142.349 35.1143 144.041 36.8079 144.041 38.8999Z" fill="#0A2783"/>
<path d="M196.648 74.0142C196.648 76.1063 194.956 77.7999 192.866 77.7999C190.776 77.7999 189.085 76.1063 189.085 74.0142C189.085 71.9221 190.776 70.2285 192.866 70.2285C194.956 70.2285 196.648 71.9221 196.648 74.0142Z" fill="#0A2783"/>
<path d="M170.345 74.0142C170.345 76.1063 168.653 77.7999 166.563 77.7999C164.473 77.7999 162.781 76.1063 162.781 74.0142C162.781 71.9221 164.473 70.2285 166.563 70.2285C168.653 70.2285 170.345 71.9221 170.345 74.0142Z" fill="#0A2783"/>
<path d="M144.041 74.0142C144.041 76.1063 142.349 77.7999 140.259 77.7999C138.169 77.7999 136.471 76.1063 136.471 74.0142C136.471 71.9221 138.169 70.2285 140.259 70.2285C142.349 70.2285 144.041 71.9221 144.041 74.0142Z" fill="#0A2783"/>
<path d="M196.648 106.004C196.648 108.096 194.956 109.795 192.866 109.795C190.776 109.795 189.085 108.096 189.085 106.004C189.085 103.912 190.776 102.218 192.866 102.218C194.956 102.218 196.648 103.912 196.648 106.004Z" fill="#0A2783"/>
<path d="M170.345 106.004C170.345 108.096 168.653 109.795 166.563 109.795C164.473 109.795 162.781 108.096 162.781 106.004C162.781 103.912 164.473 102.218 166.563 102.218C168.653 102.218 170.345 103.912 170.345 106.004Z" fill="#0A2783"/>
<path d="M144.041 106.004C144.041 108.096 142.349 109.795 140.259 109.795C138.169 109.795 136.471 108.096 136.471 106.004C136.471 103.912 138.169 102.218 140.259 102.218C142.349 102.218 144.041 103.912 144.041 106.004Z" fill="#0A2783"/>
<path d="M10.3082 3.79154C10.3082 5.87777 8.61632 7.57722 6.52631 7.57722C4.43629 7.57722 2.74438 5.87777 2.74438 3.79154C2.74438 1.69945 4.43629 0 6.52631 0C8.61632 0 10.3082 1.69945 10.3082 3.79154Z" fill="#0A2783"/>
<path d="M36.6177 3.79154C36.6177 5.87777 34.9199 7.57722 32.8299 7.57722C30.7399 7.57722 29.048 5.87777 29.048 3.79154C29.048 1.69945 30.7399 0 32.8299 0C34.9199 0 36.6177 1.69945 36.6177 3.79154Z" fill="#0A2783"/>
<path d="M62.9213 3.79154C62.9213 5.87777 61.2236 7.57722 59.1336 7.57722C57.0436 7.57722 55.3517 5.87777 55.3517 3.79154C55.3517 1.69945 57.0436 0 59.1336 0C61.2236 0 62.9213 1.69945 62.9213 3.79154Z" fill="#0A2783"/>
<path d="M89.2249 3.79154C89.2249 5.87777 87.5331 7.57722 85.4431 7.57722C83.3531 7.57722 81.6553 5.87777 81.6553 3.79154C81.6553 1.69945 83.3531 0 85.4431 0C87.5331 0 89.2249 1.69945 89.2249 3.79154Z" fill="#0A2783"/>
<path d="M115.529 3.79154C115.529 5.87777 113.837 7.57722 111.747 7.57722C109.657 7.57722 107.959 5.87777 107.959 3.79154C107.959 1.69945 109.657 0 111.747 0C113.837 0 115.529 1.69945 115.529 3.79154Z" fill="#0A2783"/>
<path d="M-15.9954 3.79154C-15.9954 5.87777 -17.6873 7.57722 -19.7773 7.57722C-21.8674 7.57722 -23.5593 5.87777 -23.5593 3.79154C-23.5593 1.69945 -21.8674 0 -19.7773 0C-17.6873 0 -15.9954 1.69945 -15.9954 3.79154Z" fill="#0A2783"/>
<path d="M-42.299 3.79154C-42.299 5.87777 -43.991 7.57722 -46.081 7.57722C-48.171 7.57722 -49.8687 5.87777 -49.8687 3.79154C-49.8687 1.69945 -48.171 0 -46.081 0C-43.991 0 -42.299 1.69945 -42.299 3.79154Z" fill="#0A2783"/>
<path d="M-173.823 3.79154C-173.823 5.87777 -175.515 7.57722 -177.605 7.57722C-179.695 7.57722 -181.387 5.87777 -181.387 3.79154C-181.387 1.69945 -179.695 0 -177.605 0C-175.515 0 -173.823 1.69945 -173.823 3.79154Z" fill="#0A2783"/>
<path d="M-147.519 3.79154C-147.519 5.87777 -149.211 7.57722 -151.301 7.57722C-153.391 7.57722 -155.083 5.87777 -155.083 3.79154C-155.083 1.69945 -153.391 0 -151.301 0C-149.211 0 -147.519 1.69945 -147.519 3.79154Z" fill="#0A2783"/>
<path d="M-121.21 3.79154C-121.21 5.87777 -122.908 7.57722 -124.998 7.57722C-127.088 7.57722 -128.78 5.87777 -128.78 3.79154C-128.78 1.69945 -127.088 0 -124.998 0C-122.908 0 -121.21 1.69945 -121.21 3.79154Z" fill="#0A2783"/>
<path d="M-94.9063 3.79154C-94.9063 5.87777 -96.6041 7.57722 -98.6941 7.57722C-100.778 7.57722 -102.476 5.87777 -102.476 3.79154C-102.476 1.69945 -100.778 0 -98.6941 0C-96.6041 0 -94.9063 1.69945 -94.9063 3.79154Z" fill="#0A2783"/>
<path d="M-68.6027 3.79154C-68.6027 5.87777 -70.2946 7.57722 -72.3846 7.57722C-74.4746 7.57722 -76.1724 5.87777 -76.1724 3.79154C-76.1724 1.69945 -74.4746 0 -72.3846 0C-70.2946 0 -68.6027 1.69945 -68.6027 3.79154Z" fill="#0A2783"/>
<path d="M-200.127 3.79154C-200.127 5.87777 -201.819 7.57722 -203.909 7.57722C-205.999 7.57722 -207.691 5.87777 -207.691 3.79154C-207.691 1.69945 -205.999 0 -203.909 0C-201.819 0 -200.127 1.69945 -200.127 3.79154Z" fill="#0A2783"/>
<path d="M-226.43 3.79154C-226.43 5.87777 -228.122 7.57722 -230.212 7.57722C-232.302 7.57722 -234 5.87777 -234 3.79154C-234 1.69945 -232.302 0 -230.212 0C-228.122 0 -226.43 1.69945 -226.43 3.79154Z" fill="#0A2783"/>
<path d="M10.3082 38.8999C10.3082 40.992 8.61632 42.6915 6.52631 42.6915C4.43629 42.6915 2.74438 40.992 2.74438 38.8999C2.74438 36.8079 4.43629 35.1143 6.52631 35.1143C8.61632 35.1143 10.3082 36.8079 10.3082 38.8999Z" fill="#0A2783"/>
<path d="M36.6177 38.8999C36.6177 40.992 34.9199 42.6915 32.8299 42.6915C30.7399 42.6915 29.048 40.992 29.048 38.8999C29.048 36.8079 30.7399 35.1143 32.8299 35.1143C34.9199 35.1143 36.6177 36.8079 36.6177 38.8999Z" fill="#0A2783"/>
<path d="M62.9213 38.8999C62.9213 40.992 61.2236 42.6915 59.1336 42.6915C57.0436 42.6915 55.3517 40.992 55.3517 38.8999C55.3517 36.8079 57.0436 35.1143 59.1336 35.1143C61.2236 35.1143 62.9213 36.8079 62.9213 38.8999Z" fill="#0A2783"/>
<path d="M89.2249 38.8999C89.2249 40.992 87.5331 42.6915 85.4431 42.6915C83.3531 42.6915 81.6553 40.992 81.6553 38.8999C81.6553 36.8079 83.3531 35.1143 85.4431 35.1143C87.5331 35.1143 89.2249 36.8079 89.2249 38.8999Z" fill="#0A2783"/>
<path d="M115.529 38.8999C115.529 40.992 113.837 42.6915 111.747 42.6915C109.657 42.6915 107.959 40.992 107.959 38.8999C107.959 36.8079 109.657 35.1143 111.747 35.1143C113.837 35.1143 115.529 36.8079 115.529 38.8999Z" fill="#0A2783"/>
<path d="M-15.9954 38.8999C-15.9954 40.992 -17.6873 42.6915 -19.7773 42.6915C-21.8674 42.6915 -23.5593 40.992 -23.5593 38.8999C-23.5593 36.8079 -21.8674 35.1143 -19.7773 35.1143C-17.6873 35.1143 -15.9954 36.8079 -15.9954 38.8999Z" fill="#0A2783"/>
<path d="M-42.299 38.8999C-42.299 40.992 -43.991 42.6915 -46.081 42.6915C-48.171 42.6915 -49.8687 40.992 -49.8687 38.8999C-49.8687 36.8079 -48.171 35.1143 -46.081 35.1143C-43.991 35.1143 -42.299 36.8079 -42.299 38.8999Z" fill="#0A2783"/>
<path d="M-173.823 38.8999C-173.823 40.992 -175.515 42.6915 -177.605 42.6915C-179.695 42.6915 -181.387 40.992 -181.387 38.8999C-181.387 36.8079 -179.695 35.1143 -177.605 35.1143C-175.515 35.1143 -173.823 36.8079 -173.823 38.8999Z" fill="#0A2783"/>
<path d="M-147.519 38.8999C-147.519 40.992 -149.211 42.6915 -151.301 42.6915C-153.391 42.6915 -155.083 40.992 -155.083 38.8999C-155.083 36.8079 -153.391 35.1143 -151.301 35.1143C-149.211 35.1143 -147.519 36.8079 -147.519 38.8999Z" fill="#0A2783"/>
<path d="M-121.21 38.8999C-121.21 40.992 -122.908 42.6915 -124.998 42.6915C-127.088 42.6915 -128.78 40.992 -128.78 38.8999C-128.78 36.8079 -127.088 35.1143 -124.998 35.1143C-122.908 35.1143 -121.21 36.8079 -121.21 38.8999Z" fill="#0A2783"/>
<path d="M-94.9063 38.8999C-94.9063 40.992 -96.6041 42.6915 -98.6941 42.6915C-100.778 42.6915 -102.476 40.992 -102.476 38.8999C-102.476 36.8079 -100.778 35.1143 -98.6941 35.1143C-96.6041 35.1143 -94.9063 36.8079 -94.9063 38.8999Z" fill="#0A2783"/>
<path d="M-68.6027 38.8999C-68.6027 40.992 -70.2946 42.6915 -72.3846 42.6915C-74.4746 42.6915 -76.1724 40.992 -76.1724 38.8999C-76.1724 36.8079 -74.4746 35.1143 -72.3846 35.1143C-70.2946 35.1143 -68.6027 36.8079 -68.6027 38.8999Z" fill="#0A2783"/>
<path d="M-200.127 38.8999C-200.127 40.992 -201.819 42.6915 -203.909 42.6915C-205.999 42.6915 -207.691 40.992 -207.691 38.8999C-207.691 36.8079 -205.999 35.1143 -203.909 35.1143C-201.819 35.1143 -200.127 36.8079 -200.127 38.8999Z" fill="#0A2783"/>
<path d="M-226.43 38.8999C-226.43 40.992 -228.122 42.6915 -230.212 42.6915C-232.302 42.6915 -234 40.992 -234 38.8999C-234 36.8079 -232.302 35.1143 -230.212 35.1143C-228.122 35.1143 -226.43 36.8079 -226.43 38.8999Z" fill="#0A2783"/>
<path d="M10.3082 74.0142C10.3082 76.1063 8.61632 77.7999 6.52631 77.7999C4.43629 77.7999 2.74438 76.1063 2.74438 74.0142C2.74438 71.9221 4.43629 70.2285 6.52631 70.2285C8.61632 70.2285 10.3082 71.9221 10.3082 74.0142Z" fill="#0A2783"/>
<path d="M36.6177 74.0142C36.6177 76.1063 34.9199 77.7999 32.8299 77.7999C30.7399 77.7999 29.048 76.1063 29.048 74.0142C29.048 71.9221 30.7399 70.2285 32.8299 70.2285C34.9199 70.2285 36.6177 71.9221 36.6177 74.0142Z" fill="#0A2783"/>
<path d="M62.9213 74.0142C62.9213 76.1063 61.2236 77.7999 59.1336 77.7999C57.0436 77.7999 55.3517 76.1063 55.3517 74.0142C55.3517 71.9221 57.0436 70.2285 59.1336 70.2285C61.2236 70.2285 62.9213 71.9221 62.9213 74.0142Z" fill="#0A2783"/>
<path d="M89.2249 74.0142C89.2249 76.1063 87.5331 77.7999 85.4431 77.7999C83.3531 77.7999 81.6553 76.1063 81.6553 74.0142C81.6553 71.9221 83.3531 70.2285 85.4431 70.2285C87.5331 70.2285 89.2249 71.9221 89.2249 74.0142Z" fill="#0A2783"/>
<path d="M115.529 74.0142C115.529 76.1063 113.837 77.7999 111.747 77.7999C109.657 77.7999 107.959 76.1063 107.959 74.0142C107.959 71.9221 109.657 70.2285 111.747 70.2285C113.837 70.2285 115.529 71.9221 115.529 74.0142Z" fill="#0A2783"/>
<path d="M-15.9954 74.0142C-15.9954 76.1063 -17.6873 77.7999 -19.7773 77.7999C-21.8674 77.7999 -23.5593 76.1063 -23.5593 74.0142C-23.5593 71.9221 -21.8674 70.2285 -19.7773 70.2285C-17.6873 70.2285 -15.9954 71.9221 -15.9954 74.0142Z" fill="#0A2783"/>
<path d="M-42.299 74.0142C-42.299 76.1063 -43.991 77.7999 -46.081 77.7999C-48.171 77.7999 -49.8687 76.1063 -49.8687 74.0142C-49.8687 71.9221 -48.171 70.2285 -46.081 70.2285C-43.991 70.2285 -42.299 71.9221 -42.299 74.0142Z" fill="#0A2783"/>
<path d="M-173.823 74.0142C-173.823 76.1063 -175.515 77.7999 -177.605 77.7999C-179.695 77.7999 -181.387 76.1063 -181.387 74.0142C-181.387 71.9221 -179.695 70.2285 -177.605 70.2285C-175.515 70.2285 -173.823 71.9221 -173.823 74.0142Z" fill="#0A2783"/>
<path d="M-147.519 74.0142C-147.519 76.1063 -149.211 77.7999 -151.301 77.7999C-153.391 77.7999 -155.083 76.1063 -155.083 74.0142C-155.083 71.9221 -153.391 70.2285 -151.301 70.2285C-149.211 70.2285 -147.519 71.9221 -147.519 74.0142Z" fill="#0A2783"/>
<path d="M-121.21 74.0142C-121.21 76.1063 -122.908 77.7999 -124.998 77.7999C-127.088 77.7999 -128.78 76.1063 -128.78 74.0142C-128.78 71.9221 -127.088 70.2285 -124.998 70.2285C-122.908 70.2285 -121.21 71.9221 -121.21 74.0142Z" fill="#0A2783"/>
<path d="M-94.9063 74.0142C-94.9063 76.1063 -96.6041 77.7999 -98.6941 77.7999C-100.778 77.7999 -102.476 76.1063 -102.476 74.0142C-102.476 71.9221 -100.778 70.2285 -98.6941 70.2285C-96.6041 70.2285 -94.9063 71.9221 -94.9063 74.0142Z" fill="#0A2783"/>
<path d="M-68.6027 74.0142C-68.6027 76.1063 -70.2946 77.7999 -72.3846 77.7999C-74.4746 77.7999 -76.1724 76.1063 -76.1724 74.0142C-76.1724 71.9221 -74.4746 70.2285 -72.3846 70.2285C-70.2946 70.2285 -68.6027 71.9221 -68.6027 74.0142Z" fill="#0A2783"/>
<path d="M-200.127 74.0142C-200.127 76.1063 -201.819 77.7999 -203.909 77.7999C-205.999 77.7999 -207.691 76.1063 -207.691 74.0142C-207.691 71.9221 -205.999 70.2285 -203.909 70.2285C-201.819 70.2285 -200.127 71.9221 -200.127 74.0142Z" fill="#0A2783"/>
<path d="M-226.43 74.0142C-226.43 76.1063 -228.122 77.7999 -230.212 77.7999C-232.302 77.7999 -234 76.1063 -234 74.0142C-234 71.9221 -232.302 70.2285 -230.212 70.2285C-228.122 70.2285 -226.43 71.9221 -226.43 74.0142Z" fill="#0A2783"/>
<path d="M10.3082 106.004C10.3082 108.096 8.61632 109.795 6.52631 109.795C4.43629 109.795 2.74438 108.096 2.74438 106.004C2.74438 103.912 4.43629 102.218 6.52631 102.218C8.61632 102.218 10.3082 103.912 10.3082 106.004Z" fill="#0A2783"/>
<path d="M36.6177 106.004C36.6177 108.096 34.9199 109.795 32.8299 109.795C30.7399 109.795 29.048 108.096 29.048 106.004C29.048 103.912 30.7399 102.218 32.8299 102.218C34.9199 102.218 36.6177 103.912 36.6177 106.004Z" fill="#0A2783"/>
<path d="M62.9213 106.004C62.9213 108.096 61.2236 109.795 59.1336 109.795C57.0436 109.795 55.3517 108.096 55.3517 106.004C55.3517 103.912 57.0436 102.218 59.1336 102.218C61.2236 102.218 62.9213 103.912 62.9213 106.004Z" fill="#0A2783"/>
<path d="M89.2249 106.004C89.2249 108.096 87.5331 109.795 85.4431 109.795C83.3531 109.795 81.6553 108.096 81.6553 106.004C81.6553 103.912 83.3531 102.218 85.4431 102.218C87.5331 102.218 89.2249 103.912 89.2249 106.004Z" fill="#0A2783"/>
<path d="M115.529 106.004C115.529 108.096 113.837 109.795 111.747 109.795C109.657 109.795 107.959 108.096 107.959 106.004C107.959 103.912 109.657 102.218 111.747 102.218C113.837 102.218 115.529 103.912 115.529 106.004Z" fill="#0A2783"/>
<path d="M-15.9954 106.004C-15.9954 108.096 -17.6873 109.795 -19.7773 109.795C-21.8674 109.795 -23.5593 108.096 -23.5593 106.004C-23.5593 103.912 -21.8674 102.218 -19.7773 102.218C-17.6873 102.218 -15.9954 103.912 -15.9954 106.004Z" fill="#0A2783"/>
<path d="M-42.299 106.004C-42.299 108.096 -43.991 109.795 -46.081 109.795C-48.171 109.795 -49.8687 108.096 -49.8687 106.004C-49.8687 103.912 -48.171 102.218 -46.081 102.218C-43.991 102.218 -42.299 103.912 -42.299 106.004Z" fill="#0A2783"/>
<path d="M-173.823 106.004C-173.823 108.096 -175.515 109.795 -177.605 109.795C-179.695 109.795 -181.387 108.096 -181.387 106.004C-181.387 103.912 -179.695 102.218 -177.605 102.218C-175.515 102.218 -173.823 103.912 -173.823 106.004Z" fill="#0A2783"/>
<path d="M-147.519 106.004C-147.519 108.096 -149.211 109.795 -151.301 109.795C-153.391 109.795 -155.083 108.096 -155.083 106.004C-155.083 103.912 -153.391 102.218 -151.301 102.218C-149.211 102.218 -147.519 103.912 -147.519 106.004Z" fill="#0A2783"/>
<path d="M-121.21 106.004C-121.21 108.096 -122.908 109.795 -124.998 109.795C-127.088 109.795 -128.78 108.096 -128.78 106.004C-128.78 103.912 -127.088 102.218 -124.998 102.218C-122.908 102.218 -121.21 103.912 -121.21 106.004Z" fill="#0A2783"/>
<path d="M-94.9063 106.004C-94.9063 108.096 -96.6041 109.795 -98.6941 109.795C-100.778 109.795 -102.476 108.096 -102.476 106.004C-102.476 103.912 -100.778 102.218 -98.6941 102.218C-96.6041 102.218 -94.9063 103.912 -94.9063 106.004Z" fill="#0A2783"/>
<path d="M-68.6027 106.004C-68.6027 108.096 -70.2946 109.795 -72.3846 109.795C-74.4746 109.795 -76.1724 108.096 -76.1724 106.004C-76.1724 103.912 -74.4746 102.218 -72.3846 102.218C-70.2946 102.218 -68.6027 103.912 -68.6027 106.004Z" fill="#0A2783"/>
<path d="M-200.127 106.004C-200.127 108.096 -201.819 109.795 -203.909 109.795C-205.999 109.795 -207.691 108.096 -207.691 106.004C-207.691 103.912 -205.999 102.218 -203.909 102.218C-201.819 102.218 -200.127 103.912 -200.127 106.004Z" fill="#0A2783"/>
<path d="M-226.43 106.004C-226.43 108.096 -228.122 109.795 -230.212 109.795C-232.302 109.795 -234 108.096 -234 106.004C-234 103.912 -232.302 102.218 -230.212 102.218C-228.122 102.218 -226.43 103.912 -226.43 106.004Z" fill="#0A2783"/>
</g>
<g opacity="0.1">
<path d="M644.648 3.79154C644.648 5.87777 642.956 7.57722 640.866 7.57722C638.776 7.57722 637.085 5.87777 637.085 3.79154C637.085 1.69945 638.776 0 640.866 0C642.956 0 644.648 1.69945 644.648 3.79154Z" fill="#0A2783"/>
<path d="M618.345 3.79154C618.345 5.87777 616.653 7.57722 614.563 7.57722C612.473 7.57722 610.781 5.87777 610.781 3.79154C610.781 1.69945 612.473 0 614.563 0C616.653 0 618.345 1.69945 618.345 3.79154Z" fill="#0A2783"/>
<path d="M592.041 3.79154C592.041 5.87777 590.349 7.57722 588.259 7.57722C586.169 7.57722 584.471 5.87777 584.471 3.79154C584.471 1.69945 586.169 0 588.259 0C590.349 0 592.041 1.69945 592.041 3.79154Z" fill="#0A2783"/>
<path d="M644.648 38.8999C644.648 40.992 642.956 42.6915 640.866 42.6915C638.776 42.6915 637.085 40.992 637.085 38.8999C637.085 36.8079 638.776 35.1143 640.866 35.1143C642.956 35.1143 644.648 36.8079 644.648 38.8999Z" fill="#0A2783"/>
<path d="M618.345 38.8999C618.345 40.992 616.653 42.6915 614.563 42.6915C612.473 42.6915 610.781 40.992 610.781 38.8999C610.781 36.8079 612.473 35.1143 614.563 35.1143C616.653 35.1143 618.345 36.8079 618.345 38.8999Z" fill="#0A2783"/>
<path d="M592.041 38.8999C592.041 40.992 590.349 42.6915 588.259 42.6915C586.169 42.6915 584.471 40.992 584.471 38.8999C584.471 36.8079 586.169 35.1143 588.259 35.1143C590.349 35.1143 592.041 36.8079 592.041 38.8999Z" fill="#0A2783"/>
<path d="M644.648 74.0142C644.648 76.1063 642.956 77.7999 640.866 77.7999C638.776 77.7999 637.085 76.1063 637.085 74.0142C637.085 71.9221 638.776 70.2285 640.866 70.2285C642.956 70.2285 644.648 71.9221 644.648 74.0142Z" fill="#0A2783"/>
<path d="M618.345 74.0142C618.345 76.1063 616.653 77.7999 614.563 77.7999C612.473 77.7999 610.781 76.1063 610.781 74.0142C610.781 71.9221 612.473 70.2285 614.563 70.2285C616.653 70.2285 618.345 71.9221 618.345 74.0142Z" fill="#0A2783"/>
<path d="M592.041 74.0142C592.041 76.1063 590.349 77.7999 588.259 77.7999C586.169 77.7999 584.471 76.1063 584.471 74.0142C584.471 71.9221 586.169 70.2285 588.259 70.2285C590.349 70.2285 592.041 71.9221 592.041 74.0142Z" fill="#0A2783"/>
<path d="M644.648 106.004C644.648 108.096 642.956 109.795 640.866 109.795C638.776 109.795 637.085 108.096 637.085 106.004C637.085 103.912 638.776 102.218 640.866 102.218C642.956 102.218 644.648 103.912 644.648 106.004Z" fill="#0A2783"/>
<path d="M618.345 106.004C618.345 108.096 616.653 109.795 614.563 109.795C612.473 109.795 610.781 108.096 610.781 106.004C610.781 103.912 612.473 102.218 614.563 102.218C616.653 102.218 618.345 103.912 618.345 106.004Z" fill="#0A2783"/>
<path d="M592.041 106.004C592.041 108.096 590.349 109.795 588.259 109.795C586.169 109.795 584.471 108.096 584.471 106.004C584.471 103.912 586.169 102.218 588.259 102.218C590.349 102.218 592.041 103.912 592.041 106.004Z" fill="#0A2783"/>
<path d="M458.308 3.79154C458.308 5.87777 456.616 7.57722 454.526 7.57722C452.436 7.57722 450.744 5.87777 450.744 3.79154C450.744 1.69945 452.436 0 454.526 0C456.616 0 458.308 1.69945 458.308 3.79154Z" fill="#0A2783"/>
<path d="M484.618 3.79154C484.618 5.87777 482.92 7.57722 480.83 7.57722C478.74 7.57722 477.048 5.87777 477.048 3.79154C477.048 1.69945 478.74 0 480.83 0C482.92 0 484.618 1.69945 484.618 3.79154Z" fill="#0A2783"/>
<path d="M510.921 3.79154C510.921 5.87777 509.224 7.57722 507.134 7.57722C505.044 7.57722 503.352 5.87777 503.352 3.79154C503.352 1.69945 505.044 0 507.134 0C509.224 0 510.921 1.69945 510.921 3.79154Z" fill="#0A2783"/>
<path d="M537.225 3.79154C537.225 5.87777 535.533 7.57722 533.443 7.57722C531.353 7.57722 529.655 5.87777 529.655 3.79154C529.655 1.69945 531.353 0 533.443 0C535.533 0 537.225 1.69945 537.225 3.79154Z" fill="#0A2783"/>
<path d="M563.529 3.79154C563.529 5.87777 561.837 7.57722 559.747 7.57722C557.657 7.57722 555.959 5.87777 555.959 3.79154C555.959 1.69945 557.657 0 559.747 0C561.837 0 563.529 1.69945 563.529 3.79154Z" fill="#0A2783"/>
<path d="M432.005 3.79154C432.005 5.87777 430.313 7.57722 428.223 7.57722C426.133 7.57722 424.441 5.87777 424.441 3.79154C424.441 1.69945 426.133 0 428.223 0C430.313 0 432.005 1.69945 432.005 3.79154Z" fill="#0A2783"/>
<path d="M405.701 3.79154C405.701 5.87777 404.009 7.57722 401.919 7.57722C399.829 7.57722 398.131 5.87777 398.131 3.79154C398.131 1.69945 399.829 0 401.919 0C404.009 0 405.701 1.69945 405.701 3.79154Z" fill="#0A2783"/>
<path d="M274.177 3.79154C274.177 5.87777 272.485 7.57722 270.395 7.57722C268.305 7.57722 266.613 5.87777 266.613 3.79154C266.613 1.69945 268.305 0 270.395 0C272.485 0 274.177 1.69945 274.177 3.79154Z" fill="#0A2783"/>
<path d="M300.481 3.79154C300.481 5.87777 298.789 7.57722 296.699 7.57722C294.609 7.57722 292.917 5.87777 292.917 3.79154C292.917 1.69945 294.609 0 296.699 0C298.789 0 300.481 1.69945 300.481 3.79154Z" fill="#0A2783"/>
<path d="M326.79 3.79154C326.79 5.87777 325.092 7.57722 323.002 7.57722C320.912 7.57722 319.22 5.87777 319.22 3.79154C319.22 1.69945 320.912 0 323.002 0C325.092 0 326.79 1.69945 326.79 3.79154Z" fill="#0A2783"/>
<path d="M353.094 3.79154C353.094 5.87777 351.396 7.57722 349.306 7.57722C347.222 7.57722 345.524 5.87777 345.524 3.79154C345.524 1.69945 347.222 0 349.306 0C351.396 0 353.094 1.69945 353.094 3.79154Z" fill="#0A2783"/>
<path d="M379.397 3.79154C379.397 5.87777 377.705 7.57722 375.615 7.57722C373.525 7.57722 371.828 5.87777 371.828 3.79154C371.828 1.69945 373.525 0 375.615 0C377.705 0 379.397 1.69945 379.397 3.79154Z" fill="#0A2783"/>
<path d="M247.873 3.79154C247.873 5.87777 246.181 7.57722 244.091 7.57722C242.001 7.57722 240.309 5.87777 240.309 3.79154C240.309 1.69945 242.001 0 244.091 0C246.181 0 247.873 1.69945 247.873 3.79154Z" fill="#0A2783"/>
<path d="M221.57 3.79154C221.57 5.87777 219.878 7.57722 217.788 7.57722C215.698 7.57722 214 5.87777 214 3.79154C214 1.69945 215.698 0 217.788 0C219.878 0 221.57 1.69945 221.57 3.79154Z" fill="#0A2783"/>
<path d="M458.308 38.8999C458.308 40.992 456.616 42.6915 454.526 42.6915C452.436 42.6915 450.744 40.992 450.744 38.8999C450.744 36.8079 452.436 35.1143 454.526 35.1143C456.616 35.1143 458.308 36.8079 458.308 38.8999Z" fill="#0A2783"/>
<path d="M484.618 38.8999C484.618 40.992 482.92 42.6915 480.83 42.6915C478.74 42.6915 477.048 40.992 477.048 38.8999C477.048 36.8079 478.74 35.1143 480.83 35.1143C482.92 35.1143 484.618 36.8079 484.618 38.8999Z" fill="#0A2783"/>
<path d="M510.921 38.8999C510.921 40.992 509.224 42.6915 507.134 42.6915C505.044 42.6915 503.352 40.992 503.352 38.8999C503.352 36.8079 505.044 35.1143 507.134 35.1143C509.224 35.1143 510.921 36.8079 510.921 38.8999Z" fill="#0A2783"/>
<path d="M537.225 38.8999C537.225 40.992 535.533 42.6915 533.443 42.6915C531.353 42.6915 529.655 40.992 529.655 38.8999C529.655 36.8079 531.353 35.1143 533.443 35.1143C535.533 35.1143 537.225 36.8079 537.225 38.8999Z" fill="#0A2783"/>
<path d="M563.529 38.8999C563.529 40.992 561.837 42.6915 559.747 42.6915C557.657 42.6915 555.959 40.992 555.959 38.8999C555.959 36.8079 557.657 35.1143 559.747 35.1143C561.837 35.1143 563.529 36.8079 563.529 38.8999Z" fill="#0A2783"/>
<path d="M432.005 38.8999C432.005 40.992 430.313 42.6915 428.223 42.6915C426.133 42.6915 424.441 40.992 424.441 38.8999C424.441 36.8079 426.133 35.1143 428.223 35.1143C430.313 35.1143 432.005 36.8079 432.005 38.8999Z" fill="#0A2783"/>
<path d="M405.701 38.8999C405.701 40.992 404.009 42.6915 401.919 42.6915C399.829 42.6915 398.131 40.992 398.131 38.8999C398.131 36.8079 399.829 35.1143 401.919 35.1143C404.009 35.1143 405.701 36.8079 405.701 38.8999Z" fill="#0A2783"/>
<path d="M274.177 38.8999C274.177 40.992 272.485 42.6915 270.395 42.6915C268.305 42.6915 266.613 40.992 266.613 38.8999C266.613 36.8079 268.305 35.1143 270.395 35.1143C272.485 35.1143 274.177 36.8079 274.177 38.8999Z" fill="#0A2783"/>
<path d="M300.481 38.8999C300.481 40.992 298.789 42.6915 296.699 42.6915C294.609 42.6915 292.917 40.992 292.917 38.8999C292.917 36.8079 294.609 35.1143 296.699 35.1143C298.789 35.1143 300.481 36.8079 300.481 38.8999Z" fill="#0A2783"/>
<path d="M326.79 38.8999C326.79 40.992 325.092 42.6915 323.002 42.6915C320.912 42.6915 319.22 40.992 319.22 38.8999C319.22 36.8079 320.912 35.1143 323.002 35.1143C325.092 35.1143 326.79 36.8079 326.79 38.8999Z" fill="#0A2783"/>
<path d="M353.094 38.8999C353.094 40.992 351.396 42.6915 349.306 42.6915C347.222 42.6915 345.524 40.992 345.524 38.8999C345.524 36.8079 347.222 35.1143 349.306 35.1143C351.396 35.1143 353.094 36.8079 353.094 38.8999Z" fill="#0A2783"/>
<path d="M379.397 38.8999C379.397 40.992 377.705 42.6915 375.615 42.6915C373.525 42.6915 371.828 40.992 371.828 38.8999C371.828 36.8079 373.525 35.1143 375.615 35.1143C377.705 35.1143 379.397 36.8079 379.397 38.8999Z" fill="#0A2783"/>
<path d="M247.873 38.8999C247.873 40.992 246.181 42.6915 244.091 42.6915C242.001 42.6915 240.309 40.992 240.309 38.8999C240.309 36.8079 242.001 35.1143 244.091 35.1143C246.181 35.1143 247.873 36.8079 247.873 38.8999Z" fill="#0A2783"/>
<path d="M221.57 38.8999C221.57 40.992 219.878 42.6915 217.788 42.6915C215.698 42.6915 214 40.992 214 38.8999C214 36.8079 215.698 35.1143 217.788 35.1143C219.878 35.1143 221.57 36.8079 221.57 38.8999Z" fill="#0A2783"/>
<path d="M458.308 74.0142C458.308 76.1063 456.616 77.7999 454.526 77.7999C452.436 77.7999 450.744 76.1063 450.744 74.0142C450.744 71.9221 452.436 70.2285 454.526 70.2285C456.616 70.2285 458.308 71.9221 458.308 74.0142Z" fill="#0A2783"/>
<path d="M484.618 74.0142C484.618 76.1063 482.92 77.7999 480.83 77.7999C478.74 77.7999 477.048 76.1063 477.048 74.0142C477.048 71.9221 478.74 70.2285 480.83 70.2285C482.92 70.2285 484.618 71.9221 484.618 74.0142Z" fill="#0A2783"/>
<path d="M510.921 74.0142C510.921 76.1063 509.224 77.7999 507.134 77.7999C505.044 77.7999 503.352 76.1063 503.352 74.0142C503.352 71.9221 505.044 70.2285 507.134 70.2285C509.224 70.2285 510.921 71.9221 510.921 74.0142Z" fill="#0A2783"/>
<path d="M537.225 74.0142C537.225 76.1063 535.533 77.7999 533.443 77.7999C531.353 77.7999 529.655 76.1063 529.655 74.0142C529.655 71.9221 531.353 70.2285 533.443 70.2285C535.533 70.2285 537.225 71.9221 537.225 74.0142Z" fill="#0A2783"/>
<path d="M563.529 74.0142C563.529 76.1063 561.837 77.7999 559.747 77.7999C557.657 77.7999 555.959 76.1063 555.959 74.0142C555.959 71.9221 557.657 70.2285 559.747 70.2285C561.837 70.2285 563.529 71.9221 563.529 74.0142Z" fill="#0A2783"/>
<path d="M432.005 74.0142C432.005 76.1063 430.313 77.7999 428.223 77.7999C426.133 77.7999 424.441 76.1063 424.441 74.0142C424.441 71.9221 426.133 70.2285 428.223 70.2285C430.313 70.2285 432.005 71.9221 432.005 74.0142Z" fill="#0A2783"/>
<path d="M405.701 74.0142C405.701 76.1063 404.009 77.7999 401.919 77.7999C399.829 77.7999 398.131 76.1063 398.131 74.0142C398.131 71.9221 399.829 70.2285 401.919 70.2285C404.009 70.2285 405.701 71.9221 405.701 74.0142Z" fill="#0A2783"/>
<path d="M274.177 74.0142C274.177 76.1063 272.485 77.7999 270.395 77.7999C268.305 77.7999 266.613 76.1063 266.613 74.0142C266.613 71.9221 268.305 70.2285 270.395 70.2285C272.485 70.2285 274.177 71.9221 274.177 74.0142Z" fill="#0A2783"/>
<path d="M300.481 74.0142C300.481 76.1063 298.789 77.7999 296.699 77.7999C294.609 77.7999 292.917 76.1063 292.917 74.0142C292.917 71.9221 294.609 70.2285 296.699 70.2285C298.789 70.2285 300.481 71.9221 300.481 74.0142Z" fill="#0A2783"/>
<path d="M326.79 74.0142C326.79 76.1063 325.092 77.7999 323.002 77.7999C320.912 77.7999 319.22 76.1063 319.22 74.0142C319.22 71.9221 320.912 70.2285 323.002 70.2285C325.092 70.2285 326.79 71.9221 326.79 74.0142Z" fill="#0A2783"/>
<path d="M353.094 74.0142C353.094 76.1063 351.396 77.7999 349.306 77.7999C347.222 77.7999 345.524 76.1063 345.524 74.0142C345.524 71.9221 347.222 70.2285 349.306 70.2285C351.396 70.2285 353.094 71.9221 353.094 74.0142Z" fill="#0A2783"/>
<path d="M379.397 74.0142C379.397 76.1063 377.705 77.7999 375.615 77.7999C373.525 77.7999 371.828 76.1063 371.828 74.0142C371.828 71.9221 373.525 70.2285 375.615 70.2285C377.705 70.2285 379.397 71.9221 379.397 74.0142Z" fill="#0A2783"/>
<path d="M247.873 74.0142C247.873 76.1063 246.181 77.7999 244.091 77.7999C242.001 77.7999 240.309 76.1063 240.309 74.0142C240.309 71.9221 242.001 70.2285 244.091 70.2285C246.181 70.2285 247.873 71.9221 247.873 74.0142Z" fill="#0A2783"/>
<path d="M221.57 74.0142C221.57 76.1063 219.878 77.7999 217.788 77.7999C215.698 77.7999 214 76.1063 214 74.0142C214 71.9221 215.698 70.2285 217.788 70.2285C219.878 70.2285 221.57 71.9221 221.57 74.0142Z" fill="#0A2783"/>
<path d="M458.308 106.004C458.308 108.096 456.616 109.795 454.526 109.795C452.436 109.795 450.744 108.096 450.744 106.004C450.744 103.912 452.436 102.218 454.526 102.218C456.616 102.218 458.308 103.912 458.308 106.004Z" fill="#0A2783"/>
<path d="M484.618 106.004C484.618 108.096 482.92 109.795 480.83 109.795C478.74 109.795 477.048 108.096 477.048 106.004C477.048 103.912 478.74 102.218 480.83 102.218C482.92 102.218 484.618 103.912 484.618 106.004Z" fill="#0A2783"/>
<path d="M510.921 106.004C510.921 108.096 509.224 109.795 507.134 109.795C505.044 109.795 503.352 108.096 503.352 106.004C503.352 103.912 505.044 102.218 507.134 102.218C509.224 102.218 510.921 103.912 510.921 106.004Z" fill="#0A2783"/>
<path d="M537.225 106.004C537.225 108.096 535.533 109.795 533.443 109.795C531.353 109.795 529.655 108.096 529.655 106.004C529.655 103.912 531.353 102.218 533.443 102.218C535.533 102.218 537.225 103.912 537.225 106.004Z" fill="#0A2783"/>
<path d="M563.529 106.004C563.529 108.096 561.837 109.795 559.747 109.795C557.657 109.795 555.959 108.096 555.959 106.004C555.959 103.912 557.657 102.218 559.747 102.218C561.837 102.218 563.529 103.912 563.529 106.004Z" fill="#0A2783"/>
<path d="M432.005 106.004C432.005 108.096 430.313 109.795 428.223 109.795C426.133 109.795 424.441 108.096 424.441 106.004C424.441 103.912 426.133 102.218 428.223 102.218C430.313 102.218 432.005 103.912 432.005 106.004Z" fill="#0A2783"/>
<path d="M405.701 106.004C405.701 108.096 404.009 109.795 401.919 109.795C399.829 109.795 398.131 108.096 398.131 106.004C398.131 103.912 399.829 102.218 401.919 102.218C404.009 102.218 405.701 103.912 405.701 106.004Z" fill="#0A2783"/>
<path d="M274.177 106.004C274.177 108.096 272.485 109.795 270.395 109.795C268.305 109.795 266.613 108.096 266.613 106.004C266.613 103.912 268.305 102.218 270.395 102.218C272.485 102.218 274.177 103.912 274.177 106.004Z" fill="#0A2783"/>
<path d="M300.481 106.004C300.481 108.096 298.789 109.795 296.699 109.795C294.609 109.795 292.917 108.096 292.917 106.004C292.917 103.912 294.609 102.218 296.699 102.218C298.789 102.218 300.481 103.912 300.481 106.004Z" fill="#0A2783"/>
<path d="M326.79 106.004C326.79 108.096 325.092 109.795 323.002 109.795C320.912 109.795 319.22 108.096 319.22 106.004C319.22 103.912 320.912 102.218 323.002 102.218C325.092 102.218 326.79 103.912 326.79 106.004Z" fill="#0A2783"/>
<path d="M353.094 106.004C353.094 108.096 351.396 109.795 349.306 109.795C347.222 109.795 345.524 108.096 345.524 106.004C345.524 103.912 347.222 102.218 349.306 102.218C351.396 102.218 353.094 103.912 353.094 106.004Z" fill="#0A2783"/>
<path d="M379.397 106.004C379.397 108.096 377.705 109.795 375.615 109.795C373.525 109.795 371.828 108.096 371.828 106.004C371.828 103.912 373.525 102.218 375.615 102.218C377.705 102.218 379.397 103.912 379.397 106.004Z" fill="#0A2783"/>
<path d="M247.873 106.004C247.873 108.096 246.181 109.795 244.091 109.795C242.001 109.795 240.309 108.096 240.309 106.004C240.309 103.912 242.001 102.218 244.091 102.218C246.181 102.218 247.873 103.912 247.873 106.004Z" fill="#0A2783"/>
<path d="M221.57 106.004C221.57 108.096 219.878 109.795 217.788 109.795C215.698 109.795 214 108.096 214 106.004C214 103.912 215.698 102.218 217.788 102.218C219.878 102.218 221.57 103.912 221.57 106.004Z" fill="#0A2783"/>
</g>
<path d="M197.177 3.79154C197.177 5.87777 195.485 7.57722 193.395 7.57722C191.305 7.57722 189.613 5.87777 189.613 3.79154C189.613 1.69945 191.305 0 193.395 0C195.485 0 197.177 1.69945 197.177 3.79154Z" fill="#0A2783"/>
<path d="M170.873 3.79154C170.873 5.87777 169.181 7.57722 167.091 7.57722C165.001 7.57722 163.309 5.87777 163.309 3.79154C163.309 1.69945 165.001 0 167.091 0C169.181 0 170.873 1.69945 170.873 3.79154Z" fill="#0A2783"/>
<path d="M144.57 3.79154C144.57 5.87777 142.878 7.57722 140.788 7.57722C138.698 7.57722 137 5.87777 137 3.79154C137 1.69945 138.698 0 140.788 0C142.878 0 144.57 1.69945 144.57 3.79154Z" fill="#0A2783"/>
<path d="M89.5697 3.79154C89.5697 5.87777 87.8778 7.57722 85.7878 7.57722C83.6978 7.57722 82 5.87777 82 3.79154C82 1.69945 83.6978 0 85.7878 0C87.8778 0 89.5697 1.69945 89.5697 3.79154Z" fill="#0A2783"/>
<path d="M115.873 3.79154C115.873 5.87777 114.181 7.57722 112.091 7.57722C110.001 7.57722 108.304 5.87777 108.304 3.79154C108.304 1.69945 110.001 0 112.091 0C114.181 0 115.873 1.69945 115.873 3.79154Z" fill="#0A2783"/>
<path d="M197.177 38.9546C197.177 41.0408 195.485 42.7402 193.395 42.7402C191.305 42.7402 189.613 41.0408 189.613 38.9546C189.613 36.8625 191.305 35.163 193.395 35.163C195.485 35.163 197.177 36.8625 197.177 38.9546Z" fill="#0A2783"/>
<path d="M170.873 38.9546C170.873 41.0408 169.181 42.7402 167.091 42.7402C165.001 42.7402 163.309 41.0408 163.309 38.9546C163.309 36.8625 165.001 35.163 167.091 35.163C169.181 35.163 170.873 36.8625 170.873 38.9546Z" fill="#0A2783"/>
<path d="M144.57 38.9546C144.57 41.0408 142.878 42.7402 140.788 42.7402C138.698 42.7402 137 41.0408 137 38.9546C137 36.8625 138.698 35.163 140.788 35.163C142.878 35.163 144.57 36.8625 144.57 38.9546Z" fill="#0A2783"/>
<path d="M89.5697 38.9546C89.5697 41.0408 87.8778 42.7402 85.7878 42.7402C83.6978 42.7402 82 41.0408 82 38.9546C82 36.8625 83.6978 35.163 85.7878 35.163C87.8778 35.163 89.5697 36.8625 89.5697 38.9546Z" fill="#0A2783"/>
<path d="M115.873 38.9546C115.873 41.0408 114.181 42.7402 112.091 42.7402C110.001 42.7402 108.304 41.0408 108.304 38.9546C108.304 36.8625 110.001 35.163 112.091 35.163C114.181 35.163 115.873 36.8625 115.873 38.9546Z" fill="#0A2783"/>
<path d="M197.177 73.9546C197.177 76.0408 195.485 77.7402 193.395 77.7402C191.305 77.7402 189.613 76.0408 189.613 73.9546C189.613 71.8625 191.305 70.163 193.395 70.163C195.485 70.163 197.177 71.8625 197.177 73.9546Z" fill="#0A2783"/>
<path d="M170.873 73.9546C170.873 76.0408 169.181 77.7402 167.091 77.7402C165.001 77.7402 163.309 76.0408 163.309 73.9546C163.309 71.8625 165.001 70.163 167.091 70.163C169.181 70.163 170.873 71.8625 170.873 73.9546Z" fill="#0A2783"/>
<path d="M144.57 73.9546C144.57 76.0408 142.878 77.7402 140.788 77.7402C138.698 77.7402 137 76.0408 137 73.9546C137 71.8625 138.698 70.163 140.788 70.163C142.878 70.163 144.57 71.8625 144.57 73.9546Z" fill="#0A2783"/>
<path d="M89.5697 73.9546C89.5697 76.0408 87.8778 77.7402 85.7878 77.7402C83.6978 77.7402 82 76.0408 82 73.9546C82 71.8625 83.6978 70.163 85.7878 70.163C87.8778 70.163 89.5697 71.8625 89.5697 73.9546Z" fill="#0A2783"/>
<path d="M115.873 73.9546C115.873 76.0408 114.181 77.7402 112.091 77.7402C110.001 77.7402 108.304 76.0408 108.304 73.9546C108.304 71.8625 110.001 70.163 112.091 70.163C114.181 70.163 115.873 71.8625 115.873 73.9546Z" fill="#0A2783"/>
<path d="M197.177 105.955C197.177 108.041 195.485 109.74 193.395 109.74C191.305 109.74 189.613 108.041 189.613 105.955C189.613 103.862 191.305 102.163 193.395 102.163C195.485 102.163 197.177 103.862 197.177 105.955Z" fill="#0A2783"/>
<path d="M170.873 105.955C170.873 108.041 169.181 109.74 167.091 109.74C165.001 109.74 163.309 108.041 163.309 105.955C163.309 103.862 165.001 102.163 167.091 102.163C169.181 102.163 170.873 103.862 170.873 105.955Z" fill="#0A2783"/>
<path d="M144.57 105.955C144.57 108.041 142.878 109.74 140.788 109.74C138.698 109.74 137 108.041 137 105.955C137 103.862 138.698 102.163 140.788 102.163C142.878 102.163 144.57 103.862 144.57 105.955Z" fill="#0A2783"/>
<path d="M89.5697 105.955C89.5697 108.041 87.8778 109.74 85.7878 109.74C83.6978 109.74 82 108.041 82 105.955C82 103.862 83.6978 102.163 85.7878 102.163C87.8778 102.163 89.5697 103.862 89.5697 105.955Z" fill="#0A2783"/>
<path d="M115.873 105.955C115.873 108.041 114.181 109.74 112.091 109.74C110.001 109.74 108.304 108.041 108.304 105.955C108.304 103.862 110.001 102.163 112.091 102.163C114.181 102.163 115.873 103.862 115.873 105.955Z" fill="#0A2783"/>
</svg>
