<svg width="245" height="78" viewBox="0 0 245 78" fill="none" xmlns="http://www.w3.org/2000/svg">
<g opacity="0.1">
<path d="M60.1769 3.78568C60.1769 5.87777 58.485 7.57723 56.395 7.57723C54.305 7.57723 52.6131 5.87777 52.6131 3.78568C52.6131 1.6936 54.305 0 56.395 0C58.485 0 60.1769 1.6936 60.1769 3.78568Z" fill="#0A2783"/>
<path d="M86.4806 3.78568C86.4806 5.87777 84.7887 7.57723 82.6987 7.57723C80.6087 7.57723 78.9167 5.87777 78.9167 3.78568C78.9167 1.6936 80.6087 0 82.6987 0C84.7887 0 86.4806 1.6936 86.4806 3.78568Z" fill="#0A2783"/>
<path d="M112.79 3.78568C112.79 5.87777 111.092 7.57723 109.002 7.57723C106.912 7.57723 105.22 5.87777 105.22 3.78568C105.22 1.6936 106.912 0 109.002 0C111.092 0 112.79 1.6936 112.79 3.78568Z" fill="#0A2783"/>
<path d="M139.094 3.78568C139.094 5.87777 137.396 7.57723 135.306 7.57723C133.222 7.57723 131.524 5.87777 131.524 3.78568C131.524 1.6936 133.222 0 135.306 0C137.396 0 139.094 1.6936 139.094 3.78568Z" fill="#0A2783"/>
<path d="M165.397 3.78568C165.397 5.87777 163.705 7.57723 161.615 7.57723C159.525 7.57723 157.828 5.87777 157.828 3.78568C157.828 1.6936 159.525 0 161.615 0C163.705 0 165.397 1.6936 165.397 3.78568Z" fill="#0A2783"/>
<path d="M33.8733 3.78568C33.8733 5.87777 32.1814 7.57723 30.0914 7.57723C28.0014 7.57723 26.3095 5.87777 26.3095 3.78568C26.3095 1.6936 28.0014 0 30.0914 0C32.1814 0 33.8733 1.6936 33.8733 3.78568Z" fill="#0A2783"/>
<path d="M7.56969 3.78568C7.56969 5.87777 5.87778 7.57723 3.78777 7.57723C1.69776 7.57723 0 5.87777 0 3.78568C0 1.6936 1.69776 0 3.78777 0C5.87778 0 7.56969 1.6936 7.56969 3.78568Z" fill="#0A2783"/>
<path d="M60.1769 38.9C60.1769 40.9921 58.485 42.6856 56.395 42.6856C54.305 42.6856 52.6131 40.9921 52.6131 38.9C52.6131 36.8079 54.305 35.1143 56.395 35.1143C58.485 35.1143 60.1769 36.8079 60.1769 38.9Z" fill="#0A2783"/>
<path d="M86.4806 38.9C86.4806 40.9921 84.7887 42.6856 82.6987 42.6856C80.6087 42.6856 78.9167 40.9921 78.9167 38.9C78.9167 36.8079 80.6087 35.1143 82.6987 35.1143C84.7887 35.1143 86.4806 36.8079 86.4806 38.9Z" fill="#0A2783"/>
<path d="M112.79 38.9C112.79 40.9921 111.092 42.6856 109.002 42.6856C106.912 42.6856 105.22 40.9921 105.22 38.9C105.22 36.8079 106.912 35.1143 109.002 35.1143C111.092 35.1143 112.79 36.8079 112.79 38.9Z" fill="#0A2783"/>
<path d="M139.094 38.9C139.094 40.9921 137.396 42.6856 135.306 42.6856C133.222 42.6856 131.524 40.9921 131.524 38.9C131.524 36.8079 133.222 35.1143 135.306 35.1143C137.396 35.1143 139.094 36.8079 139.094 38.9Z" fill="#0A2783"/>
<path d="M165.397 38.9C165.397 40.9921 163.705 42.6856 161.615 42.6856C159.525 42.6856 157.828 40.9921 157.828 38.9C157.828 36.8079 159.525 35.1143 161.615 35.1143C163.705 35.1143 165.397 36.8079 165.397 38.9Z" fill="#0A2783"/>
<path d="M33.8733 38.9C33.8733 40.9921 32.1814 42.6856 30.0914 42.6856C28.0014 42.6856 26.3095 40.9921 26.3095 38.9C26.3095 36.8079 28.0014 35.1143 30.0914 35.1143C32.1814 35.1143 33.8733 36.8079 33.8733 38.9Z" fill="#0A2783"/>
<path d="M7.56969 38.9C7.56969 40.9921 5.87778 42.6856 3.78777 42.6856C1.69776 42.6856 0 40.9921 0 38.9C0 36.8079 1.69776 35.1143 3.78777 35.1143C5.87778 35.1143 7.56969 36.8079 7.56969 38.9Z" fill="#0A2783"/>
<path d="M60.1769 74.0142C60.1769 76.1063 58.485 77.7999 56.395 77.7999C54.305 77.7999 52.6131 76.1063 52.6131 74.0142C52.6131 71.9222 54.305 70.2227 56.395 70.2227C58.485 70.2227 60.1769 71.9222 60.1769 74.0142Z" fill="#0A2783"/>
<path d="M86.4806 74.0142C86.4806 76.1063 84.7887 77.7999 82.6987 77.7999C80.6087 77.7999 78.9167 76.1063 78.9167 74.0142C78.9167 71.9222 80.6087 70.2227 82.6987 70.2227C84.7887 70.2227 86.4806 71.9222 86.4806 74.0142Z" fill="#0A2783"/>
<path d="M112.79 74.0142C112.79 76.1063 111.092 77.7999 109.002 77.7999C106.912 77.7999 105.22 76.1063 105.22 74.0142C105.22 71.9222 106.912 70.2227 109.002 70.2227C111.092 70.2227 112.79 71.9222 112.79 74.0142Z" fill="#0A2783"/>
<path d="M139.094 74.0142C139.094 76.1063 137.396 77.7999 135.306 77.7999C133.222 77.7999 131.524 76.1063 131.524 74.0142C131.524 71.9222 133.222 70.2227 135.306 70.2227C137.396 70.2227 139.094 71.9222 139.094 74.0142Z" fill="#0A2783"/>
<path d="M165.397 74.0142C165.397 76.1063 163.705 77.7999 161.615 77.7999C159.525 77.7999 157.828 76.1063 157.828 74.0142C157.828 71.9222 159.525 70.2227 161.615 70.2227C163.705 70.2227 165.397 71.9222 165.397 74.0142Z" fill="#0A2783"/>
<path d="M33.8733 74.0142C33.8733 76.1063 32.1814 77.7999 30.0914 77.7999C28.0014 77.7999 26.3095 76.1063 26.3095 74.0142C26.3095 71.9222 28.0014 70.2227 30.0914 70.2227C32.1814 70.2227 33.8733 71.9222 33.8733 74.0142Z" fill="#0A2783"/>
<path d="M7.56969 74.0142C7.56969 76.1063 5.87778 77.7999 3.78777 77.7999C1.69776 77.7999 0 76.1063 0 74.0142C0 71.9222 1.69776 70.2227 3.78777 70.2227C5.87778 70.2227 7.56969 71.9222 7.56969 74.0142Z" fill="#0A2783"/>
</g>
<g opacity="0.1">
<path d="M244.177 3.78568C244.177 5.87777 242.485 7.57723 240.395 7.57723C238.305 7.57723 236.613 5.87777 236.613 3.78568C236.613 1.6936 238.305 0 240.395 0C242.485 0 244.177 1.6936 244.177 3.78568Z" fill="#0A2783"/>
<path d="M217.873 3.78568C217.873 5.87777 216.181 7.57723 214.091 7.57723C212.001 7.57723 210.309 5.87777 210.309 3.78568C210.309 1.6936 212.001 0 214.091 0C216.181 0 217.873 1.6936 217.873 3.78568Z" fill="#0A2783"/>
<path d="M191.57 3.78568C191.57 5.87777 189.878 7.57723 187.788 7.57723C185.698 7.57723 184 5.87777 184 3.78568C184 1.6936 185.698 0 187.788 0C189.878 0 191.57 1.6936 191.57 3.78568Z" fill="#0A2783"/>
<path d="M244.177 38.9C244.177 40.9921 242.485 42.6856 240.395 42.6856C238.305 42.6856 236.613 40.9921 236.613 38.9C236.613 36.8079 238.305 35.1143 240.395 35.1143C242.485 35.1143 244.177 36.8079 244.177 38.9Z" fill="#0A2783"/>
<path d="M217.873 38.9C217.873 40.9921 216.181 42.6856 214.091 42.6856C212.001 42.6856 210.309 40.9921 210.309 38.9C210.309 36.8079 212.001 35.1143 214.091 35.1143C216.181 35.1143 217.873 36.8079 217.873 38.9Z" fill="#0A2783"/>
<path d="M191.57 38.9C191.57 40.9921 189.878 42.6856 187.788 42.6856C185.698 42.6856 184 40.9921 184 38.9C184 36.8079 185.698 35.1143 187.788 35.1143C189.878 35.1143 191.57 36.8079 191.57 38.9Z" fill="#0A2783"/>
<path d="M244.177 74.0142C244.177 76.1063 242.485 77.7999 240.395 77.7999C238.305 77.7999 236.613 76.1063 236.613 74.0142C236.613 71.9222 238.305 70.2227 240.395 70.2227C242.485 70.2227 244.177 71.9222 244.177 74.0142Z" fill="#0A2783"/>
<path d="M217.873 74.0142C217.873 76.1063 216.181 77.7999 214.091 77.7999C212.001 77.7999 210.309 76.1063 210.309 74.0142C210.309 71.9222 212.001 70.2227 214.091 70.2227C216.181 70.2227 217.873 71.9222 217.873 74.0142Z" fill="#0A2783"/>
<path d="M191.57 74.0142C191.57 76.1063 189.878 77.7999 187.788 77.7999C185.698 77.7999 184 76.1063 184 74.0142C184 71.9222 185.698 70.2227 187.788 70.2227C189.878 70.2227 191.57 71.9222 191.57 74.0142Z" fill="#0A2783"/>
</g>
</svg>
